<svg xmlns="http://www.w3.org/2000/svg" xmlns:xlink="http://www.w3.org/1999/xlink" viewBox="0 0 659.13 617.85"><defs><style>.cls-1,.cls-2{fill:none;}.cls-1{clip-rule:evenodd;}.cls-3{isolation:isolate;}.cls-4{fill:#65185c;}.cls-5{fill:#9f1f5b;}.cls-11,.cls-12,.cls-5,.cls-6{fill-rule:evenodd;}.cls-6{fill:url(#linear-gradient);}.cls-7{opacity:0.17;}.cls-10,.cls-7{mix-blend-mode:overlay;}.cls-8{clip-path:url(#clip-path);}.cls-14,.cls-23,.cls-29,.cls-9{fill:#fff;}.cls-11{fill:#e66c00;}.cls-12{fill:url(#linear-gradient-2);}.cls-13{clip-path:url(#clip-path-2);}.cls-14{opacity:0.54;mix-blend-mode:soft-light;}.cls-15{fill:#fcec77;}.cls-16{fill:#01779e;}.cls-17{fill:url(#linear-gradient-3);}.cls-18{fill:#b8e0f4;}.cls-19{opacity:0.31;}.cls-20{clip-path:url(#clip-path-3);}.cls-21{fill:url(#linear-gradient-4);}.cls-22{clip-path:url(#clip-path-4);}.cls-23{opacity:0.3;}.cls-24{fill:url(#linear-gradient-5);}.cls-25{clip-path:url(#clip-path-5);}.cls-26{fill:url(#linear-gradient-6);}.cls-27{fill:#fce7c5;}.cls-28{fill:#76236c;}.cls-29{opacity:0.27;}.cls-30{fill:#e05196;}.cls-31{fill:#fab900;}.cls-32{fill:#fbe0a5;}</style><linearGradient id="linear-gradient" x1="424.68" y1="246.79" x2="424.68" y2="26.03" gradientUnits="userSpaceOnUse"><stop offset="0" stop-color="#d92b81"/><stop offset="0.58" stop-color="#e35098"/></linearGradient><clipPath id="clip-path" transform="translate(4.66)"><path class="cls-1" d="M566.89,236.81c-23.45,0-44.29-13.85-52.76-34.41-2.72-6.6-3.69-13.62-4.24-24.25,2.8-1.36,23.7-10.74,23.94-35-.19-8.88-4.35-23.35-25.7-31-.62-31-1.22-69.23-1.22-69.23,34.9,19.44,49,36.61,49,36.61l-4.09,43.05h0L547,179.05a16.85,16.85,0,0,0,17.21,16.48c1,0,12.51.09,16.06,0l.09,41-13.48.28ZM525.7,136.55a20.88,20.88,0,0,1,1.06,4.61,28.61,28.61,0,0,1,.1,4.74q-.78,10.2-9.31,18.81t-24.4,11.48l-4.87.86c-1.59.29-3.14.51-4.67.68,1.08,7.93,16.38,3.73,20.54,2.92l3.19,24.82a58.58,58.58,0,0,1-9.14,1.08c-3.16.13-6.37.11-9.63-.08q-25.63-1.5-41-13.67c-8-6.33-12.12-11.27-13.31-22.48,8.62-2.82,23.77-14.47,25.4-36.2.07-7.22-3.06-14.43-4.09-16.65,8.08-4.2,18.56-5.74,30.87-5a57.26,57.26,0,0,1,5.73.62q2.91.45,5.89,1.19a52,52,0,0,1,17,7.63,25.89,25.89,0,0,1,10.59,14.66Zm-36.85.95c-.84-2.76-2.09-4.29-3.77-4.59h-.45l-.45,0a.6.6,0,0,0-.46.13,4.18,4.18,0,0,0-2.3.92,7,7,0,0,0-1.94,2.59,33.29,33.29,0,0,0-2.62,9q-.74,4.86-1.2,10.41c0,.4-.05,1.15-.06,2.25s0,2.21,0,3.32c0,.3,0,.57-.05.82s0,.48,0,.68c.05.91.07,1.74.08,2.49s0,1.33,0,1.73a11.19,11.19,0,0,0,9.19-4.74,25.56,25.56,0,0,0,4.25-10,1,1,0,0,1,.09-.38,1.54,1.54,0,0,0,.11-.52,7.61,7.61,0,0,1,.14-1.12,9,9,0,0,0,.14-1.12,3.28,3.28,0,0,0,.2-1c0-.35,0-.72.07-1.12a28,28,0,0,0-.94-9.7Zm-45.59,18.28q-8.53,8.61-24.39,11.49c-1.66.28-3.29.56-4.88.85s-3.14.51-4.67.68c-.27,6.43,12.69,4.33,14.51,4.33a74.87,74.87,0,0,0,8.31-1.41l-1.37,24.82a32.88,32.88,0,0,1-6.86,1.08c-3.16.13-6.37.11-9.64-.08q-25.62-1.5-41-13.67t-14-36.38q1.24-21.56,14.61-33.48t38.23-10.49a57.58,57.58,0,0,1,5.73.62q2.91.45,5.89,1.19a52.12,52.12,0,0,1,17,7.63,25.9,25.9,0,0,1,10.59,14.65,21.09,21.09,0,0,1,1.06,4.62,29.87,29.87,0,0,1,.1,4.75q-.78,10.2-9.31,18.8Zm-28.7-30.36c-.84-2.76-2.1-4.28-3.77-4.58l-.23,0h-.22l-.45,0a.6.6,0,0,0-.46.13,4.18,4.18,0,0,0-2.3.92,7,7,0,0,0-1.94,2.6,33.29,33.29,0,0,0-2.62,9q-.74,4.85-1.2,10.4c0,.4-.05,1.15-.06,2.25s0,2.21,0,3.32c0,.3,0,.58-.05.83s0,.47,0,.67c0,.91.07,1.74.08,2.49s0,1.33,0,1.73a11.18,11.18,0,0,0,9.19-4.74,25.5,25.5,0,0,0,4.25-10,1,1,0,0,1,.09-.37,1.9,1.9,0,0,0,.11-.53,6.59,6.59,0,0,1,.14-1.12,9,9,0,0,0,.14-1.12,3.21,3.21,0,0,0,.2-1c0-.34.05-.72.07-1.12a28,28,0,0,0-.94-9.7Zm-60.51,21c-1.94,37.68,22.64,46.09,29.1,49.92-.48,5.25-1.25,10.4-2.44,13.7-7.7,21.32-28.55,36.23-52.56,36.76a58.14,58.14,0,0,1-26.09-110.58l23.24,36.13a16.85,16.85,0,1,0,21.54,15.82L339.51,132h0L332.9,75.35s1.42-1.5,7.71-4.33c3.39,3.27,13.51,5.16,19.62,3.44a22.93,22.93,0,0,0,15.46-13.37c1.9-.29,3.56-.53,5.61-.79,0,0,.08,18.48.25,41.73-17.61,6.27-27.73,29.63-27.5,44.36Zm-1.61-77A21.67,21.67,0,1,1,374.08,47.7a21.66,21.66,0,0,1-21.64,21.67Z"/></clipPath><linearGradient id="linear-gradient-2" x1="327.14" y1="506.43" x2="327.14" y2="140.51" gradientUnits="userSpaceOnUse"><stop offset="0" stop-color="#eb9609"/><stop offset="0.17" stop-color="#f1b427"/><stop offset="0.35" stop-color="#f7cd40"/><stop offset="0.52" stop-color="#fadc50"/><stop offset="0.65" stop-color="#fbe155"/></linearGradient><clipPath id="clip-path-2" transform="translate(4.66)"><path class="cls-1" d="M246.38,345h32.24V292s42.74-23.22,88.84-27.09V345h173.6S514.94,310,453.73,307.11c-25-1-58.89-2.32-58.89-2.32V226.2s144.52-9.81,227.28,101c9.5,12.49,13.92,22.3,2,39.37-14.27,20.41-44,45.88-108.4,45.88H246.38l-.78,2.26c-9.79,52.23-54.8,91.76-109.93,91.76A112.63,112.63,0,0,1,89.63,291l43.7,71a32.67,32.67,0,0,0,8.44,64.27c18.13,0,33.11-14.63,33.11-32.68L162.75,284.43h0L152.33,167.61s11.71-9.47,42.35-17.74a322.12,322.12,0,0,1,51.7-9.36V345Zm37.28,81.68a32.9,32.9,0,1,1-32.92,32.9,32.9,32.9,0,0,1,32.92-32.9Zm72.82,0a32.9,32.9,0,1,1-32.93,32.9,32.92,32.92,0,0,1,32.93-32.9Zm138.7,0a32.9,32.9,0,1,1-32.91,32.9,32.91,32.91,0,0,1,32.91-32.9Z"/></clipPath><linearGradient id="linear-gradient-3" x1="212.24" y1="86.85" x2="285.58" y2="54.96" gradientUnits="userSpaceOnUse"><stop offset="0.01" stop-color="#47b6fb"/><stop offset="1" stop-color="#67ccee"/></linearGradient><clipPath id="clip-path-3" transform="translate(4.66)"><path class="cls-2" d="M267.59,85.56c-5.89,1.43-5.45,7.61-5.85,11.93s-.26,10.74-6.23,14.94S238.42,101.7,237.92,101c-3.27-4.17-4.78-5.15-8.46-4.57-2,.32-17.63,5.49-22.33-1.62s4.83-16.75,8.09-21,.7-8.89-.82-10.91-9.45-12.14-5-18.08c4.82-6.39,14.19-2.27,21.28-.19,6,1.76,10.7-3.71,10.7-3.71s0,.06,4-3.35,9.44-7.52,13-6.12c6.17,2.41,6.27,18.78,6.28,19.2.17,6.23,3,7.8,3,7.8l3.67,1.9C275,62.21,286,67.05,285.83,73.73s-12.34,10.39-18.24,11.83Z"/></clipPath><linearGradient id="linear-gradient-4" x1="11.47" y1="263.32" x2="48.11" y2="247.38" xlink:href="#linear-gradient-3"/><clipPath id="clip-path-4" transform="translate(4.66)"><path class="cls-2" d="M39.12,262.68c-2.95.72-2.72,3.82-2.92,6s-.13,5.39-3.11,7.49-8.54-5.38-8.79-5.74c-1.63-2.1-2.38-2.59-4.22-2.3-1,.16-8.8,2.76-11.15-.81s2.41-8.4,4-10.54.35-4.46-.41-5.47-4.72-6.09-2.48-9.07c2.4-3.21,7.08-1.14,10.62-.09,3,.88,5.35-1.87,5.35-1.87s0,0,2-1.68,4.71-3.77,6.51-3.07c3.08,1.21,3.13,9.42,3.14,9.64.08,3.12,1.48,3.91,1.48,3.91L41,250c1.81.95,7.31,3.38,7.23,6.73s-6.16,5.21-9.1,5.93Z"/></clipPath><linearGradient id="linear-gradient-5" x1="162.12" y1="30.78" x2="198.76" y2="14.84" xlink:href="#linear-gradient-3"/><clipPath id="clip-path-5" transform="translate(4.66)"><path class="cls-2" d="M189.77,30.15c-2.94.72-2.72,3.82-2.92,6s-.13,5.39-3.11,7.5-8.53-5.39-8.79-5.75c-1.63-2.09-2.38-2.59-4.22-2.29-1,.16-8.8,2.75-11.15-.81s2.41-8.41,4-10.54.35-4.46-.41-5.47-4.72-6.09-2.48-9.07c2.41-3.21,7.09-1.14,10.63-.1,3,.88,5.34-1.86,5.34-1.86s0,0,2-1.68S183.4,2.28,185.19,3c3.08,1.21,3.13,9.42,3.14,9.63.08,3.12,1.48,3.91,1.48,3.91l1.83,1c1.81,1,7.32,3.37,7.24,6.72s-6.16,5.22-9.11,5.94Z"/></clipPath><linearGradient id="linear-gradient-6" x1="607.64" y1="267.76" x2="650.19" y2="249.25" xlink:href="#linear-gradient-3"/></defs><g class="cls-3"><g id="Layer_2" data-name="Layer 2"><g id="Layer_1-2" data-name="Layer 1"><path class="cls-4" d="M434.41,203.28c-1.58,4.9-5.41,6.16-9.73,7.05-7.8,1.62-15.57,1-23.37.21a89.71,89.71,0,0,1-13.48-2.64c-1.2-.31-1.53,0-1.76,1.16a61.74,61.74,0,0,1-3,10.88c6.28-2.11,12.5-1.73,18.67-1.62,6.53.13,13.06.33,19.57.86,9,.73,17.86,2,26.74,3.39a367.71,367.71,0,0,1,38,8.35,280.55,280.55,0,0,1,29,9.62,263,263,0,0,1,70,40.42,228.45,228.45,0,0,1,48,52,39.1,39.1,0,0,1,6.65,24c-.16,3.39-1.46,6.61-2.34,9.88-1.49,5.51-4.66,10.14-7.85,14.77a106.79,106.79,0,0,1-28.72,27.9,116.76,116.76,0,0,1-25.56,13.06c-10.61,3.86-21.63,6.28-32.72,8.25A128.73,128.73,0,0,1,526,432.69c-.75,0-1.48.16-2.57.29,9.47,10.14,14,22.1,13.14,35.56-.87,13.22-6.29,24.66-16.68,33.34A47.58,47.58,0,0,1,456.56,500c-16.47-15.59-21.39-44.23-2.05-66.6h-69c.91,1.18,1.74,2.33,2.65,3.41,5.26,6.27,7.66,13.74,9.3,21.6,1.51,7.26.35,14.25-1.58,21.21-3.38,12.22-11.19,20.91-21.8,27.39-4.37,2.66-9.29,3.63-14.12,5-7.85,2.17-15.44.88-23.07-1.14-8.54-2.26-15.38-7.14-21.33-13.44-1-1-1.35-1.07-2.35,0-6.65,7.26-14.64,12.27-24.44,14.21-3.59.71-7.17,1.78-10.83,1.57-13.33-.78-25.26-5-34.48-15.1-5.38-5.86-9.57-12.5-11-20.54-.11-.63-.33-1.24-.57-2.1l-3.34,4.3a121.45,121.45,0,0,1-28.37,26.05A115.3,115.3,0,0,1,184,515.14a126.34,126.34,0,0,1-28.88,9.18,120.88,120.88,0,0,1-16.45,2.44,124.31,124.31,0,0,1-17.79-.14,147.2,147.2,0,0,1-24.92-4.52c-16-4.17-30.26-11.71-43.37-21.71-14.32-10.92-25.37-24.53-34.17-40.11-6.81-12.07-10.53-25.22-13.19-38.7A106.72,106.72,0,0,1,3.3,392.29,156.59,156.59,0,0,1,7.84,367c4.54-18.27,13.44-34.22,25.36-48.61,10.78-13,24-23,38.81-31a47,47,0,0,1,6.29-2.89,16.77,16.77,0,0,1,12,.06,10.89,10.89,0,0,1,5.15,3.75c4.32,6.06,7.95,12.57,11.86,18.89,10.76,17.36,21.38,34.81,32.22,52.12a16.52,16.52,0,0,1,2.8,8.61c0,4.35-1.22,8.64-5,11.57a16.77,16.77,0,0,1-5.24,2.76c-4.57,1.46-8.54,3.89-11.11,8.1-6.76,11.07-.65,24.16,11.19,27.14a18.61,18.61,0,0,0,21.44-10.73c1.73-3.91,1.27-7.79.83-11.75-1.17-10.43-2.31-20.87-3.49-31.3-.7-6.09-1.59-12.16-2.13-18.27-.58-6.33-1.37-12.65-2.06-19-1-9.36-2.1-18.72-3.12-28.09-.51-4.7-1-9.41-1.4-14.13q-1.1-12-2.15-24-.56-6.27-1.1-12.55-1-11.58-2.06-23.17-.75-8.37-1.51-16.73c-1-10.47-2.15-20.92-2.78-31.4-.31-5.28,1.3-10.14,6-13.56,7.93-5.78,16.75-9.73,25.86-13.17,11.12-4.21,22.61-7.13,34.17-9.82,5.91-1.38,11.88-2.6,17.88-3.56,6.53-1.05,13.1-1.93,19.66-2.84a24.88,24.88,0,0,1,10.64,1.14,10.84,10.84,0,0,1,4.68,3.33c3,3.25,3.77,7.37,3.91,11.52.22,6.79.06,13.6.06,20.4v1.73l.33.06c.42-1.18.8-2.38,1.25-3.56a66.49,66.49,0,0,1,23.06-30.55,92.09,92.09,0,0,1,7.68-5.1,16,16,0,0,1,7.39-2.62c3.31-.16,6.52.76,8.51,3.69,3.73,5.49,7.29,11.08,10.89,16.65,4.23,6.52,8.42,13,12.63,19.57a9.39,9.39,0,0,0,.69.84c-.26-1.93-.46-3.47-.66-5-1.61-12.45-3.27-24.9-4.81-37.36-1.29-10.54-2.45-21.1-3.66-31.66-.65-5.62-1.45-11.23-1.88-16.86a9.46,9.46,0,0,1,3.49-8.62c1-.79.5-1.25,0-1.93a30.44,30.44,0,0,1-5.48-21.59,30.76,30.76,0,0,1,9.93-19.82,33.76,33.76,0,0,1,16-7.9c11.38-2.51,26,3.5,32.55,14.48A32.79,32.79,0,0,1,378.05,53c0,.92.17,1.24,1.07,1.56a8.37,8.37,0,0,1,5.51,5.65,21.88,21.88,0,0,1,.87,6.7c0,7.78,0,15.55.05,23.32,0,2.32.12,4.64.13,7,0,.83.14,1.1,1.1.91,15.26-3,30.06-1.2,44.4,4.6a49.42,49.42,0,0,1,13.14,8.19,2.11,2.11,0,0,0,2.57.28c11.53-4.93,23.59-6.22,36-5.25a47.36,47.36,0,0,1,8.28,1.36c.91.24,1.22,0,1.2-1-.23-8.9-.45-17.8-.6-26.7-.18-11-.4-21.91-.36-32.87,0-3.12.95-6.17,3.77-8.22,3.79-2.77,7.83-2.72,11.7-.61a242.36,242.36,0,0,1,36.61,24.61,145.49,145.49,0,0,1,12.77,11.68,13.76,13.76,0,0,1,4.27,8.47,41.72,41.72,0,0,1-.49,7.4c-.71,8.27-1.58,16.53-2.34,24.8q-1.83,19.88-3.57,39.78-1.22,13.69-2.38,27.4a6.65,6.65,0,0,0,6.43,6.9c5.23,0,10.47-.05,15.71.06a13.16,13.16,0,0,1,6.78,1.78c3.37,2.07,4.44,5.44,4.48,9q.25,19.68.09,39.36c0,3.8-1.23,7.35-4.89,9.46a11.85,11.85,0,0,1-5.56,1.52c-7.86.22-15.71.8-23.58-.51a69.26,69.26,0,0,1-35-16.24,68.42,68.42,0,0,1-11.7-13.77c-.4-.6-.7-1-1.52-.78-8.86,2-17.79,1.68-26.72.66a100.52,100.52,0,0,1-24.77-6,61.08,61.08,0,0,1-15.6-9.11Zm-179,9.26V334.37c0,.6,0,1.19,0,1.78,0,.32,0,.64.36.82a1.78,1.78,0,0,0,2.68-1.56c0-11.82-.09-23.65,0-35.47a17.28,17.28,0,0,1,2.59-9.35,16.71,16.71,0,0,1,6.48-5.45A224.76,224.76,0,0,1,290,275a270.23,270.23,0,0,1,28.32-9.59,280.89,280.89,0,0,1,33.94-7.31c3.08-.46,6.23-1.2,9.27-1,4.78.39,9.34,1.81,12.05,6.41.17.29.29.86.79.74V235.13c-17.69,19.85-39.54,28.89-66,24S264.81,237.86,255.43,212.54ZM376.31,318.78c0,5.59,0,10.87,0,16.15,0,2.39-.26,2.07,2.06,2.07H489l-.94-.44A97.14,97.14,0,0,0,470.14,331a142,142,0,0,0-21.95-2.7q-15.42-.65-30.86-1.27c-9-.35-18-.58-27-1-4-.2-7.89-1-11.09-3.77C378.19,321.29,377.64,320,376.31,318.78Zm-47.38-140a23.74,23.74,0,0,0-1.28,2.44,11.09,11.09,0,0,1-5.95,4.44,6.53,6.53,0,0,0-4.62,6.64c0,4,3.08,6.6,7.57,6.49a6.55,6.55,0,0,0,6-6.79C330.21,187.53,329.51,183.13,328.93,178.73Z" transform="translate(4.66)"/><path class="cls-4" d="M197.05,92.38c-.17-4.16,1.51-7.74,3.61-11.15A67.94,67.94,0,0,1,207,72.79c1-1.13,1-1.3.27-2.62a39.94,39.94,0,0,0-2.37-3.51,29.11,29.11,0,0,1-5.58-12.91,14.24,14.24,0,0,1,.55-6.57,13.39,13.39,0,0,1,7.82-8.5,17.14,17.14,0,0,1,9.19-1.34,70.51,70.51,0,0,1,12.38,3.09,3.92,3.92,0,0,0,4.15-1,91,91,0,0,1,11.15-9,17.7,17.7,0,0,1,9.64-3.39c3.78-.05,6.63,1.73,9,4.46,2.62,3,3.62,6.8,4.43,10.62a67.31,67.31,0,0,1,1.2,11.06c0,.51.1,1,.14,1.53a1.19,1.19,0,0,0,.81,1c2.87,1.46,5.81,2.81,8.54,4.54,3.21,2,6.31,4.2,8.55,7.36,3.16,4.43,3.73,9.17,1.38,14.05-1.47,3-4.1,5.14-6.94,6.92-4.21,2.64-8.88,4.08-13.63,5.32a1.66,1.66,0,0,0-1.43,1.66c-.4,2.54-.32,5.11-.63,7.65-.68,5.51-2.15,10.66-6.41,14.64-2.58,2.41-5.5,4.15-9.08,3.94a15.82,15.82,0,0,1-8.06-2.86,52.8,52.8,0,0,1-11.91-11.82c-.44-.59-1-1.11-1.42-1.69s-.78-.33-1.22-.22a72.71,72.71,0,0,1-7.43,1.58,31,31,0,0,1-8.61.29,20.88,20.88,0,0,1-6.82-1.86,14.92,14.92,0,0,1-6.09-6A13.42,13.42,0,0,1,197.05,92.38Z" transform="translate(4.66)"/><path class="cls-4" d="M0,267.66a12.67,12.67,0,0,1,2.41-7.38,27.55,27.55,0,0,1,2-2.75.88.88,0,0,0,0-1.35,17.06,17.06,0,0,1-3.16-6.64c-1.46-7,3.57-11.75,9.47-12,2.57-.1,4.94.8,7.35,1.47a1.31,1.31,0,0,0,1.42-.26c2.22-1.9,4.36-3.93,7-5.19,5.58-2.6,10.47-.1,12.44,5.19a21.19,21.19,0,0,1,1.4,7.93,1.07,1.07,0,0,0,.71,1.12c3,1.53,5.9,3.17,8,5.92a9.06,9.06,0,0,1-1.86,12.78A21.21,21.21,0,0,1,40.11,270a1,1,0,0,0-.9,1.06c-.31,2.86-.47,5.79-2.08,8.32-1.92,3-4.43,5.28-8.27,5.2a10.62,10.62,0,0,1-6.43-2.66,24.36,24.36,0,0,1-4.62-4.73,1.18,1.18,0,0,0-1.4-.58,21.45,21.45,0,0,1-9.06.22C3.38,276-.31,272.1,0,267.66Z" transform="translate(4.66)"/><path class="cls-4" d="M607.77,236.8c2.2-.23,4.44.6,6.71,1.29a2.32,2.32,0,0,0,2.47-.55,39.47,39.47,0,0,1,7.6-5.43c7.3-3.64,14.49,1.23,16.33,7.44a43.06,43.06,0,0,1,1.4,7.6,2.79,2.79,0,0,0,1.81,2.39,28,28,0,0,1,8,6.19c3.15,3.43,3.67,11.88-1.44,16.1a20.24,20.24,0,0,1-7.63,4.42c-2,.52-2.5,1.75-2.56,3.43-.2,5.37-2.74,9.39-7,12.46-2.84,2-8.78,2-11.7,0a36,36,0,0,1-7.37-6.5,2.45,2.45,0,0,0-2.65-.78c-3.91.54-7.85.83-11.6-.84a12.27,12.27,0,0,1-7-14.42,20.57,20.57,0,0,1,4.14-8.11,1.58,1.58,0,0,0,.12-2.22,18.24,18.24,0,0,1-3.25-10.13,12.22,12.22,0,0,1,12.39-12.37Z" transform="translate(4.66)"/><path class="cls-5" d="M562.35,241.67c-23.44,0-44.28-13.85-52.75-34.41-2.72-6.6-3.69-13.62-4.25-24.25,1.37-1.47,2-2.4,4.54-4.86,10.38-4.77,19.23-12.09,19.4-30.12-.19-8.88-4.35-23.35-25.7-31-.62-31-1.22-69.23-1.22-69.23A59.51,59.51,0,0,0,506.91,43c30.84,18.09,44.48,41.47,44.48,41.47L547.3,127.5h0l-4.83,56.41a16.86,16.86,0,0,0,17.22,16.48c1,0,12.51.09,16,0l4.63,36.13-4.54,4.86-13.48.28ZM521.17,141.41a20.3,20.3,0,0,1,1.05,4.61,28.59,28.59,0,0,1,.11,4.74q-.78,10.2-9.32,18.81t-24.39,11.48l-4.87.86c-1.6.29-3.15.51-4.67.68,1.07,7.93,16.37,3.72,20.53,2.92l7.73,20-4.53,4.86a58.73,58.73,0,0,1-9.14,1.08c-3.16.13-6.38.11-9.64-.08q-25.62-1.5-41-13.67c-8-6.33-12.12-11.27-13.31-22.48,1.76-2,3.56-3.47,4.54-4.86,8.56-4.76,19.49-13.08,20.87-31.34.07-7.22-3.06-14.43-4.1-16.65a38.08,38.08,0,0,0,4.54-4.86c7-2.29,16.89-.71,26.34-.16a57.58,57.58,0,0,1,5.73.62q2.89.45,5.88,1.19a52.17,52.17,0,0,1,17.05,7.63,26,26,0,0,1,10.59,14.66Zm-36.85,1q-1.26-4.14-3.78-4.59h-.45l-.44,0a.58.58,0,0,0-.46.13,4.15,4.15,0,0,0-2.3.92,7.12,7.12,0,0,0-1.95,2.59,33.29,33.29,0,0,0-2.62,9q-.72,4.86-1.2,10.41c0,.4,0,1.15-.05,2.25s0,2.21,0,3.32c0,.3,0,.57-.05.82s0,.48,0,.68c.05.91.07,1.74.08,2.49s0,1.33,0,1.73a11.19,11.19,0,0,0,9.18-4.74,25.42,25.42,0,0,0,4.25-10,1.34,1.34,0,0,1,.1-.38,1.85,1.85,0,0,0,.1-.52,9.25,9.25,0,0,1,.14-1.12,7.44,7.44,0,0,0,.14-1.12,3.05,3.05,0,0,0,.21-1c0-.35,0-.72.06-1.12a28,28,0,0,0-.93-9.7Zm-45.6,18.28q-8.54,8.61-24.39,11.49c-1.66.28-3.28.56-4.87.85s-3.15.51-4.67.68c-.28,6.43,12.68,4.33,14.51,4.33a74.69,74.69,0,0,0,8.3-1.41l3.19,19.69-4.55,5.13a33.08,33.08,0,0,1-6.87,1.08c-3.15.13-6.37.11-9.63-.08q-25.64-1.5-41-13.67t-14-36.38q1.24-21.56,14.6-33.48t38.24-10.49a57.58,57.58,0,0,1,5.73.62q2.89.45,5.88,1.19a52.17,52.17,0,0,1,17.05,7.63,26,26,0,0,1,10.59,14.65,20.5,20.5,0,0,1,1.05,4.62,28.71,28.71,0,0,1,.11,4.75q-.8,10.2-9.32,18.8ZM410,130.28c-.84-2.76-2.1-4.28-3.78-4.58l-.22,0h-.23l-.45,0a.57.57,0,0,0-.45.13,4.15,4.15,0,0,0-2.3.92,7.08,7.08,0,0,0-2,2.6,33.29,33.29,0,0,0-2.62,9q-.72,4.84-1.2,10.4c0,.4,0,1.15-.05,2.25s0,2.21,0,3.32c0,.3,0,.58-.05.83s0,.47,0,.67c0,.91.07,1.74.08,2.49s0,1.33,0,1.73A11.16,11.16,0,0,0,406,155.2a25.36,25.36,0,0,0,4.25-10,1.29,1.29,0,0,1,.1-.37,1.92,1.92,0,0,0,.1-.53,7.79,7.79,0,0,1,.14-1.12,7.44,7.44,0,0,0,.14-1.12,2.93,2.93,0,0,0,.21-1c0-.34,0-.72.06-1.12a28,28,0,0,0-.93-9.7Zm-60.51,21c-1.94,37.68,22.64,46.09,29.09,49.92-.48,5.25-1.25,10.4-2.44,13.7-7.7,21.32-28.55,36.23-52.55,36.76a58.14,58.14,0,0,1-26.1-110.58l27.78,31.27-4.54,4.86A16.85,16.85,0,1,0,342.3,193L335,136.86h0l-6.61-56.65s.81-1.75,4.53-4.86c3.4,3.26,16.69,5.69,22.79,4A22.91,22.91,0,0,0,371.15,66c1.84-1.77,2.93-3.13,4.54-4.86,0,0,3.19,24.88,5.86,40.94a46.31,46.31,0,0,1-4.53,4.86c-17.62,6.27-27.73,29.63-27.5,44.36Zm-1.61-77a21.66,21.66,0,1,1,21.64-21.66,21.65,21.65,0,0,1-21.64,21.66Z" transform="translate(4.66)"/><path class="cls-6" d="M566.89,236.81c-23.45,0-44.29-13.85-52.76-34.41-2.72-6.6-3.69-13.62-4.24-24.25,2.8-1.36,23.7-10.74,23.94-35-.19-8.88-4.35-23.35-25.7-31-.62-31-1.22-69.23-1.22-69.23,34.9,19.44,49,36.61,49,36.61l-4.09,43.05h0L547,179.05a16.85,16.85,0,0,0,17.21,16.48c1,0,12.51.09,16.06,0l.09,41-13.48.28ZM525.7,136.55a20.88,20.88,0,0,1,1.06,4.61,28.61,28.61,0,0,1,.1,4.74q-.78,10.2-9.31,18.81t-24.4,11.48l-4.87.86c-1.59.29-3.14.51-4.67.68,1.08,7.93,16.38,3.73,20.54,2.92l3.19,24.82a58.58,58.58,0,0,1-9.14,1.08c-3.16.13-6.37.11-9.63-.08q-25.63-1.5-41-13.67c-8-6.33-12.12-11.27-13.31-22.48,8.62-2.82,23.77-14.47,25.4-36.2.07-7.22-3.06-14.43-4.09-16.65,8.08-4.2,18.56-5.74,30.87-5a57.26,57.26,0,0,1,5.73.62q2.91.45,5.89,1.19a52,52,0,0,1,17,7.63,25.89,25.89,0,0,1,10.59,14.66Zm-36.85.95c-.84-2.76-2.09-4.29-3.77-4.59h-.45l-.45,0a.6.6,0,0,0-.46.13,4.18,4.18,0,0,0-2.3.92,7,7,0,0,0-1.94,2.59,33.29,33.29,0,0,0-2.62,9q-.74,4.86-1.2,10.41c0,.4-.05,1.15-.06,2.25s0,2.21,0,3.32c0,.3,0,.57-.05.82s0,.48,0,.68c.05.91.07,1.74.08,2.49s0,1.33,0,1.73a11.19,11.19,0,0,0,9.19-4.74,25.56,25.56,0,0,0,4.25-10,1,1,0,0,1,.09-.38,1.54,1.54,0,0,0,.11-.52,7.61,7.61,0,0,1,.14-1.12,9,9,0,0,0,.14-1.12,3.28,3.28,0,0,0,.2-1c0-.35,0-.72.07-1.12a28,28,0,0,0-.94-9.7Zm-45.59,18.28q-8.53,8.61-24.39,11.49c-1.66.28-3.29.56-4.88.85s-3.14.51-4.67.68c-.27,6.43,12.69,4.33,14.51,4.33a74.87,74.87,0,0,0,8.31-1.41l-1.37,24.82a32.88,32.88,0,0,1-6.86,1.08c-3.16.13-6.37.11-9.64-.08q-25.62-1.5-41-13.67t-14-36.38q1.24-21.56,14.61-33.48t38.23-10.49a57.58,57.58,0,0,1,5.73.62q2.91.45,5.89,1.19a52.12,52.12,0,0,1,17,7.63,25.9,25.9,0,0,1,10.59,14.65,21.09,21.09,0,0,1,1.06,4.62,29.87,29.87,0,0,1,.1,4.75q-.78,10.2-9.31,18.8Zm-28.7-30.36c-.84-2.76-2.1-4.28-3.77-4.58l-.23,0h-.22l-.45,0a.6.6,0,0,0-.46.13,4.18,4.18,0,0,0-2.3.92,7,7,0,0,0-1.94,2.6,33.29,33.29,0,0,0-2.62,9q-.74,4.85-1.2,10.4c0,.4-.05,1.15-.06,2.25s0,2.21,0,3.32c0,.3,0,.58-.05.83s0,.47,0,.67c0,.91.07,1.74.08,2.49s0,1.33,0,1.73a11.18,11.18,0,0,0,9.19-4.74,25.5,25.5,0,0,0,4.25-10,1,1,0,0,1,.09-.37,1.9,1.9,0,0,0,.11-.53,6.59,6.59,0,0,1,.14-1.12,9,9,0,0,0,.14-1.12,3.21,3.21,0,0,0,.2-1c0-.34.05-.72.07-1.12a28,28,0,0,0-.94-9.7Zm-60.51,21c-1.94,37.68,22.64,46.09,29.1,49.92-.48,5.25-1.25,10.4-2.44,13.7-7.7,21.32-28.55,36.23-52.56,36.76a58.14,58.14,0,0,1-26.09-110.58l23.24,36.13a16.85,16.85,0,1,0,21.54,15.82L339.51,132h0L332.9,75.35s1.42-1.5,7.71-4.33c3.39,3.27,13.51,5.16,19.62,3.44a22.93,22.93,0,0,0,15.46-13.37c1.9-.29,3.56-.53,5.61-.79,0,0,.08,18.48.25,41.73-17.61,6.27-27.73,29.63-27.5,44.36Zm-1.61-77A21.67,21.67,0,1,1,374.08,47.7a21.66,21.66,0,0,1-21.64,21.67Z" transform="translate(4.66)"/><g class="cls-7"><g class="cls-8"><path class="cls-9" d="M553.65,59.91S358.09,152.72,274.21,234.62l17.87,22.83S416.16,144.28,570.52,76.29" transform="translate(4.66)"/><path class="cls-9" d="M561.09,86.71s-145.42,72-251.9,172.57l24.58-1.83s75.45-85.37,227.32-159.32C566.8,88.94,561.09,86.71,561.09,86.71Z" transform="translate(4.66)"/></g></g><g class="cls-10"><path class="cls-9" d="M409.89,120.78l.45,0h.22l.23,0c1.67.3,2.93,1.82,3.77,4.58a28,28,0,0,1,.94,9.7c0,.4-.05.78-.07,1.12a3.21,3.21,0,0,1-.2,1,9,9,0,0,1-.14,1.12,6.59,6.59,0,0,0-.14,1.12,1.9,1.9,0,0,1-.11.53,1,1,0,0,0-.09.37,25.5,25.5,0,0,1-4.25,10c-.16.23-.33.44-.5.65a11.23,11.23,0,0,0,2.12-2.27,25.5,25.5,0,0,0,4.25-10,1,1,0,0,1,.09-.37,1.9,1.9,0,0,0,.11-.53,6.59,6.59,0,0,1,.14-1.12,9,9,0,0,0,.14-1.12,3.21,3.21,0,0,0,.2-1c0-.34.05-.72.07-1.12a28,28,0,0,0-.94-9.7c-.84-2.76-2.1-4.28-3.77-4.58l-.23,0H412l-.45,0a.6.6,0,0,0-.46.13,4.18,4.18,0,0,0-2.3.92,5.8,5.8,0,0,0-1.23,1.35,4,4,0,0,1,1.91-.65A.6.6,0,0,1,409.89,120.78Z" transform="translate(4.66)"/><path class="cls-9" d="M270.64,188.36a58,58,0,0,1,16.24-41.66,58.11,58.11,0,1,0,81.91,82.41,58.08,58.08,0,0,1-98.15-40.75Z" transform="translate(4.66)"/><path class="cls-9" d="M374.33,183.16C364.22,174.87,360,162,360.94,145.87q1.13-19.45,12.12-31.06-12.54,11.85-13.74,32.68-1.4,24.19,14,36.38t41,13.67c3.27.19,6.48.21,9.64.08a32.88,32.88,0,0,0,6.86-1.08S396.72,201.53,374.33,183.16Z" transform="translate(4.66)"/><path class="cls-9" d="M352.44,69.37a21.57,21.57,0,0,0,16.09-7.18A21.64,21.64,0,0,1,338,31.6a21.65,21.65,0,0,0,14.45,37.77Z" transform="translate(4.66)"/><path class="cls-9" d="M348.46,186.52l-7.33-56.14h0l-6.56-56.25a9.78,9.78,0,0,0-1.67,1.22L339.51,132h0l7.33,56.14a16.87,16.87,0,0,1-4.15,11.45A16.83,16.83,0,0,0,348.46,186.52Z" transform="translate(4.66)"/><path class="cls-9" d="M535.45,141.55c-.19-8.88-4.35-23.35-25.7-31-.53-26.22-1-57.63-1.18-66.68L506.91,43s.6,38.25,1.22,69.23c21.35,7.61,25.51,22.08,25.7,31a36.06,36.06,0,0,1-10.05,25.09A36.22,36.22,0,0,0,535.45,141.55Z" transform="translate(4.66)"/><path class="cls-9" d="M446.44,189.78c-7.4-6.56-9.12-9.58-10.44-20.11-.6.25-1.18.47-1.73.65,1.19,11.21,5.32,16.15,13.31,22.48q15.36,12.18,41,13.67c3.26.19,6.47.21,9.63.08a58.58,58.58,0,0,0,9.14-1.08S469.93,210.63,446.44,189.78Z" transform="translate(4.66)"/><path class="cls-9" d="M484.18,132.86l.45,0h.45c1.68.3,2.93,1.83,3.77,4.59a28,28,0,0,1,.94,9.7c0,.4-.05.77-.07,1.12a3.28,3.28,0,0,1-.2,1,9,9,0,0,1-.14,1.12,7.61,7.61,0,0,0-.14,1.12,1.54,1.54,0,0,1-.11.52,1,1,0,0,0-.09.38,25.56,25.56,0,0,1-4.25,10c-.16.23-.33.44-.5.65a11.5,11.5,0,0,0,2.12-2.27,25.56,25.56,0,0,0,4.25-10,1,1,0,0,1,.09-.38,1.54,1.54,0,0,0,.11-.52,6.47,6.47,0,0,1,.14-1.12,9,9,0,0,0,.14-1.12,3.28,3.28,0,0,0,.2-1c0-.35.05-.72.07-1.12a28,28,0,0,0-.94-9.7c-.84-2.76-2.09-4.29-3.77-4.59h-.45l-.45,0a.6.6,0,0,0-.46.13,4.18,4.18,0,0,0-2.3.92,5.8,5.8,0,0,0-1.23,1.35,4,4,0,0,1,1.91-.65A.6.6,0,0,1,484.18,132.86Z" transform="translate(4.66)"/><path class="cls-9" d="M515.75,200.78c-2.65-6.43-3.64-13.26-4.2-23.45-.76.39-1.34.66-1.66.82.55,10.63,1.52,17.65,4.24,24.25,8.47,20.56,29.31,34.39,52.76,34.41l13.48-.28s-25.9,2.72-42.8-9A61.43,61.43,0,0,1,515.75,200.78Z" transform="translate(4.66)"/><path class="cls-9" d="M461.29,132.5c.07-6.59-2.54-13.17-3.78-16-.65.29-1.3.6-1.93.93,1,2.22,4.16,9.43,4.09,16.65A43.17,43.17,0,0,1,448.06,161,43.06,43.06,0,0,0,461.29,132.5Z" transform="translate(4.66)"/></g><path class="cls-11" d="M240.34,351.23h32.24v-53s3-3.36,6-6.2c13.9-6.62,47.8-17.95,82.8-20.89v80.12H535s-26.12-35.08-87.33-37.92c-25-1-58.89-2.32-58.89-2.32V232.4s2.88-3,6-6.2c31.43-.16,150.12,12,221.24,107.16,9.5,12.49,13.93,22.3,2,39.37-14.27,20.41-44,45.89-108.4,45.89H240.34l-.78,2.26c-9.79,52.23-54.8,91.76-109.93,91.76a112.64,112.64,0,0,1-46-215.48L133.33,362l-6,6.2a32.67,32.67,0,0,0,8.44,64.27c18.13,0,33.11-14.63,33.11-32.68L156.71,290.64h0L146.29,173.81s2-2.06,6-6.2c6.57-3.51,19.26-6.94,36.31-11.54a323.59,323.59,0,0,1,51.7-9.35V351.23Zm37.28,81.69a32.9,32.9,0,1,1-32.92,32.89,32.91,32.91,0,0,1,32.92-32.89Zm72.83,0a32.9,32.9,0,1,1-32.94,32.89,32.92,32.92,0,0,1,32.94-32.89Zm138.69,0a32.9,32.9,0,1,1-32.91,32.89,32.91,32.91,0,0,1,32.91-32.89Z" transform="translate(4.66)"/><path class="cls-12" d="M246.38,345h32.24V292s42.74-23.22,88.84-27.09V345h173.6S514.94,310,453.73,307.11c-25-1-58.89-2.32-58.89-2.32V226.2s144.52-9.81,227.28,101c9.5,12.49,13.92,22.3,2,39.37-14.27,20.41-44,45.88-108.4,45.88H246.38l-.78,2.26c-9.79,52.23-54.8,91.76-109.93,91.76A112.63,112.63,0,0,1,89.63,291l43.7,71a32.67,32.67,0,0,0,8.44,64.27c18.13,0,33.11-14.63,33.11-32.68L162.75,284.43h0L152.33,167.61s11.71-9.47,42.35-17.74a322.12,322.12,0,0,1,51.7-9.36V345Zm37.28,81.68a32.9,32.9,0,1,1-32.92,32.9,32.9,32.9,0,0,1,32.92-32.9Zm72.82,0a32.9,32.9,0,1,1-32.93,32.9,32.92,32.92,0,0,1,32.93-32.9Zm138.7,0a32.9,32.9,0,1,1-32.91,32.9,32.91,32.91,0,0,1,32.91-32.9Z" transform="translate(4.66)"/><g class="cls-13"><path class="cls-14" d="M487.14,221.46S174.45,359.57,28.53,497.67c-107.47,101.71,80.41,61.05,80.41,61.05s378.94-257.6,492.11-271C601.05,287.72,560.84,234.86,487.14,221.46Z" transform="translate(4.66)"/><path class="cls-14" d="M610,302.61S411.2,353.24,236.25,497.67l11.09,15s184-138.56,380.51-195.88Z" transform="translate(4.66)"/></g><path class="cls-15" d="M455,306.14c-25-1-58.88-2.32-58.88-2.32V226.13l-1.3.07v78.59s33.93,1.29,58.89,2.32c55.14,2.56,81.8,31.28,86.55,36.95h2.08S516.23,309,455,306.14Z" transform="translate(4.66)"/><path class="cls-15" d="M176.17,392.61,164,283.46h0L153.63,166.67c-.88.6-1.3.94-1.3.94l10.42,116.82h0l12.13,109.15a32.46,32.46,0,0,1-12.51,25.52A32.52,32.52,0,0,0,176.17,392.61Z" transform="translate(4.66)"/><path class="cls-15" d="M279.92,291.32l-1.3.68v52.06h1.3Z" transform="translate(4.66)"/><path class="cls-15" d="M463.56,458.64A32.82,32.82,0,0,1,476.1,432.8a32.91,32.91,0,1,0,39.46,52.65,32.93,32.93,0,0,1-52-26.81Z" transform="translate(4.66)"/><path class="cls-15" d="M252,458.64a32.82,32.82,0,0,1,12.54-25.84A32.9,32.9,0,1,0,304,485.45a32.93,32.93,0,0,1-52-26.81Z" transform="translate(4.66)"/><path class="cls-15" d="M324.85,458.64a32.84,32.84,0,0,1,12.54-25.84,32.91,32.91,0,1,0,39.49,52.64,32.95,32.95,0,0,1-52-26.8Z" transform="translate(4.66)"/><path class="cls-15" d="M415.51,411.44H247.68l-.34,1H515.71c42.91,0,70.44-11.32,88.26-24.92-17.85,13.16-45.08,23.95-87,23.95Z" transform="translate(4.66)"/><path class="cls-15" d="M24.24,392.83a112.41,112.41,0,0,1,44.33-89.54,112.61,112.61,0,0,0,67.1,203.14A110.7,110.7,0,0,0,203,483.88a110.7,110.7,0,0,1-66,21.58A112.68,112.68,0,0,1,24.24,392.83Z" transform="translate(4.66)"/><path class="cls-16" d="M264.12,88.84c-5.9,1.43-3,10.22-3.36,14.54S258,111.51,252,115.71,235,105,234.44,104.25c-3.26-4.17-4.77-5.15-8.45-4.57-2,.32-17.63,5.49-22.33-1.62s4.83-16.75,8.09-21,.7-8.89-.83-10.91S201.48,54,206,48.07c4.82-6.39,8.27-7.79,15.35-5.7,12.19,8.12,16.63,1.8,16.63,1.8s0,.06,4-3.35,9.44-7.53,13-6.12c6.17,2.41,6.27,18.78,6.28,19.2.17,6.23,3,7.8,3,7.8s.05,0,3.67,1.9,18.18,3.79,17.94,10.46C285.5,82.48,270,87.4,264.12,88.84Z" transform="translate(4.66)"/><path class="cls-17" d="M267.59,85.56c-5.89,1.43-5.45,7.61-5.85,11.93s-.26,10.74-6.23,14.94S238.42,101.7,237.92,101c-3.27-4.17-4.78-5.15-8.46-4.57-2,.32-17.63,5.49-22.33-1.62s4.83-16.75,8.09-21,.7-8.89-.82-10.91-9.45-12.14-5-18.08c4.82-6.39,14.19-2.27,21.28-.19,6,1.76,10.7-3.71,10.7-3.71s0,.06,4-3.35,9.44-7.52,13-6.12c6.17,2.41,6.27,18.78,6.28,19.2.17,6.23,3,7.8,3,7.8l3.67,1.9C275,62.21,286,67.05,285.83,73.73s-12.34,10.39-18.24,11.83Z" transform="translate(4.66)"/><path class="cls-18" d="M238.88,100.2c-3.26-4.17-4.78-5.15-8.46-4.57-2,.32-17.62,5.49-22.32-1.62s4.82-16.75,8.09-21,.7-8.89-.83-10.91S205.92,50,210.4,44a8.86,8.86,0,0,1,1-1.15,8.41,8.41,0,0,0-2,1.92c-4.48,5.94,3.44,16.06,5,18.08s4.09,6.65.82,10.91-12.79,13.9-8.09,21,20.32,1.94,22.33,1.62c3.68-.58,5.19.4,8.46,4.57.5.73,11.62,15.66,17.59,11.46a14.43,14.43,0,0,0,1.19-.93l-.22.16C250.51,115.86,239.39,100.93,238.88,100.2Z" transform="translate(4.66)"/><g class="cls-19"><g class="cls-20"><path class="cls-9" d="M270.58,43.55s-45.2,17.73-80.95,52c3,10.93,15.36,14.77,15.36,14.77s44.91-42.54,67.07-59.39Z" transform="translate(4.66)"/></g></g><path class="cls-16" d="M37.15,264.86c-3,.73-1.51,5.22-1.71,7.43S34,276.45,31,278.59s-8.72-5.48-9-5.85c-1.66-2.13-2.43-2.64-4.31-2.34-1,.17-9,2.8-11.39-.83s2.46-8.55,4.13-10.73.36-4.54-.42-5.57S5.2,247.07,7.48,244c2.46-3.26,4.22-4,7.84-2.91,6.21,4.15,8.48.92,8.48.92s0,0,2-1.71,4.82-3.85,6.65-3.13c3.15,1.23,3.2,9.59,3.21,9.81.08,3.18,1.51,4,1.51,4l1.87,1c1.85,1,9.28,1.93,9.15,5.34-.15,4.3-8.05,6.82-11.06,7.55Z" transform="translate(4.66)"/><path class="cls-21" d="M39.12,262.68c-2.95.72-2.72,3.82-2.92,6s-.13,5.39-3.11,7.49-8.54-5.38-8.79-5.74c-1.63-2.1-2.38-2.59-4.22-2.3-1,.16-8.8,2.76-11.15-.81s2.41-8.4,4-10.54.35-4.46-.41-5.47-4.72-6.09-2.48-9.07c2.4-3.21,7.08-1.14,10.62-.09,3,.88,5.35-1.87,5.35-1.87s0,0,2-1.68,4.71-3.77,6.51-3.07c3.08,1.21,3.13,9.42,3.14,9.64.08,3.12,1.48,3.91,1.48,3.91L41,250c1.81.95,7.31,3.38,7.23,6.73s-6.16,5.21-9.1,5.93Z" transform="translate(4.66)"/><path class="cls-18" d="M24.78,270c-1.63-2.09-2.38-2.59-4.22-2.29-1,.16-8.8,2.75-11.15-.82s2.41-8.4,4-10.53.35-4.46-.41-5.48-4.72-6.09-2.48-9.07a4,4,0,0,1,.52-.57,3.93,3.93,0,0,0-1,1c-2.24,3,1.71,8.06,2.48,9.07s2,3.34.41,5.47-6.39,7-4,10.54,10.15,1,11.15.81c1.84-.29,2.59.2,4.22,2.3.25.36,5.81,7.85,8.79,5.74a5.53,5.53,0,0,0,.59-.47l-.11.09C30.59,277.88,25,270.39,24.78,270Z" transform="translate(4.66)"/><g class="cls-22"><path class="cls-23" d="M46.38,238.91S14.48,258.54.46,280.27H4.32S34.81,255,49.89,248Z" transform="translate(4.66)"/></g><path class="cls-4" d="M150.67,35.13a12.65,12.65,0,0,1,2.41-7.38,27.69,27.69,0,0,1,2-2.76.87.87,0,0,0,.06-1.34A17.3,17.3,0,0,1,152,17c-1.46-7,3.57-11.75,9.47-12,2.57-.11,4.94.8,7.35,1.46a1.3,1.3,0,0,0,1.42-.25c2.22-1.91,4.36-3.93,7.05-5.19,5.58-2.6,10.47-.11,12.44,5.18a21.45,21.45,0,0,1,1.41,7.94,1.06,1.06,0,0,0,.7,1.12c3,1.53,5.9,3.16,8,5.91A9.06,9.06,0,0,1,198,34a21.14,21.14,0,0,1-7.23,3.52,1,1,0,0,0-.9,1c-.31,2.87-.47,5.8-2.08,8.33-1.92,3-4.42,5.27-8.27,5.2a10.66,10.66,0,0,1-6.42-2.67,24.36,24.36,0,0,1-4.63-4.72,1.18,1.18,0,0,0-1.4-.59,21.24,21.24,0,0,1-9.05.22C154,43.48,150.35,39.56,150.67,35.13Z" transform="translate(4.66)"/><path class="cls-16" d="M187.8,32.33c-3,.73-1.5,5.22-1.71,7.43s-1.4,4.15-4.45,6.3-8.71-5.49-9-5.86c-1.67-2.13-2.44-2.63-4.32-2.33-1,.16-9,2.8-11.39-.83s2.47-8.56,4.13-10.73.36-4.54-.42-5.58-4.82-6.2-2.53-9.23c2.46-3.27,4.22-4,7.83-2.92,6.22,4.15,8.48.92,8.48.92a23.3,23.3,0,0,0,2-1.71c2-1.74,4.82-3.84,6.66-3.12,3.14,1.23,3.2,9.59,3.2,9.81.09,3.18,1.52,4,1.52,4l1.87,1c1.84,1,9.27,1.94,9.15,5.35-.16,4.3-8.06,6.81-11.07,7.55Z" transform="translate(4.66)"/><path class="cls-24" d="M189.77,30.15c-2.94.72-2.72,3.82-2.92,6s-.13,5.39-3.11,7.5-8.53-5.39-8.79-5.75c-1.63-2.09-2.38-2.59-4.22-2.29-1,.16-8.8,2.75-11.15-.81s2.41-8.41,4-10.54.35-4.46-.41-5.47-4.72-6.09-2.48-9.07c2.41-3.21,7.09-1.14,10.63-.1,3,.88,5.34-1.86,5.34-1.86s0,0,2-1.68S183.4,2.28,185.19,3c3.08,1.21,3.13,9.42,3.14,9.63.08,3.12,1.48,3.91,1.48,3.91l1.83,1c1.81,1,7.32,3.37,7.24,6.72s-6.16,5.22-9.11,5.94Z" transform="translate(4.66)"/><path class="cls-18" d="M175.44,37.49c-1.63-2.09-2.39-2.58-4.23-2.29-1,.16-8.8,2.75-11.15-.81s2.42-8.41,4.05-10.54.34-4.46-.42-5.47-4.71-6.09-2.48-9.07a5,5,0,0,1,.52-.58,4.35,4.35,0,0,0-1,1c-2.24,3,1.72,8.05,2.48,9.07s2,3.33.41,5.47-6.39,7-4,10.54,10.15,1,11.15.81c1.84-.3,2.59.2,4.22,2.29.26.36,5.81,7.85,8.79,5.75a7.16,7.16,0,0,0,.59-.47l-.11.08C181.24,45.35,175.69,37.86,175.44,37.49Z" transform="translate(4.66)"/><g class="cls-25"><path class="cls-23" d="M197,6.38S165.14,26,151.12,47.74H155s30.5-25.24,45.57-32.25Z" transform="translate(4.66)"/></g><path class="cls-16" d="M637.46,269.6c-3.49.86-1.75,6.11-2,8.7s-1.63,4.86-5.16,7.37-10.11-6.42-10.41-6.85c-1.93-2.5-2.83-3.08-5-2.73-1.19.19-10.43,3.28-13.21-1s2.86-10,4.79-12.56.41-5.31-.49-6.52-5.59-7.25-2.94-10.8c2.85-3.83,4.89-4.66,9.09-3.41,7.21,4.85,9.84,1.07,9.84,1.07s0,0,2.34-2,5.59-4.5,7.72-3.66c3.65,1.44,3.71,11.23,3.72,11.48.1,3.72,1.76,4.66,1.76,4.66l2.17,1.14c2.14,1.13,10.76,2.26,10.61,6.25-.18,5-9.34,8-12.83,8.83Z" transform="translate(4.66)"/><path class="cls-26" d="M639.74,267.05c-3.41.85-3.15,4.47-3.39,7s-.15,6.3-3.61,8.77-9.89-6.3-10.19-6.73c-1.89-2.45-2.77-3-4.9-2.68-1.16.19-10.21,3.22-12.93-.95s2.79-9.83,4.69-12.33.4-5.22-.48-6.4-5.48-7.13-2.88-10.61c2.79-3.75,8.22-1.34,12.33-.11,3.46,1,6.2-2.18,6.2-2.18s0,0,2.29-2,5.48-4.41,7.56-3.59c3.57,1.41,3.63,11,3.64,11.27.1,3.65,1.72,4.57,1.72,4.57l2.12,1.12c2.1,1.11,8.49,3.95,8.4,7.87s-7.15,6.1-10.57,6.94Z" transform="translate(4.66)"/><path class="cls-18" d="M623.11,275.65c-1.89-2.45-2.77-3-4.9-2.68-1.16.19-10.21,3.22-12.93-1s2.79-9.84,4.68-12.33.41-5.22-.48-6.4-5.47-7.13-2.87-10.62a5.59,5.59,0,0,1,.6-.67,4.94,4.94,0,0,0-1.16,1.13c-2.6,3.48,2,9.42,2.88,10.61s2.37,3.9.48,6.4-7.42,8.16-4.69,12.33,11.77,1.14,12.93.95c2.13-.34,3,.23,4.9,2.68.3.43,6.74,9.19,10.19,6.73a7.93,7.93,0,0,0,.69-.55l-.13.09C629.85,284.84,623.4,276.07,623.11,275.65Z" transform="translate(4.66)"/><path class="cls-9" d="M45.46,578.4a3.26,3.26,0,0,0,2.46-1h0a3.68,3.68,0,0,0,0-5,3.42,3.42,0,0,0-4.93,0,3.68,3.68,0,0,0,0,5A3.27,3.27,0,0,0,45.46,578.4Z" transform="translate(4.66)"/><path class="cls-9" d="M54.17,578.4a3.27,3.27,0,0,0,2.47-1,3.68,3.68,0,0,0,0-5,3.42,3.42,0,0,0-4.93,0,3.68,3.68,0,0,0,0,5A3.26,3.26,0,0,0,54.17,578.4Z" transform="translate(4.66)"/><path class="cls-9" d="M70.79,607.58a3.27,3.27,0,0,0-2.47,1.06,3.49,3.49,0,0,0-1,2.49,3.53,3.53,0,0,0,1,2.5,3.26,3.26,0,0,0,2.47,1,3.23,3.23,0,0,0,2.46-1,3.68,3.68,0,0,0,0-5A3.27,3.27,0,0,0,70.79,607.58Z" transform="translate(4.66)"/><path class="cls-9" d="M79.51,607.58A3.27,3.27,0,0,0,77,608.64a3.49,3.49,0,0,0-1,2.49,3.53,3.53,0,0,0,1,2.5,3.43,3.43,0,0,0,4.94,0,3.56,3.56,0,0,0,1-2.5,3.52,3.52,0,0,0-1-2.49A3.24,3.24,0,0,0,79.51,607.58Z" transform="translate(4.66)"/><path class="cls-9" d="M123.58,607.58a3.27,3.27,0,0,0-2.47,1.06,3.67,3.67,0,0,0,0,5,3.26,3.26,0,0,0,2.47,1,3.23,3.23,0,0,0,2.46-1,3.68,3.68,0,0,0,0-5A3.27,3.27,0,0,0,123.58,607.58Z" transform="translate(4.66)"/><path class="cls-9" d="M132.3,607.58a3.27,3.27,0,0,0-2.47,1.06,3.49,3.49,0,0,0-1,2.49,3.53,3.53,0,0,0,1,2.5,3.43,3.43,0,0,0,4.94,0,3.52,3.52,0,0,0,1-2.5,3.48,3.48,0,0,0-1-2.49A3.27,3.27,0,0,0,132.3,607.58Z" transform="translate(4.66)"/><path class="cls-9" d="M198.84,578.4a3.27,3.27,0,0,0,2.47-1,3.68,3.68,0,0,0,0-5,3.42,3.42,0,0,0-4.93,0,3.68,3.68,0,0,0,0,5A3.26,3.26,0,0,0,198.84,578.4Z" transform="translate(4.66)"/><path class="cls-9" d="M207.57,578.4a3.3,3.3,0,0,0,2.47-1,3.71,3.71,0,0,0,0-5,3.43,3.43,0,0,0-4.94,0,3.68,3.68,0,0,0,0,5A3.29,3.29,0,0,0,207.57,578.4Z" transform="translate(4.66)"/><path class="cls-9" d="M222.88,563.36c-2.16,0-3.34,1.13-3.34,3.18v33.05h-8.6a5.28,5.28,0,0,1-2.8-.62,3.37,3.37,0,0,1-1.35-2.1,18.08,18.08,0,0,1-.45-4.58V581l-.26-.16a3.7,3.7,0,0,0-1.33-.46,8.61,8.61,0,0,0-1.49-.14c-2.12,0-3.29,1.1-3.29,3.08v8.93c0,2.85-.35,4.82-1,5.86s-1.83,1.44-3.62,1.44H182.48a32.82,32.82,0,0,0,2.44-4,36,36,0,0,0,2.24-5.27,15,15,0,0,0,.86-4.53,3.63,3.63,0,0,0-.86-2.61,7.65,7.65,0,0,0-3-1.53,25.34,25.34,0,0,0-4.46-1.06,28.69,28.69,0,0,0-13.11,1.06,7.86,7.86,0,0,0-3,1.53,3.6,3.6,0,0,0-.88,2.61,16.24,16.24,0,0,0,.83,4.68,32.07,32.07,0,0,0,2.19,5.28,30.72,30.72,0,0,0,2.35,3.83H155.6a4.71,4.71,0,0,1-3-.78,3.89,3.89,0,0,1-1.25-2.34,23,23,0,0,1-.33-4.18V564.15l-.27-.15a5.59,5.59,0,0,0-2.75-.64c-2.16,0-3.35,1.13-3.35,3.18v25.75a23.14,23.14,0,0,1-.32,4.18A3.8,3.8,0,0,1,143,598.8a4.79,4.79,0,0,1-3.06.79h-4.41a5.28,5.28,0,0,1-2.8-.62,3.37,3.37,0,0,1-1.35-2.1,18.08,18.08,0,0,1-.45-4.58V581l-.26-.16a3.83,3.83,0,0,0-1.33-.46,8.71,8.71,0,0,0-1.49-.14c-2.12,0-3.29,1.1-3.29,3.08v8.93c0,2.86-.35,4.82-1,5.86s-1.83,1.44-3.63,1.44h-6.62a12.77,12.77,0,0,0-1.74-5.19,10.93,10.93,0,0,0-4.12-3.95,13.12,13.12,0,0,0-12,0,11.13,11.13,0,0,0-4.14,3.95,12.56,12.56,0,0,0-1.77,5.19H82.78A5.28,5.28,0,0,1,80,599a3.42,3.42,0,0,1-1.36-2.1,18.75,18.75,0,0,1-.44-4.58V581l-.26-.16a3.76,3.76,0,0,0-1.33-.46,8.64,8.64,0,0,0-1.5-.14c-2.12,0-3.28,1.1-3.28,3.08v8.93c0,2.86-.35,4.83-1,5.86s-1.83,1.44-3.63,1.44H59.07V580.85H50.7c-4.81,0-8.61,1.09-11.29,3.23s-4.1,5.34-4.1,9.4a11.26,11.26,0,0,0,3.42,8.68c2.26,2.07,5.46,3.13,9.53,3.13H68a9.18,9.18,0,0,0,4.82-1.22,6.67,6.67,0,0,0,2.32-2.28A6.19,6.19,0,0,0,77.36,604a8.94,8.94,0,0,0,4.74,1.25H90a11.55,11.55,0,0,0,11.47,8.35,11.49,11.49,0,0,0,7.52-2.48,11.69,11.69,0,0,0,3.89-5.87h7.89a9.18,9.18,0,0,0,4.82-1.22,6.67,6.67,0,0,0,2.32-2.28,6.19,6.19,0,0,0,2.24,2.25,9,9,0,0,0,4.74,1.25h5.92a9.72,9.72,0,0,0,4.67-1.13A6.31,6.31,0,0,0,148,601.8a6.18,6.18,0,0,0,2.27,2.24,9,9,0,0,0,4.71,1.25h41.22a9.23,9.23,0,0,0,4.82-1.22,6.72,6.72,0,0,0,2.31-2.28,6.19,6.19,0,0,0,2.24,2.25,9,9,0,0,0,4.75,1.25h15.64V564.15l-.28-.15A5.56,5.56,0,0,0,222.88,563.36Zm-41.4,23.46a27,27,0,0,1-1.33,5.13,25.49,25.49,0,0,1-2.32,4.8h0a13.2,13.2,0,0,1-2.49,3,15.19,15.19,0,0,1-2.54-3.16,27.07,27.07,0,0,1-2.31-4.84,25.22,25.22,0,0,1-1.26-4.92,16.68,16.68,0,0,1,2.71-.7,19.59,19.59,0,0,1,6.83,0A16.68,16.68,0,0,1,181.48,586.82Zm-74.22,14.5a7.86,7.86,0,0,1-1.6,5,5.49,5.49,0,0,1-8.39,0,7.86,7.86,0,0,1-1.6-5,7.7,7.7,0,0,1,1.6-5,5.47,5.47,0,0,1,8.39,0A7.7,7.7,0,0,1,107.26,601.32Zm-63.46-13a9.27,9.27,0,0,1,6.12-1.82H52.7v13H48.83A7.85,7.85,0,0,1,43.48,598a5.65,5.65,0,0,1-1.8-4.55A6.22,6.22,0,0,1,43.8,588.37Z" transform="translate(4.66)"/><path class="cls-9" d="M234.82,563.36c-2.16,0-3.34,1.13-3.34,3.18v38.75h6.37V564.15l-.28-.15A5.56,5.56,0,0,0,234.82,563.36Z" transform="translate(4.66)"/><path class="cls-9" d="M255.12,580.28a12.63,12.63,0,0,0-6.53,1.66,11.51,11.51,0,0,0-4.35,4.54,13.38,13.38,0,0,0-1.55,6.43,12.5,12.5,0,0,0,1.66,6.51,11.46,11.46,0,0,0,4.62,4.32,14.5,14.5,0,0,0,6.82,1.55h5a8.77,8.77,0,0,1-1.59,5.3,5.42,5.42,0,0,1-4.51,1.93,10.31,10.31,0,0,1-2.49-.32,12.87,12.87,0,0,1-2.32-.83l-.56-.26-1.56,5,.38.21a11.18,11.18,0,0,0,3.19,1.13,18.73,18.73,0,0,0,3.77.4,11.26,11.26,0,0,0,8.93-3.72c2.11-2.44,3.19-5.9,3.19-10.27V593.74c0-4.17-1.11-7.48-3.28-9.86A11.41,11.41,0,0,0,255.12,580.28Zm5.69,12.84v6.47h-5.75a5.54,5.54,0,0,1-4.4-1.77,7.38,7.38,0,0,1-1.6-5.06,8,8,0,0,1,1.61-5.26,5.32,5.32,0,0,1,4.34-1.89,5,5,0,0,1,4.22,1.93A8.76,8.76,0,0,1,260.81,593.12Z" transform="translate(4.66)"/><path class="cls-9" d="M303.18,578.4a3.27,3.27,0,0,0,2.47-1,3.68,3.68,0,0,0,0-5,3.43,3.43,0,0,0-4.94,0,3.56,3.56,0,0,0-1,2.5,3.52,3.52,0,0,0,1,2.5A3.26,3.26,0,0,0,303.18,578.4Z" transform="translate(4.66)"/><path class="cls-9" d="M294.46,578.4a3.27,3.27,0,0,0,2.47-1,3.68,3.68,0,0,0,0-5,3.26,3.26,0,0,0-2.47-1.05,3.23,3.23,0,0,0-2.46,1.05,3.69,3.69,0,0,0,0,5A3.3,3.3,0,0,0,294.46,578.4Z" transform="translate(4.66)"/><path class="cls-9" d="M317.35,607.58a3.24,3.24,0,0,0-2.46,1.06,3.49,3.49,0,0,0-1,2.49,3.53,3.53,0,0,0,1,2.5,3.23,3.23,0,0,0,2.46,1,3.26,3.26,0,0,0,2.47-1,3.53,3.53,0,0,0,1-2.5,3.49,3.49,0,0,0-1-2.49A3.26,3.26,0,0,0,317.35,607.58Z" transform="translate(4.66)"/><path class="cls-9" d="M326.71,581l-.25-.16a3.83,3.83,0,0,0-1.33-.46,8.61,8.61,0,0,0-1.49-.14c-2.12,0-3.29,1.1-3.29,3.08v16.23H308.08V580.85h-8.37c-4.81,0-8.61,1.09-11.29,3.23s-4.1,5.34-4.1,9.4a11.26,11.26,0,0,0,3.42,8.68c2.26,2.07,5.46,3.13,9.53,3.13h29.44Zm-25,18.55h-3.87a7.89,7.89,0,0,1-5.36-1.61,5.68,5.68,0,0,1-1.79-4.55,6.19,6.19,0,0,1,2.12-5.06,9.25,9.25,0,0,1,6.12-1.82h2.78Z" transform="translate(4.66)"/><path class="cls-9" d="M326.07,607.58a3.24,3.24,0,0,0-2.46,1.06,3.49,3.49,0,0,0-1,2.49,3.53,3.53,0,0,0,1,2.5,3.42,3.42,0,0,0,4.93,0,3.53,3.53,0,0,0,1-2.5,3.49,3.49,0,0,0-1-2.49A3.24,3.24,0,0,0,326.07,607.58Z" transform="translate(4.66)"/><path class="cls-9" d="M374.21,581l-.25-.16a3.9,3.9,0,0,0-1.33-.46,8.91,8.91,0,0,0-1.5-.14c-2.12,0-3.29,1.1-3.29,3.08v16.23h-12v-5.85c0-4.17-1.11-7.48-3.28-9.86a11.41,11.41,0,0,0-8.78-3.6,12.6,12.6,0,0,0-6.53,1.66,11.51,11.51,0,0,0-4.35,4.54,13.38,13.38,0,0,0-1.55,6.43,12.5,12.5,0,0,0,1.66,6.51,11.46,11.46,0,0,0,4.62,4.32,14.5,14.5,0,0,0,6.82,1.54h5a8.78,8.78,0,0,1-1.59,5.31,5.41,5.41,0,0,1-4.51,1.92,10.17,10.17,0,0,1-2.49-.31,12.87,12.87,0,0,1-2.32-.83l-.56-.26-1.56,5,.38.21a11.18,11.18,0,0,0,3.19,1.13,18.73,18.73,0,0,0,3.77.4,11.35,11.35,0,0,0,8.7-3.47c2-2.19,3.18-5.25,3.39-9.1h18.4Zm-24.74,12.08v6.47h-5.75a5.57,5.57,0,0,1-4.4-1.77,7.38,7.38,0,0,1-1.6-5.06,8,8,0,0,1,1.61-5.26,5.32,5.32,0,0,1,4.34-1.89,5,5,0,0,1,4.23,1.93A8.82,8.82,0,0,1,349.47,593.12Z" transform="translate(4.66)"/><path class="cls-9" d="M365.82,608.52a3.44,3.44,0,0,0-1,2.51,3.55,3.55,0,0,0,1,2.53,3.3,3.3,0,0,0,4.85,0,3.47,3.47,0,0,0,1-2.5,3.57,3.57,0,0,0-1-2.52A3.32,3.32,0,0,0,365.82,608.52Z" transform="translate(4.66)"/><path class="cls-9" d="M410.58,578.4a3.3,3.3,0,0,0,2.47-1h0a3.68,3.68,0,0,0,0-5,3.43,3.43,0,0,0-4.94,0,3.71,3.71,0,0,0,0,5A3.3,3.3,0,0,0,410.58,578.4Z" transform="translate(4.66)"/><path class="cls-9" d="M401.86,578.4a3.3,3.3,0,0,0,2.47-1h0a3.68,3.68,0,0,0,0-5,3.26,3.26,0,0,0-2.47-1.05,3.23,3.23,0,0,0-2.46,1.05,3.68,3.68,0,0,0,0,5A3.27,3.27,0,0,0,401.86,578.4Z" transform="translate(4.66)"/><path class="cls-9" d="M425.9,563.36c-2.16,0-3.34,1.13-3.34,3.18v33.05H414a5.32,5.32,0,0,1-2.81-.62,3.46,3.46,0,0,1-1.35-2.1,18.75,18.75,0,0,1-.44-4.58V581l-.26-.16a3.7,3.7,0,0,0-1.33-.46,8.73,8.73,0,0,0-1.5-.14c-2.12,0-3.28,1.1-3.28,3.08v8.93c0,2.86-.35,4.83-1,5.85s-1.83,1.45-3.63,1.45h-9V581.06l-.23-.16a3.17,3.17,0,0,0-1.33-.48,9.63,9.63,0,0,0-1.57-.14c-2.09,0-3.24,1.09-3.24,3.08v24.09c0,3.14-1.31,4.6-4.13,4.6a9.79,9.79,0,0,1-1.8-.18,7.3,7.3,0,0,1-1.63-.45l-.53-.23L373.26,616l.46.19a13.74,13.74,0,0,0,2.86.87,16.74,16.74,0,0,0,3.22.32,9.33,9.33,0,0,0,7-2.66c1.7-1.75,2.56-4.27,2.56-7.48v-2h9.79a9.18,9.18,0,0,0,4.82-1.22,6.64,6.64,0,0,0,2.31-2.28,6.29,6.29,0,0,0,2.25,2.25,9,9,0,0,0,4.74,1.25h15.65V564.15l-.28-.15A5.59,5.59,0,0,0,425.9,563.36Z" transform="translate(4.66)"/><path class="cls-9" d="M437.83,563.36c-2.15,0-3.34,1.13-3.34,3.18v38.75h6.37V564.15l-.27-.15A5.6,5.6,0,0,0,437.83,563.36Z" transform="translate(4.66)"/><path class="cls-9" d="M486.25,563.5a7.73,7.73,0,0,0-1.49-.14c-2.12,0-3.29,1.09-3.29,3.08v34.1c0,4-.67,6.93-2,8.74s-3.33,2.67-6.18,2.67c-5.68,0-8.45-3.51-8.45-10.73a38.38,38.38,0,0,1,.87-7.83l.09-.4-.36-.19c-2.9-1.56-4.82-.92-6,1.61a16,16,0,0,0-1,6.39c0,5.23,1.22,9.32,3.63,12.16s6.1,4.32,10.92,4.32,8.34-1.4,10.93-4.17,3.88-6.79,3.88-12v-37l-.25-.16A3.67,3.67,0,0,0,486.25,563.5Z" transform="translate(4.66)"/><path class="cls-9" d="M604.82,564a5.56,5.56,0,0,0-2.75-.64c-2.15,0-3.34,1.13-3.34,3.18v33.05h-8.6a4.76,4.76,0,0,1-3-.78,3.93,3.93,0,0,1-1.24-2.34,23,23,0,0,1-.33-4.18V564.15l-.27-.15a5.6,5.6,0,0,0-2.76-.64c-2.15,0-3.34,1.13-3.34,3.18v25.75a23.14,23.14,0,0,1-.32,4.18,3.8,3.8,0,0,1-1.27,2.33,4.79,4.79,0,0,1-3.06.79h-5.38a90,90,0,0,0-6.59-11.07,25.25,25.25,0,0,0-6.06-6.26,11.24,11.24,0,0,0-6.26-2,6.89,6.89,0,0,0-3.63.83,2.88,2.88,0,0,0-1.48,2.56,4.1,4.1,0,0,0,1.18,2.8l.27.29.35-.16a4.94,4.94,0,0,1,1.19-.35,7,7,0,0,1,5.27,1.09,16.84,16.84,0,0,1,4,4.3,86.5,86.5,0,0,1,4.83,8H540.61a4.76,4.76,0,0,1-3-.78,3.91,3.91,0,0,1-1.24-2.34,22.17,22.17,0,0,1-.33-4.18V564.15l-.28-.15a5.54,5.54,0,0,0-2.75-.64c-2.15,0-3.34,1.13-3.34,3.18v25.75a22.17,22.17,0,0,1-.33,4.18,3.74,3.74,0,0,1-1.26,2.33,4.79,4.79,0,0,1-3.06.79h-7.82v-5.85c0-4.17-1.1-7.48-3.28-9.86a11.41,11.41,0,0,0-8.78-3.6,12.6,12.6,0,0,0-6.53,1.66,11.58,11.58,0,0,0-4.35,4.54,13.38,13.38,0,0,0-1.55,6.43,12.5,12.5,0,0,0,1.66,6.51,11.49,11.49,0,0,0,4.63,4.32,14.43,14.43,0,0,0,6.81,1.54h5a8.71,8.71,0,0,1-1.59,5.31,5.41,5.41,0,0,1-4.51,1.92,10.17,10.17,0,0,1-2.49-.31,13,13,0,0,1-2.31-.83l-.56-.26-1.56,5,.38.21a11,11,0,0,0,3.19,1.13,18.58,18.58,0,0,0,3.77.4,11.36,11.36,0,0,0,8.7-3.47c2-2.19,3.17-5.25,3.39-9.1h8.67a9.72,9.72,0,0,0,4.67-1.13A6.31,6.31,0,0,0,533,601.8a6.22,6.22,0,0,0,2.26,2.24,9,9,0,0,0,4.72,1.25h35.4a9.72,9.72,0,0,0,4.67-1.13,6.24,6.24,0,0,0,2.47-2.36,6.18,6.18,0,0,0,2.27,2.24,9,9,0,0,0,4.71,1.25H605.1V564.15Zm-94,29.12v6.47h-5.74a5.54,5.54,0,0,1-4.4-1.77,7.34,7.34,0,0,1-1.61-5.06,7.9,7.9,0,0,1,1.62-5.26,5.3,5.3,0,0,1,4.33-1.89,5,5,0,0,1,4.23,1.93A8.82,8.82,0,0,1,510.8,593.12Z" transform="translate(4.66)"/><path class="cls-27" d="M54.93,98.54c-.46-3.93-.81-3.86-.81-3.86h0L40.27,88.35a1.55,1.55,0,0,0-.28,0c-.7.17-2.89,1-8,4.89-3.24,2.48-6.81,4.91-6.81,4.91l-.37.47c-.18,5.25.79,12.19,1.79,17.68A12.93,12.93,0,0,1,32,114.17a10.49,10.49,0,0,1,6.63,1.3,12.6,12.6,0,0,1,2.17,1.46,7.26,7.26,0,0,1,2.66,7.79,157,157,0,0,0,13-10S55.72,105.3,54.93,98.54Z" transform="translate(4.66)"/><path class="cls-27" d="M97.1,193.9c-3-5.53-3.52-5.21-3.52-5.21h0l-24.23-1A3.15,3.15,0,0,0,69,188c-.94.66-3.69,3.16-8.87,12C56.8,205.62,53,211.36,53,211.36s-.09.34-.26.92c2.92,7.84,8.52,17.49,13.32,25a20.89,20.89,0,0,1,6.71-6.49,16.93,16.93,0,0,1,10.57-2.09,21.05,21.05,0,0,1,4.08.85c6.16,1.94,8.12,6.31,8.63,9.88,5.19-8.18,10.55-17,13.12-22.55C109.17,216.86,102.34,203.38,97.1,193.9Z" transform="translate(4.66)"/><path class="cls-28" d="M122.77,94.8a22.8,22.8,0,0,0-17.61-4.47c-27.08,40.2-34.69,85.28-36,98.19a7.11,7.11,0,0,1,1.48-.13l17.67,2.53s2.89-2.79,5.26-1.57c11.06-44.75,24.15-80.49,29.76-94.09C123.14,95.11,123,95,122.77,94.8Z" transform="translate(4.66)"/><path class="cls-29" d="M122.77,94.8a22.8,22.8,0,0,0-17.61-4.47c-27.08,40.2-34.69,85.28-36,98.19a7.11,7.11,0,0,1,1.48-.13l17.67,2.53s2.89-2.79,5.26-1.57c11.06-44.75,24.15-80.49,29.76-94.09C123.14,95.11,123,95,122.77,94.8Z" transform="translate(4.66)"/><path class="cls-28" d="M95.37,200.15a73.48,73.48,0,0,0,12.87,16l.93.72a18.87,18.87,0,0,0,1.54-4.1c1.14-6.57-3.59-49.58,19.75-96,.64-6.51,0-15.68-7.14-21.44-5.61,13.6-18.8,49.15-29.86,93.9C94.85,189.94,94,197.7,95.37,200.15Z" transform="translate(4.66)"/><path class="cls-28" d="M94.37,94c-15.31,21.27-33.26,53.91-43.83,102.18a32.83,32.83,0,0,0,.55,10.55,35.58,35.58,0,0,0,1.65,5.59c.17-.58.26-.92.26-.92S63.82,193.68,66.12,191c1.34-1.59,1.82-2.16,3-2.37,1.31-12.91,8.91-58,36-98.19A36.87,36.87,0,0,0,94.37,94Z" transform="translate(4.66)"/><path class="cls-30" d="M129.39,82.42c7.3,5.14,10.41,11.06,11.55,16.34,1.41-2.11,2.84-4.24,4.41-6.33,3.63-4.87,12.29-13.33,4.81-20.84-9-9.06-19.49-19.19-33.19-4.56-2.53,2.71-5.83,6.19-9.62,10.56C113.37,76.24,121.11,76.59,129.39,82.42Z" transform="translate(4.66)"/><path class="cls-28" d="M83.34,228.68c-8.72-1-14.14,3.92-17.29,8.58l.82,1.27A190.48,190.48,0,0,0,80.2,256.29c2.11,2.55,4.1,1.13,5.94-1.63,2.39-3.6,6.1-9.23,9.91-15.25C95.45,235.14,92.78,229.73,83.34,228.68Z" transform="translate(4.66)"/><path class="cls-31" d="M120.37,97.5c7.66,5.72,10.75,12.6,10.08,19.28a172.8,172.8,0,0,1,10.49-18c-1.14-5.28-4.25-11.2-11.55-16.34-8.28-5.83-16-6.18-22-4.83-3.89,4.48-8.31,9.9-13,16.37C103.07,89.66,110.78,90.35,120.37,97.5Z" transform="translate(4.66)"/><path class="cls-32" d="M69,188c-.94.66-3.69,3.16-8.87,12C56.8,205.62,53,211.36,53,211.36s-.09.34-.26.92c2.92,7.84,8.52,17.49,13.32,25a20.89,20.89,0,0,1,6.71-6.49C71.07,226.37,66.09,210.93,69,188Z" transform="translate(4.66)"/><path class="cls-32" d="M97.1,193.9c-3-5.53-3.52-5.21-3.52-5.21h0c-1.94,8.38-5.43,25.27-6.13,40.84,6.16,1.94,8.12,6.31,8.63,9.88,5.19-8.18,10.55-17,13.12-22.55C109.17,216.86,102.34,203.38,97.1,193.9Z" transform="translate(4.66)"/><path class="cls-27" d="M93.55,188.69l-24.23-1A3.15,3.15,0,0,0,69,188c-2.86,23,2.12,38.41,3.82,42.81a16.93,16.93,0,0,1,10.57-2.09,21.05,21.05,0,0,1,4.08.85C88.12,214,91.61,197.07,93.55,188.69Z" transform="translate(4.66)"/><path class="cls-28" d="M93.4,47.1a14.28,14.28,0,0,0-9.16-6.78C59,57.22,43.82,81.59,40,88.77a4.91,4.91,0,0,1,.89.28l9.66,5.67s2.34-.93,3.43.34A459.46,459.46,0,0,1,93.62,47.5Z" transform="translate(4.66)"/><path class="cls-29" d="M93.4,47.1a14.28,14.28,0,0,0-9.16-6.78C59,57.22,43.82,81.59,40,88.77a4.91,4.91,0,0,1,.89.28l9.66,5.67s2.34-.93,3.43.34A459.46,459.46,0,0,1,93.62,47.5Z" transform="translate(4.66)"/><path class="cls-28" d="M52.44,101.76a45.82,45.82,0,0,0,3.67,12.34l.37.64a12.33,12.33,0,0,0,1.87-2c2.22-3.55,9.71-29.65,34.29-51,1.92-3.63,3.73-9.11,1-14.15A451.28,451.28,0,0,0,53.93,95C54.56,95.71,52.19,100,52.44,101.76Z" transform="translate(4.66)"/><path class="cls-28" d="M77.12,39.86c-14,8.7-32.14,23.39-49.76,48.9A20.68,20.68,0,0,0,25.17,95a22.69,22.69,0,0,0-.37,3.64l.37-.47s10.48-7.69,12.47-8.73c1.15-.6,1.57-.81,2.32-.65,3.84-7.18,19-31.55,44.26-48.45A22.84,22.84,0,0,0,77.12,39.86Z" transform="translate(4.66)"/><path class="cls-30" d="M100.2,41.49c3,4.72,3.41,8.9,2.81,12.24,1.32-.9,2.64-1.83,4.07-2.63,3.7-2.07,10.36-4.56,7.75-11-3-7.43-6.76-15.78-18.19-10.54-2.11,1-4.86,2.21-8.1,3.84A16.87,16.87,0,0,1,100.2,41.49Z" transform="translate(4.66)"/><path class="cls-28" d="M38.66,115.47c-4.83-2.64-9.14-1.09-12.07.87.05.31.11.62.17.93a120.33,120.33,0,0,0,3.51,13.48c.62,2,2.11,1.63,3.84.47,2.24-1.52,5.74-3.91,9.38-6.5C44.16,122.1,43.9,118.32,38.66,115.47Z" transform="translate(4.66)"/><path class="cls-31" d="M91.36,48.1c3.1,5.14,3.25,9.87,1.28,13.6a105.64,105.64,0,0,1,10.37-8c.6-3.34.2-7.52-2.81-12.24a16.87,16.87,0,0,0-11.66-8.05c-3.32,1.68-7.18,3.77-11.43,6.42C83.19,39.44,87.5,41.66,91.36,48.1Z" transform="translate(4.66)"/><path class="cls-32" d="M40,88.39c-.7.17-2.89,1-8,4.89-3.24,2.48-6.81,4.91-6.81,4.91l-.37.47c-.18,5.25.79,12.19,1.79,17.68A12.93,12.93,0,0,1,32,114.17C32.09,111.21,32.87,101.05,40,88.39Z" transform="translate(4.66)"/><path class="cls-32" d="M54.93,98.54c-.46-3.93-.81-3.86-.81-3.86h0a153,153,0,0,0-13.28,22.26,7.26,7.26,0,0,1,2.66,7.79,157,157,0,0,0,13-10S55.72,105.3,54.93,98.54Z" transform="translate(4.66)"/><path class="cls-27" d="M54.11,94.67,40.27,88.35a1.55,1.55,0,0,0-.28,0c-7.12,12.66-7.9,22.82-8,25.78a10.49,10.49,0,0,1,6.63,1.3,13,13,0,0,1,2.17,1.46A153,153,0,0,1,54.11,94.67Z" transform="translate(4.66)"/></g></g></g></svg>