<svg xmlns="http://www.w3.org/2000/svg" xmlns:xlink="http://www.w3.org/1999/xlink" width="172.496" height="200.672" viewBox="0 0 172.496 200.672">
  <defs>
    <clipPath id="clip-path">
      <rect id="Rectangle_2" data-name="Rectangle 2" width="172.496" height="200.672" fill="none"/>
    </clipPath>
  </defs>
  <g id="Group_63" data-name="Group 63" clip-path="url(#clip-path)">
    <path id="Path_1765" data-name="Path 1765" d="M492.505,8.722c-.941-.368-2.383.708-3.412,1.6s-1.036.876-1.036.876a2.963,2.963,0,0,1-2.8.972c-1.853-.545-4.3-1.623-5.564.049-1.171,1.554.9,4.2,1.3,4.729a2.325,2.325,0,0,1,.217,2.853c-.853,1.113-3.347,3.637-2.116,5.5s5.314.507,5.839.423c.963-.154,1.358.1,2.212,1.2.133.19,3.041,4.1,4.6,3s1.523-2.779,1.629-3.909-.011-2.745,1.531-3.121,4.726-1.348,4.768-3.094-2.842-3.012-3.789-3.506-.959-.5-.959-.5-.732-.411-.776-2.04c0-.111-.031-4.392-1.643-5.022" transform="translate(-424.468 -0.698)" fill="#40bbf0" fill-rule="evenodd"/>
    <path id="Path_1766" data-name="Path 1766" d="M463.877-4.817c-.5-.194-1.26.374-1.8.846s-.548.463-.548.463a1.567,1.567,0,0,1-1.48.514c-.979-.288-2.275-.858-2.941.026-.619.821.475,2.221.686,2.5a1.23,1.23,0,0,1,.114,1.508c-.451.589-1.769,1.923-1.119,2.9s2.809.268,3.087.224c.509-.081.718.055,1.169.632.07.1,1.607,2.165,2.432,1.584a2.451,2.451,0,0,0,.861-2.066c.056-.6-.006-1.451.809-1.65s2.5-.712,2.521-1.636-1.5-1.592-2-1.853-.507-.263-.507-.263-.387-.217-.41-1.078c0-.059-.016-2.322-.868-2.655" transform="translate(-415.359 4.856)" fill="#40bbf0" fill-rule="evenodd"/>
    <path id="Path_1767" data-name="Path 1767" d="M394.227,102.013c-.526-.205-1.333.4-1.908.895s-.58.49-.58.49a1.656,1.656,0,0,1-1.565.543c-1.036-.3-2.407-.907-3.112.028-.655.869.5,2.349.726,2.645a1.3,1.3,0,0,1,.121,1.6c-.477.622-1.871,2.033-1.184,3.073s2.972.283,3.266.237c.539-.086.759.058,1.237.668.074.106,1.7,2.291,2.573,1.677a2.593,2.593,0,0,0,.911-2.186c.059-.632-.007-1.535.856-1.745s2.643-.754,2.667-1.731-1.589-1.684-2.119-1.961l-.536-.279s-.41-.229-.434-1.14c0-.062-.017-2.456-.918-2.809" transform="translate(-386.538 -39.082)" fill="#40bbf0" fill-rule="evenodd"/>
    <path id="Path_1768" data-name="Path 1768" d="M453.792,111.851h8.986V97.068s11.91-6.474,24.759-7.554v22.337h48.385s-7.281-9.779-24.341-10.571c-6.956-.287-16.412-.647-16.412-.647V78.723s40.279-2.736,63.345,28.145c2.649,3.482,3.88,6.218.555,10.977-3.977,5.69-12.273,12.792-30.212,12.792H453.792l-.217.63A31.308,31.308,0,1,1,410.1,96.777l12.181,19.8a9.127,9.127,0,1,0,11.573,9.149,4.53,4.53,0,0,0-.031-.681l-3.343-30.089h0l-2.9-32.569s3.264-2.641,11.8-4.946a85.794,85.794,0,0,1,10.553-2.137c1.217-.172,2.5-.33,3.858-.471v57.016Zm10.389,22.773a9.171,9.171,0,1,1-9.174,9.171,9.173,9.173,0,0,1,9.174-9.171m20.3,0a9.171,9.171,0,1,1-9.18,9.171,9.175,9.175,0,0,1,9.18-9.171m38.657,0a9.171,9.171,0,1,1-9.174,9.171,9.173,9.173,0,0,1,9.174-9.171" transform="translate(-388.586 -19.695)" fill="#5d175a" fill-rule="evenodd"/>
    <path id="Path_1769" data-name="Path 1769" d="M419.232,305.023a2.631,2.631,0,0,0,0-3.615,2.389,2.389,0,0,0-1.807-.758,2.326,2.326,0,0,0-1.788.758,2.685,2.685,0,0,0,0,3.615,2.324,2.324,0,0,0,1.788.758,2.386,2.386,0,0,0,1.807-.758" transform="translate(-398.219 -120.8)" fill="#5d175a"/>
    <path id="Path_1770" data-name="Path 1770" d="M431.445,305.023a2.63,2.63,0,0,0,0-3.615,2.388,2.388,0,0,0-1.807-.758,2.324,2.324,0,0,0-1.787.758,2.685,2.685,0,0,0,0,3.615,2.322,2.322,0,0,0,1.787.758,2.386,2.386,0,0,0,1.807-.758" transform="translate(-403.242 -120.8)" fill="#5d175a"/>
    <path id="Path_1771" data-name="Path 1771" d="M462.337,267.9a5.52,5.52,0,0,0,2.662.563h8.667V250.466q-1.05-.35-1.555-.466a4.66,4.66,0,0,0-1.05-.117q-2.76,0-2.759,2.488v11.5h-2.565q-2.721,0-2.72-2.915V250.466q-1.05-.35-1.555-.466a4.661,4.661,0,0,0-1.05-.117q-2.76,0-2.759,2.488v8.473a3.275,3.275,0,0,1-.7,2.234,2.45,2.45,0,0,1-1.943.8,2.508,2.508,0,0,1-1.963-.8,3.21,3.21,0,0,1-.719-2.234V250.466q-1.048-.35-1.555-.466a4.65,4.65,0,0,0-1.048-.117q-2.76,0-2.76,2.488v7.267a5.857,5.857,0,0,1-.679,3.343,2.986,2.986,0,0,1-2.507.894h-6.53V257.19a6.582,6.582,0,0,0-2.351-5.363,9.545,9.545,0,0,0-6.277-1.944,21.848,21.848,0,0,0-3.051.234,27.4,27.4,0,0,0-3.071.6,10.592,10.592,0,0,0-2.157.758V272.7h-4.82a5.969,5.969,0,0,1-4.838-1.963,8.1,8.1,0,0,1-1.651-5.382,18.914,18.914,0,0,1,.194-2.6q.193-1.4.466-2.915a4.134,4.134,0,0,0-2.487-.856,2.959,2.959,0,0,0-2.8,1.691,10.763,10.763,0,0,0-.894,4.916q0,5.984,3.09,8.9t8.724,2.915h10.26V254.742a5.321,5.321,0,0,1,1.3-.33,10.551,10.551,0,0,1,1.613-.136q3.5,0,3.5,3.769v10.416h12.826a4.791,4.791,0,0,0,2.293-.583,6.518,6.518,0,0,0,2.06-1.866,7.815,7.815,0,0,0,2.662,2.2,7.436,7.436,0,0,0,3.168.641,6.66,6.66,0,0,0,3.148-.68,6.217,6.217,0,0,0,2.254-2.158,5.731,5.731,0,0,0,1.924,1.886" transform="translate(-393.521 -99.919)" fill="#5d175a"/>
    <path id="Path_1772" data-name="Path 1772" d="M529.144,249.883a3.044,3.044,0,0,0-2.021.622,2.3,2.3,0,0,0-.738,1.865v18.073a3.064,3.064,0,0,1-.817,2.351,3.244,3.244,0,0,1-2.293.758,6.6,6.6,0,0,1-1.438-.155,7.044,7.044,0,0,1-1.244-.389l-1.283,3.615a10.308,10.308,0,0,0,2.235.718,12.464,12.464,0,0,0,2.662.293,7.38,7.38,0,0,0,5.518-2.1,7.859,7.859,0,0,0,2.06-5.752V250.466a7.5,7.5,0,0,0-1.282-.427,5.928,5.928,0,0,0-1.361-.155" transform="translate(-441.148 -99.919)" fill="#5d175a"/>
    <path id="Path_1773" data-name="Path 1773" d="M584.68,266.484a9.094,9.094,0,0,0,5.772-1.807,8.868,8.868,0,0,0,3.129-4.606h14.535v-30a5.487,5.487,0,0,0-1.224-.427,6.216,6.216,0,0,0-1.38-.155q-2.8,0-2.8,2.6v23.4h-8.939a8.921,8.921,0,0,0-1.593-3.692,8.562,8.562,0,0,0-3.109-2.584,10.561,10.561,0,0,0-8.764,0,8.684,8.684,0,0,0-3.148,2.584,9.182,9.182,0,0,0-1.652,3.692h-7.695v-.7a14.726,14.726,0,0,0-1.574-6.957,11.476,11.476,0,0,0-4.431-4.664,13.037,13.037,0,0,0-6.7-1.671,10.706,10.706,0,0,0-4.489.778,2.382,2.382,0,0,0-1.651,2.137,3.233,3.233,0,0,0,.33,1.342,4.321,4.321,0,0,0,.874,1.263,8.884,8.884,0,0,1,2-.486,16.069,16.069,0,0,1,2.273-.175,7.679,7.679,0,0,1,5.849,2.274,8.472,8.472,0,0,1,2.157,6.082v.778H546.709v4.585h29.033a8.779,8.779,0,0,0,3.167,4.606,9.19,9.19,0,0,0,5.771,1.807m-3.187-12.729a3.729,3.729,0,0,1,3.187-1.457,3.783,3.783,0,0,1,3.207,1.457,6.39,6.39,0,0,1,0,7.19,3.783,3.783,0,0,1-3.207,1.458,3.729,3.729,0,0,1-3.187-1.458,6.481,6.481,0,0,1,0-7.19" transform="translate(-452.417 -91.529)" fill="#5d175a"/>
    <path id="Path_1774" data-name="Path 1774" d="M663.946,230.067a5.489,5.489,0,0,0-1.225-.427,6.2,6.2,0,0,0-1.379-.155q-2.8,0-2.8,2.6V260.07h5.4Z" transform="translate(-498.415 -91.529)" fill="#5d175a"/>
    <path id="Path_1775" data-name="Path 1775" d="M407.713,316.276a.859.859,0,0,0,0-1.166.789.789,0,0,0-1.137,0,.859.859,0,0,0,0,1.166.79.79,0,0,0,1.137,0" transform="translate(-394.686 -126.647)" fill="#5d175a"/>
    <path id="Path_1776" data-name="Path 1776" d="M411.769,316.276a.861.861,0,0,0,0-1.166.789.789,0,0,0-1.137,0,.859.859,0,0,0,0,1.166.79.79,0,0,0,1.137,0" transform="translate(-396.354 -126.647)" fill="#5d175a"/>
    <path id="Path_1777" data-name="Path 1777" d="M418.927,331.745a.748.748,0,0,0-.569.242.859.859,0,0,0,0,1.166.79.79,0,0,0,1.137,0,.859.859,0,0,0,0-1.166.747.747,0,0,0-.568-.242" transform="translate(-399.532 -133.589)" fill="#5d175a"/>
    <path id="Path_1778" data-name="Path 1778" d="M422.983,331.745a.748.748,0,0,0-.568.242.859.859,0,0,0,0,1.166.79.79,0,0,0,1.137,0,.859.859,0,0,0,0-1.166.748.748,0,0,0-.569-.242" transform="translate(-401.201 -133.589)" fill="#5d175a"/>
    <path id="Path_1779" data-name="Path 1779" d="M443.481,331.745a.748.748,0,0,0-.569.242.86.86,0,0,0,0,1.166.79.79,0,0,0,1.137,0,.859.859,0,0,0,0-1.166.747.747,0,0,0-.568-.242" transform="translate(-409.632 -133.589)" fill="#5d175a"/>
    <path id="Path_1780" data-name="Path 1780" d="M447.537,331.745a.748.748,0,0,0-.568.242.86.86,0,0,0,0,1.166.79.79,0,0,0,1.137,0,.86.86,0,0,0,0-1.166.748.748,0,0,0-.569-.242" transform="translate(-411.3 -133.589)" fill="#5d175a"/>
    <path id="Path_1781" data-name="Path 1781" d="M479.059,316.276a.861.861,0,0,0,0-1.166.789.789,0,0,0-1.137,0,.86.86,0,0,0,0,1.166.79.79,0,0,0,1.137,0" transform="translate(-424.031 -126.647)" fill="#5d175a"/>
    <path id="Path_1782" data-name="Path 1782" d="M483.116,316.276a.861.861,0,0,0,0-1.166.789.789,0,0,0-1.137,0,.861.861,0,0,0,0,1.166.791.791,0,0,0,1.137,0" transform="translate(-425.7 -126.647)" fill="#5d175a"/>
    <path id="Path_1783" data-name="Path 1783" d="M453.678,311.9v9.2h-2.5a1.583,1.583,0,0,1-.846-.192,1.068,1.068,0,0,1-.433-.66,5.132,5.132,0,0,1-.128-1.293v-3a.883.883,0,0,0-.313-.107,2.151,2.151,0,0,0-.384-.036q-.754,0-.754.7v2.445a3.279,3.279,0,0,1-.306,1.684,1.239,1.239,0,0,1-1.116.461h-3.809a8.463,8.463,0,0,0,.832-1.307,9.589,9.589,0,0,0,.6-1.422,3.961,3.961,0,0,0,.227-1.194.854.854,0,0,0-.192-.612,1.963,1.963,0,0,0-.775-.383,6.755,6.755,0,0,0-1.194-.284,8.2,8.2,0,0,0-1.165-.085,7.66,7.66,0,0,0-2.359.37,2.015,2.015,0,0,0-.754.383.832.832,0,0,0-.2.612,4.277,4.277,0,0,0,.22,1.236,8.563,8.563,0,0,0,.59,1.422,7.811,7.811,0,0,0,.81,1.265h-3.71a1.421,1.421,0,0,1-.923-.248,1.2,1.2,0,0,1-.391-.725,6.211,6.211,0,0,1-.093-1.173v-7.618a1.391,1.391,0,0,0-.682-.157q-.768,0-.768.725v7.05a6.269,6.269,0,0,1-.092,1.173,1.186,1.186,0,0,1-.4.725,1.458,1.458,0,0,1-.931.248h-1.208a1.584,1.584,0,0,1-.845-.192,1.065,1.065,0,0,1-.434-.66,5.142,5.142,0,0,1-.128-1.293v-3a.887.887,0,0,0-.313-.106,2.151,2.151,0,0,0-.384-.036q-.753,0-.753.7v2.445a3.279,3.279,0,0,1-.306,1.684,1.24,1.24,0,0,1-1.116.461h-1.947a3.38,3.38,0,0,0-.469-1.492,2.875,2.875,0,0,0-1.073-1.03,3.458,3.458,0,0,0-3.141,0,2.929,2.929,0,0,0-1.08,1.03,3.335,3.335,0,0,0-.476,1.492h-1.99a1.585,1.585,0,0,1-.845-.192,1.069,1.069,0,0,1-.434-.66,5.138,5.138,0,0,1-.128-1.293v-3a.883.883,0,0,0-.313-.106,2.15,2.15,0,0,0-.384-.036q-.754,0-.754.7v2.445a3.279,3.279,0,0,1-.306,1.684,1.239,1.239,0,0,1-1.116.461h-2.359v-5.131H407.3a4.683,4.683,0,0,0-3,.854,2.964,2.964,0,0,0-1.067,2.458,2.927,2.927,0,0,0,.889,2.267,3.568,3.568,0,0,0,2.508.818h5.4a2.367,2.367,0,0,0,1.244-.313,1.642,1.642,0,0,0,.718-.852,1.467,1.467,0,0,0,.682.846,2.307,2.307,0,0,0,1.222.32h2.275a3.2,3.2,0,0,0,5,1.641,3.054,3.054,0,0,0,1.045-1.641h2.274a2.365,2.365,0,0,0,1.243-.313,1.642,1.642,0,0,0,.718-.852,1.468,1.468,0,0,0,.682.846,2.3,2.3,0,0,0,1.222.32h1.62a2.507,2.507,0,0,0,1.209-.292,1.578,1.578,0,0,0,.754-.874,1.461,1.461,0,0,0,.689.846,2.314,2.314,0,0,0,1.214.32h11.286a2.359,2.359,0,0,0,1.243-.313,1.639,1.639,0,0,0,.718-.852,1.468,1.468,0,0,0,.682.846,2.308,2.308,0,0,0,1.223.32h4.136V311.331a1.392,1.392,0,0,0-.682-.157q-.768,0-.768.725M408,321.095h-1.209a2.29,2.29,0,0,1-1.563-.476,1.711,1.711,0,0,1-.54-1.357,1.856,1.856,0,0,1,.633-1.5,2.668,2.668,0,0,1,1.77-.532H408Zm14.47,1.8a1.651,1.651,0,0,1-2.53,0,2.543,2.543,0,0,1,0-2.942,1.651,1.651,0,0,1,2.53,0,2.54,2.54,0,0,1,0,2.942m19.771-2.643a3.515,3.515,0,0,1-.809.931,4,4,0,0,1-.818-.98,7.368,7.368,0,0,1-.646-1.35,6.947,6.947,0,0,1-.37-1.493,4.29,4.29,0,0,1,.881-.241,5.676,5.676,0,0,1,.952-.085,5.758,5.758,0,0,1,.966.085,4.3,4.3,0,0,1,.881.241,7.612,7.612,0,0,1-.391,1.549,7.2,7.2,0,0,1-.647,1.343" transform="translate(-393.405 -125.128)" fill="#5d175a"/>
    <path id="Path_1784" data-name="Path 1784" d="M494.475,311.9v10.461h1.45V311.332a1.39,1.39,0,0,0-.682-.157q-.767,0-.768.725" transform="translate(-430.933 -125.128)" fill="#5d175a"/>
    <path id="Path_1785" data-name="Path 1785" d="M502.945,319.045a3.3,3.3,0,0,0-1.712.433,3.014,3.014,0,0,0-1.137,1.187,3.506,3.506,0,0,0-.406,1.692,3.256,3.256,0,0,0,.434,1.705,2.983,2.983,0,0,0,1.208,1.13,3.822,3.822,0,0,0,1.8.4h1.506a2.645,2.645,0,0,1-.469,1.691,1.633,1.633,0,0,1-1.35.583,2.915,2.915,0,0,1-.718-.092,3.579,3.579,0,0,1-.661-.235l-.341,1.095a2.94,2.94,0,0,0,.832.291,4.821,4.821,0,0,0,1,.107,2.924,2.924,0,0,0,2.331-.966,4.017,4.017,0,0,0,.838-2.716v-2.771a3.706,3.706,0,0,0-.86-2.6,2.963,2.963,0,0,0-2.3-.938m1.706,5.287h-1.72a1.67,1.67,0,0,1-1.315-.533,2.15,2.15,0,0,1-.476-1.485,2.313,2.313,0,0,1,.476-1.535,1.605,1.605,0,0,1,1.3-.568,1.535,1.535,0,0,1,1.272.583,2.548,2.548,0,0,1,.462,1.619Z" transform="translate(-433.078 -128.365)" fill="#5d175a"/>
    <path id="Path_1786" data-name="Path 1786" d="M527.589,316.276a.861.861,0,0,0,0-1.166.789.789,0,0,0-1.137,0,.861.861,0,0,0,0,1.166.791.791,0,0,0,1.137,0" transform="translate(-443.991 -126.647)" fill="#5d175a"/>
    <path id="Path_1787" data-name="Path 1787" d="M523.533,316.276a.861.861,0,0,0,0-1.166.789.789,0,0,0-1.137,0,.86.86,0,0,0,0,1.166.79.79,0,0,0,1.137,0" transform="translate(-442.323 -126.647)" fill="#5d175a"/>
    <path id="Path_1788" data-name="Path 1788" d="M533.611,331.745a.747.747,0,0,0-.569.242.86.86,0,0,0,0,1.166.79.79,0,0,0,1.137,0,.86.86,0,0,0,0-1.166.748.748,0,0,0-.568-.242" transform="translate(-446.702 -133.589)" fill="#5d175a"/>
    <path id="Path_1789" data-name="Path 1789" d="M530.367,325.6v-6.41a.9.9,0,0,0-.313-.107,2.2,2.2,0,0,0-.383-.035q-.754,0-.754.7v4.591h-3.653V319.2h-2.146a4.689,4.689,0,0,0-3,.853,2.966,2.966,0,0,0-1.066,2.459,2.929,2.929,0,0,0,.888,2.267,3.573,3.573,0,0,0,2.509.817h7.917Zm-6.552-1.265h-1.209a2.29,2.29,0,0,1-1.563-.476,1.711,1.711,0,0,1-.54-1.357,1.854,1.854,0,0,1,.633-1.5,2.667,2.667,0,0,1,1.77-.533h.91Z" transform="translate(-441.042 -128.365)" fill="#5d175a"/>
    <path id="Path_1790" data-name="Path 1790" d="M537.668,331.745a.748.748,0,0,0-.568.242.86.86,0,0,0,0,1.166.79.79,0,0,0,1.137,0,.859.859,0,0,0,0-1.166.748.748,0,0,0-.569-.242" transform="translate(-448.371 -133.589)" fill="#5d175a"/>
    <path id="Path_1791" data-name="Path 1791" d="M551.673,319.046q-.753,0-.754.7v4.591h-3.582v-1.748a3.7,3.7,0,0,0-.86-2.6,2.963,2.963,0,0,0-2.3-.938,3.3,3.3,0,0,0-1.712.433,3.012,3.012,0,0,0-1.137,1.187,3.511,3.511,0,0,0-.405,1.691,3.257,3.257,0,0,0,.434,1.706,2.988,2.988,0,0,0,1.208,1.13,3.829,3.829,0,0,0,1.8.4h1.507a2.643,2.643,0,0,1-.469,1.692,1.631,1.631,0,0,1-1.35.582,2.887,2.887,0,0,1-.718-.092,3.623,3.623,0,0,1-.661-.235l-.341,1.095a2.93,2.93,0,0,0,.832.291,4.815,4.815,0,0,0,1,.106,2.955,2.955,0,0,0,2.275-.9,3.794,3.794,0,0,0,.9-2.538h5.032v-6.411a.918.918,0,0,0-.313-.107,2.25,2.25,0,0,0-.384-.035m-5.785,5.287h-1.72a1.67,1.67,0,0,1-1.314-.533,2.148,2.148,0,0,1-.476-1.485,2.311,2.311,0,0,1,.476-1.535,1.6,1.6,0,0,1,1.3-.568,1.536,1.536,0,0,1,1.272.583,2.548,2.548,0,0,1,.461,1.62Z" transform="translate(-450.039 -128.366)" fill="#5d175a"/>
    <path id="Path_1792" data-name="Path 1792" d="M557.273,331.7a.765.765,0,0,0-.555.241.8.8,0,0,0-.242.583.817.817,0,0,0,.242.589.757.757,0,0,0,1.116.008.809.809,0,0,0,.234-.583.832.832,0,0,0-.234-.59.744.744,0,0,0-.562-.249" transform="translate(-456.434 -133.569)" fill="#5d175a"/>
    <path id="Path_1793" data-name="Path 1793" d="M577.543,316.276a.861.861,0,0,0,0-1.166.789.789,0,0,0-1.137,0,.859.859,0,0,0,0,1.166.79.79,0,0,0,1.137,0" transform="translate(-464.538 -126.647)" fill="#5d175a"/>
    <path id="Path_1794" data-name="Path 1794" d="M573.487,316.276a.861.861,0,0,0,0-1.166.789.789,0,0,0-1.137,0,.861.861,0,0,0,0,1.166.791.791,0,0,0,1.137,0" transform="translate(-462.87 -126.647)" fill="#5d175a"/>
    <path id="Path_1795" data-name="Path 1795" d="M573.946,311.9v9.2h-2.5a1.583,1.583,0,0,1-.846-.192,1.068,1.068,0,0,1-.433-.661,5.154,5.154,0,0,1-.128-1.293v-3a.89.89,0,0,0-.313-.107,2.2,2.2,0,0,0-.384-.035q-.753,0-.754.7v2.445a3.268,3.268,0,0,1-.306,1.684,1.238,1.238,0,0,1-1.116.462h-2.6v-5.146a.764.764,0,0,0-.305-.107,2.4,2.4,0,0,0-.406-.035q-.738,0-.739.7V323.1q0,1.408-1.279,1.407a2.956,2.956,0,0,1-.519-.049,2.18,2.18,0,0,1-.476-.135l-.356,1.038a3.787,3.787,0,0,0,.754.227,4.318,4.318,0,0,0,.853.085,2.4,2.4,0,0,0,1.812-.682,2.684,2.684,0,0,0,.661-1.947v-.682h2.828a2.36,2.36,0,0,0,1.244-.313,1.639,1.639,0,0,0,.718-.853,1.465,1.465,0,0,0,.682.846,2.308,2.308,0,0,0,1.223.32H575.4V311.332a1.392,1.392,0,0,0-.682-.157q-.767,0-.768.725" transform="translate(-458.083 -125.128)" fill="#5d175a"/>
    <path id="Path_1796" data-name="Path 1796" d="M588.9,311.9v10.461h1.45V311.332a1.389,1.389,0,0,0-.682-.157q-.768,0-.768.725" transform="translate(-469.771 -125.128)" fill="#5d175a"/>
    <path id="Path_1797" data-name="Path 1797" d="M607.107,311.174q-.753,0-.754.7v9.339a4.243,4.243,0,0,1-.576,2.481,2.092,2.092,0,0,1-1.812.789q-2.459,0-2.459-3.085a10.493,10.493,0,0,1,.241-2.175,1.5,1.5,0,0,0-.682-.212.822.822,0,0,0-.746.583,4.257,4.257,0,0,0-.263,1.691,4.859,4.859,0,0,0,.96,3.234,3.564,3.564,0,0,0,2.878,1.13,3.758,3.758,0,0,0,2.885-1.094,4.5,4.5,0,0,0,1.023-3.184V311.316a.9.9,0,0,0-.313-.107,2.2,2.2,0,0,0-.384-.035" transform="translate(-474.359 -125.128)" fill="#5d175a"/>
    <path id="Path_1798" data-name="Path 1798" d="M645.006,311.9v9.2h-2.5a1.425,1.425,0,0,1-.924-.249,1.2,1.2,0,0,1-.39-.724,6.278,6.278,0,0,1-.092-1.173v-7.618a1.388,1.388,0,0,0-.683-.157q-.767,0-.767.725v7.05a6.22,6.22,0,0,1-.093,1.173,1.182,1.182,0,0,1-.4.724,1.456,1.456,0,0,1-.931.249h-1.563A24.626,24.626,0,0,0,634.83,318a6.725,6.725,0,0,0-1.621-1.678,2.913,2.913,0,0,0-1.634-.519,1.738,1.738,0,0,0-.917.207.642.642,0,0,0-.334.575.979.979,0,0,0,.284.668,1.486,1.486,0,0,1,.363-.107,2.387,2.387,0,0,1,.405-.035,2.029,2.029,0,0,1,1.144.355,4.771,4.771,0,0,1,1.145,1.216,24.427,24.427,0,0,1,1.45,2.409h-6.169a1.426,1.426,0,0,1-.924-.249,1.2,1.2,0,0,1-.39-.724,6.226,6.226,0,0,1-.092-1.173v-7.618a1.388,1.388,0,0,0-.683-.157q-.767,0-.767.725v7.05a6.209,6.209,0,0,1-.093,1.173,1.182,1.182,0,0,1-.4.724,1.456,1.456,0,0,1-.931.249h-2.288v-1.748a3.707,3.707,0,0,0-.86-2.6,2.965,2.965,0,0,0-2.3-.938,3.3,3.3,0,0,0-1.713.433,3.007,3.007,0,0,0-1.137,1.187,3.506,3.506,0,0,0-.406,1.691,3.262,3.262,0,0,0,.434,1.706,2.991,2.991,0,0,0,1.208,1.13,3.829,3.829,0,0,0,1.8.4h1.506a2.646,2.646,0,0,1-.469,1.692,1.633,1.633,0,0,1-1.35.582,2.881,2.881,0,0,1-.718-.092,3.643,3.643,0,0,1-.661-.235l-.341,1.1a2.934,2.934,0,0,0,.831.291,4.821,4.821,0,0,0,1,.106,2.955,2.955,0,0,0,2.274-.9,3.8,3.8,0,0,0,.9-2.538h2.516a2.5,2.5,0,0,0,1.208-.291,1.574,1.574,0,0,0,.753-.874,1.465,1.465,0,0,0,.689.846,2.319,2.319,0,0,0,1.216.32h9.694a2.5,2.5,0,0,0,1.208-.291,1.572,1.572,0,0,0,.753-.874,1.466,1.466,0,0,0,.689.846,2.32,2.32,0,0,0,1.216.32h4.136V311.331a1.393,1.393,0,0,0-.682-.157q-.768,0-.768.725m-24.077,9.2h-1.72a1.671,1.671,0,0,1-1.315-.533,2.151,2.151,0,0,1-.476-1.485,2.314,2.314,0,0,1,.476-1.535,1.606,1.606,0,0,1,1.3-.568,1.536,1.536,0,0,1,1.273.583,2.547,2.547,0,0,1,.462,1.619Z" transform="translate(-480.903 -125.128)" fill="#5d175a"/>
    <path id="Path_1799" data-name="Path 1799" d="M627.305,40.183c-.064,6.672-5.82,9.256-6.593,9.629a19.566,19.566,0,0,0,1.17,6.676,15.659,15.659,0,0,0,14.53,9.474c.126,0,3.585-.075,3.712-.078L640.1,54.6c-.975.022-4.146-.009-4.421,0a4.641,4.641,0,0,1-4.742-4.536l1.33-15.53h0l1.126-11.851s-3.885-4.728-13.5-10.078c0,0,.165,10.528.337,19.058,5.879,2.1,7.025,6.078,7.077,8.524" transform="translate(-482.517 -2.324)" fill="#40bbf0"/>
    <path id="Path_1800" data-name="Path 1800" d="M524.877,72.033a15.675,15.675,0,0,0,14.476-10.12,16.994,16.994,0,0,0,.672-3.772c-1.777-1.053-8.549-3.368-8.013-13.743-.064-4.054,2.722-10.484,7.573-12.211-.047-6.4-.069-11.49-.069-11.49-.566.072-1.021.138-1.545.219a6.311,6.311,0,0,1-4.259,3.679c-1.681.475-4.468-.047-5.4-.945a7.777,7.777,0,0,0-2.12,1.19l1.82,15.6h0l2.017,15.456a4.64,4.64,0,1,1-5.931-4.355l-6.4-9.946a16,16,0,0,0,7.187,30.443" transform="translate(-436.737 -5.654)" fill="#40bbf0"/>
    <path id="Path_1801" data-name="Path 1801" d="M585.9,60.986c.328,3.084,1.466,4.445,3.666,6.188q4.232,3.353,11.29,3.763,1.349.078,2.654.024a16.2,16.2,0,0,0,2.517-.3l-.878-6.833c-1.147.221-5.361,1.379-5.657-.805q.629-.067,1.287-.186t1.341-.235a12.267,12.267,0,0,0,6.719-3.161,8.167,8.167,0,0,0,2.565-5.178,7.931,7.931,0,0,0-.028-1.307,5.733,5.733,0,0,0-.291-1.27,7.142,7.142,0,0,0-2.916-4.034,14.348,14.348,0,0,0-4.695-2.1q-.822-.2-1.621-.329t-1.578-.17a16.428,16.428,0,0,0-8.5,1.382,11.552,11.552,0,0,1,1.128,4.584,11.337,11.337,0,0,1-7,9.967m11.381-2.219c0-.068.008-.145.013-.227q-.015-.457-.009-.913c0-.3.009-.51.015-.621q.129-1.526.331-2.863a9.121,9.121,0,0,1,.721-2.467,1.93,1.93,0,0,1,.536-.715,1.156,1.156,0,0,1,.633-.254.164.164,0,0,1,.125-.034l.123.007.062,0,.062,0q.694.124,1.041,1.263a7.68,7.68,0,0,1,.257,2.669c-.007.111-.013.214-.018.31a.861.861,0,0,1-.057.266,2.29,2.29,0,0,1-.038.309,2.114,2.114,0,0,0-.039.308.458.458,0,0,1-.029.144.34.34,0,0,0-.026.1,7.013,7.013,0,0,1-1.17,2.752,3.081,3.081,0,0,1-2.53,1.3q.01-.165.008-.477t-.022-.685c0-.055.006-.117.011-.186" transform="translate(-468.538 -15.653)" fill="#40bbf0"/>
    <path id="Path_1802" data-name="Path 1802" d="M550.819,52.985q-.387,6.663,3.845,10.015t11.29,3.763q1.348.078,2.654.024a9.123,9.123,0,0,0,1.889-.3l.377-6.833a20.438,20.438,0,0,1-2.288.387c-.5,0-4.073.58-4-1.193q.629-.067,1.287-.186t1.341-.235a12.267,12.267,0,0,0,6.719-3.161,8.17,8.17,0,0,0,2.565-5.178,8,8,0,0,0-.028-1.307,5.725,5.725,0,0,0-.291-1.27,7.14,7.14,0,0,0-2.917-4.034,14.352,14.352,0,0,0-4.694-2.1q-.822-.2-1.621-.329t-1.578-.17q-6.85-.4-10.53,2.887t-4.023,9.218m11.561.742c0-.068.008-.145.013-.227q-.015-.457-.009-.913c0-.3.009-.51.015-.621q.129-1.526.331-2.863a9.156,9.156,0,0,1,.721-2.467,1.951,1.951,0,0,1,.536-.715,1.161,1.161,0,0,1,.633-.253.166.166,0,0,1,.126-.034l.123.007.062,0,.062,0q.694.124,1.04,1.263a7.67,7.67,0,0,1,.258,2.669c-.007.111-.012.214-.018.31a.867.867,0,0,1-.057.266,2.271,2.271,0,0,1-.038.309,2.122,2.122,0,0,0-.039.308.464.464,0,0,1-.029.144.335.335,0,0,0-.027.1,7,7,0,0,1-1.17,2.752,3.08,3.08,0,0,1-2.53,1.3q.01-.165.007-.477t-.022-.685c0-.055.007-.117.011-.186" transform="translate(-454.094 -13.937)" fill="#40bbf0"/>
    <path id="Path_1803" data-name="Path 1803" d="M543.457,16.6A5.964,5.964,0,1,0,537.5,10.64a5.962,5.962,0,0,0,5.961,5.964" transform="translate(-448.628 0.936)" fill="#40bbf0"/>
    <path id="Path_1804" data-name="Path 1804" d="M491.905,55.357l3.177-.523v4.543" transform="translate(-429.876 -19.694)" fill="#5d175a" fill-rule="evenodd"/>
    <path id="Path_1805" data-name="Path 1805" d="M434.25,37.438a6.935,6.935,0,0,0-5.455-.929,71.389,71.389,0,0,0-8.541,30.685,2.274,2.274,0,0,1,.446-.075l5.426.339s.808-.915,1.56-.6a222.125,222.125,0,0,1,6.745-29.289c-.061-.042-.117-.086-.181-.126" transform="translate(-400.406 -12.076)" fill="#ffc93d"/>
    <path id="Path_1806" data-name="Path 1806" d="M433.66,70.978a22.357,22.357,0,0,0,4.3,4.541l.3.2a5.83,5.83,0,0,0,.367-1.282c.186-2.023-2.3-14.968,3.659-29.62.038-1.993-.384-4.762-2.686-6.337a218.713,218.713,0,0,0-6.783,29.233c.439.182.354,2.56.845,3.269" transform="translate(-405.572 -12.966)" fill="#ffa900"/>
    <path id="Path_1807" data-name="Path 1807" d="M421.782,38.026C417.649,44.854,413,55.2,410.958,70.114a10.044,10.044,0,0,0,.423,3.19,11.1,11.1,0,0,0,.638,1.656c.037-.181.058-.286.058-.286s2.853-5.627,3.486-6.51c.369-.516.5-.7.864-.794a71.389,71.389,0,0,1,8.542-30.684,11.166,11.166,0,0,0-3.187,1.341" transform="translate(-396.579 -12.23)" fill="#ffa900"/>
    <path id="Path_1808" data-name="Path 1808" d="M442.176,26.687a8.126,8.126,0,0,1,3.9,4.681c.376-.676.766-1.353,1.183-2.03,0,0,3.84-3.822.953-6.443s-6.383-5.354-10.185-.58c-.7.884-1.62,2.023-2.665,3.44a8.171,8.171,0,0,1,6.811.931" transform="translate(-406.621 -5.245)" fill="#d33986"/>
    <path id="Path_1809" data-name="Path 1809" d="M425.7,108.9a5.415,5.415,0,0,0-5.039,3.025c.093.123.186.246.277.364a58.146,58.146,0,0,0,4.479,5.068c.7.724,1.273.244,1.764-.638.64-1.15,1.628-2.951,2.64-4.871-.289-1.282-1.229-2.859-4.121-2.948" transform="translate(-400.575 -41.93)" fill="#5d175a"/>
    <path id="Path_1810" data-name="Path 1810" d="M437.327,35.46c2.466,1.55,3.571,3.563,3.532,5.609a52.159,52.159,0,0,1,2.746-5.726,8.969,8.969,0,0,0-10.714-5.611c-1.073,1.457-2.282,3.208-3.541,5.288,2.536-1.517,4.892-1.5,7.977.442" transform="translate(-404.147 -9.219)" fill="#5d175a"/>
    <path id="Path_1811" data-name="Path 1811" d="M417.095,88.491c-.268.224-1.042,1.05-2.4,3.871-.859,1.786-1.872,3.623-1.872,3.623s-.022.105-.058.286a44.889,44.889,0,0,0,4.651,7.26A6.352,6.352,0,0,1,419.3,101.4a27.737,27.737,0,0,1-2.2-12.906" transform="translate(-397.326 -33.538)" fill="#ffd893"/>
    <path id="Path_1812" data-name="Path 1812" d="M433.417,89.346c-1.061-1.6-1.2-1.5-1.2-1.5h-.008a74.344,74.344,0,0,0-.87,12.549,3.532,3.532,0,0,1,2.863,2.79,75.056,75.056,0,0,0,3.435-7.165s-2.4-3.927-4.224-6.679" transform="translate(-404.956 -33.273)" fill="#ffd893"/>
    <path id="Path_1813" data-name="Path 1813" d="M427.584,87.852l-7.38.3a.736.736,0,0,0-.109.079,27.726,27.726,0,0,0,2.2,12.906,5.134,5.134,0,0,1,3.158-.891,6.468,6.468,0,0,1,1.258.158,74.331,74.331,0,0,1,.87-12.549" transform="translate(-400.326 -33.275)" fill="#ffe0b8"/>
    <path id="Path_1814" data-name="Path 1814" d="M416.291,13.558a4.35,4.35,0,0,0-2.946-1.836,44.794,44.794,0,0,0-12.258,15.786,1.458,1.458,0,0,1,.277.062l3.071,1.487s.687-.338,1.049.02a139.366,139.366,0,0,1,10.884-15.4c-.026-.038-.048-.078-.075-.117" transform="translate(-392.522 -1.962)" fill="#ffc93d"/>
    <path id="Path_1815" data-name="Path 1815" d="M408.034,32.521a14.037,14.037,0,0,0,1.414,3.659l.129.185a3.634,3.634,0,0,0,.518-.657c.589-1.131,2.227-9.237,9.17-16.329a4.536,4.536,0,0,0-.053-4.319A137.3,137.3,0,0,0,408.32,30.421c.212.21-.4,1.571-.287,2.1" transform="translate(-395.373 -3.335)" fill="#ffa900"/>
    <path id="Path_1816" data-name="Path 1816" d="M408.108,11.711A51.776,51.776,0,0,0,394.191,27.77a6.311,6.311,0,0,0-.513,1.953,6.964,6.964,0,0,0-.024,1.113l.1-.152s3-2.588,3.572-2.951c.337-.212.457-.287.691-.255A44.789,44.789,0,0,1,410.278,11.69a7.007,7.007,0,0,0-2.17.021" transform="translate(-389.461 -1.918)" fill="#ffa900"/>
    <path id="Path_1817" data-name="Path 1817" d="M427.575,8.737a5.1,5.1,0,0,1,1.153,3.646c.379-.3.766-.6,1.17-.9,0,0,3.139-1.306,2.086-3.515s-2.434-4.627-5.777-2.759c-.619.346-1.422.789-2.366,1.364a5.129,5.129,0,0,1,3.734,2.161" transform="translate(-401.881 0.989)" fill="#d33986"/>
    <path id="Path_1818" data-name="Path 1818" d="M398.96,52.144a3.4,3.4,0,0,0-3.645.558c.025.093.049.187.074.277a36.663,36.663,0,0,0,1.4,4.008c.237.588.681.444,1.176.049.645-.516,1.648-1.326,2.691-2.2a2.381,2.381,0,0,0-1.692-2.692" transform="translate(-390.148 -18.462)" fill="#5d175a"/>
    <path id="Path_1819" data-name="Path 1819" d="M422.74,12.378a4.1,4.1,0,0,1,.717,4.1,32.8,32.8,0,0,1,2.956-2.672,5.1,5.1,0,0,0-1.153-3.646A5.127,5.127,0,0,0,421.527,8c-.97.59-2.088,1.32-3.314,2.228,1.834-.277,3.2.294,4.527,2.154" transform="translate(-399.566 -0.43)" fill="#5d175a"/>
    <path id="Path_1820" data-name="Path 1820" d="M398.025,38.342a7.825,7.825,0,0,0-2.314,1.677c-.923.833-1.949,1.658-1.949,1.658l-.1.152a28.157,28.157,0,0,0,.974,5.322,3.988,3.988,0,0,1,1.6-.792,17.4,17.4,0,0,1,1.79-8.018" transform="translate(-389.468 -12.911)" fill="#ffd893"/>
    <path id="Path_1821" data-name="Path 1821" d="M406.518,42.151c-.235-1.183-.338-1.153-.338-1.153l0,0a46.634,46.634,0,0,0-3.49,7.08,2.216,2.216,0,0,1,1,2.3,47.055,47.055,0,0,0,3.7-3.344s-.46-2.851-.864-4.883" transform="translate(-393.179 -14.003)" fill="#ffd893"/>
    <path id="Path_1822" data-name="Path 1822" d="M404.251,39.891,399.9,38.308a.445.445,0,0,0-.082.02,17.4,17.4,0,0,0-1.79,8.019,3.217,3.217,0,0,1,2.045.233,4.093,4.093,0,0,1,.693.391,46.619,46.619,0,0,1,3.49-7.08" transform="translate(-391.255 -12.897)" fill="#ffe0b8"/>
  </g>
</svg>
