<svg xmlns="http://www.w3.org/2000/svg" width="14" height="7.677" viewBox="0 0 14 7.677">
  <g id="Iconly_Light-Outline_Arrow---Down-2" data-name="Iconly/Light-Outline/Arrow---Down-2" transform="translate(-4.25 -7.75)">
    <g id="Arrow---Down-2" transform="translate(4.25 7.75)">
      <path id="Stroke-1" d="M.448.448A.678.678,0,0,1,1.33.383l.076.066L7.25,6.292,13.094.448a.678.678,0,0,1,.882-.066l.076.066a.677.677,0,0,1,.066.882l-.066.076L7.729,7.729a.678.678,0,0,1-.882.066l-.076-.066L.448,1.406A.677.677,0,0,1,.448.448Z" transform="translate(-0.25 -0.25)" fill="#fff"/>
    </g>
  </g>
</svg>
