<svg xmlns="http://www.w3.org/2000/svg" width="105.618" height="105.711" viewBox="0 0 105.618 105.711">
  <g id="svgexport-17_17_" data-name="svgexport-17 (17)" transform="translate(-0.211 0)">
    <path id="Path_69224" data-name="Path 69224" d="M54.341,105.707c-1.016,0-.1.614-15.137-14.209-2.577-2.54-1.971-4.579-1.689-13.873a3.073,3.073,0,0,0-1.975-2.962L18.054,67.993a6.581,6.581,0,0,1-3.861-3.948L9.72,51.477a1.76,1.76,0,0,1,3.317-1.18c4.8,13.483,4.507,13.734,6.272,14.408l17.486,6.669a6.6,6.6,0,0,1,4.239,6.358c-.29,9.581-.606,10.03.642,11.259l13.343,13.152A49.532,49.532,0,0,0,74.667,97.27c3.431-17.839,3.9-17.864,2.325-19.4-9.62-9.375-9.381-9.548-11.046-9.548h-13.8a6.6,6.6,0,0,1-3.773-12l4.941-3.449c1.777-1.241,1.313-1.43,1.313-19.833a3.073,3.073,0,0,0-3.139-3.071c-4.221,0-2.168,6.481-9.957,6.481a6.61,6.61,0,0,1-5.706-3.292L32.71,27.771c-.926-1.6-.777-1.2-18.654-5.057C-7.4,50.4,6.263,90.989,39.682,100.361a1.762,1.762,0,0,1-.474,3.456c-.727,0-16.61-3.851-28.069-18.748a52.814,52.814,0,0,1,.868-65.438c.934-1.149.255-.907,19.435,3.234C35,23.633,35.8,26.089,38.873,31.4a3.359,3.359,0,0,0,3.33,1.534c2.089,0,2.728-1.658,3.524-3.091,3.257-5.862,12.421-3.652,12.421,3.2,0,22.838,1.77,19.517-7.759,26.169A3.073,3.073,0,0,0,52.147,64.8c14.583,0,15.916-.549,18.4,1.87l8.9,8.676a6.573,6.573,0,0,1,1.872,5.965L78.67,95.1c30.033-18.142,32-61.818,2.7-82.494-5.656,7.784-6.305,8.1-5.8,9.94l2.511,9.205c1.287,4.72,9.984.169,13.074,6.693l3.773,7.965c2.99,6.31-5.783,11.1-3.161,14.972a1.762,1.762,0,0,1-1.456,2.747c-1.949,0-3.638-4.206-1.8-7.607,3.222-5.949,4.093-6.788,3.232-8.6-5.252-11.089-3.065-9.272-11.6-10.443a6.581,6.581,0,0,1-5.463-4.8c-3.9-14.314-4.369-10.844,3.738-22a49.232,49.232,0,0,0-54.094,2.14,1.76,1.76,0,0,1-2.052-2.861c35.014-25.109,83.549.236,83.549,42.942,0,30.541-25.513,52.808-51.488,52.808Z" transform="translate(0 0)" fill="#76236c"/>
  </g>
</svg>
