<svg xmlns="http://www.w3.org/2000/svg" xmlns:xlink="http://www.w3.org/1999/xlink" width="33.934" height="33.934" viewBox="0 0 33.934 33.934">
  <defs>
    <clipPath id="clip-path">
      <path id="Path_69454" data-name="Path 69454" d="M0,0H33.934V33.934H0Z" fill="none"/>
    </clipPath>
  </defs>
  <g id="drag" clip-path="url(#clip-path)">
    <path id="Path_69453" data-name="Path 69453" d="M12.656,23.795a2.828,2.828,0,1,1-2.828-2.828A2.836,2.836,0,0,1,12.656,23.795ZM9.828,12.483a2.828,2.828,0,1,0,2.828,2.828A2.836,2.836,0,0,0,9.828,12.483ZM9.828,4a2.828,2.828,0,1,0,2.828,2.828A2.836,2.836,0,0,0,9.828,4Zm8.483,5.656a2.828,2.828,0,1,0-2.828-2.828A2.836,2.836,0,0,0,18.311,9.656Zm0,2.828a2.828,2.828,0,1,0,2.828,2.828A2.836,2.836,0,0,0,18.311,12.483Zm0,8.483a2.828,2.828,0,1,0,2.828,2.828A2.836,2.836,0,0,0,18.311,20.967Z" transform="translate(2.897 1.656)" fill="#8c8c8c"/>
  </g>
</svg>
