<svg xmlns="http://www.w3.org/2000/svg" width="78.321" height="104.094" viewBox="0 0 78.321 104.094">
  <path id="Path_69232" data-name="Path 69232" d="M78.334,21.833a38.252,38.252,0,0,0-30.089-9.578,38.854,38.854,0,0,0-20.157,68.52A11.978,11.978,0,0,1,32.251,90.1v7.459a17.518,17.518,0,0,0,17.512,17.484h5.761A17.518,17.518,0,0,0,73.036,97.56V90.1a12.349,12.349,0,0,1,4.373-9.5,38.907,38.907,0,0,0,.923-58.765ZM18.465,47.36A34.436,34.436,0,0,1,48.717,16.524c.6-.069,1.187-.064,1.78-.1v8.466a8.586,8.586,0,1,0,0,17.173v12.88H41.91a8.586,8.586,0,1,0-17.173,0H18.568a35,35,0,0,1-.1-7.582ZM30.828,77.466A34.511,34.511,0,0,1,19.36,59.235h7.524a2.147,2.147,0,0,0,2.147-2.147V54.942a4.293,4.293,0,1,1,8.586,0v2.147a2.147,2.147,0,0,0,2.147,2.147H50.5v6.44a8.586,8.586,0,1,0,0,17.173v6.44h-14a16.149,16.149,0,0,0-5.673-11.821Zm24.7,33.287H49.763a13.217,13.217,0,0,1-11.334-6.44H66.86a13.217,13.217,0,0,1-11.334,6.44ZM68.743,97.56a13.159,13.159,0,0,1-.238,2.46H36.78a13.159,13.159,0,0,1-.238-2.46v-3.98h32.2Zm5.905-20.249a16.587,16.587,0,0,0-5.86,11.976h-14V80.7a2.147,2.147,0,0,0-2.147-2.147H50.5a4.293,4.293,0,1,1,0-8.586h2.147a2.147,2.147,0,0,0,2.147-2.147V59.235H65.523a2.147,2.147,0,0,0,2.147-2.147V54.942a4.293,4.293,0,1,1,8.586,0v2.147A2.147,2.147,0,0,0,78.4,59.235H85.92A34.475,34.475,0,0,1,74.648,77.309Zm5.9-22.37a8.586,8.586,0,0,0-17.173,0H54.79V39.916a2.147,2.147,0,0,0-2.147-2.147H50.5a4.293,4.293,0,1,1,0-8.586h2.147a2.147,2.147,0,0,0,2.147-2.147V16.4a33.815,33.815,0,0,1,20.68,8.638A34.423,34.423,0,0,1,86.732,54.942Zm5.023,26.45,2.776-3.278ZM84.2,21.088l2.773,3.276ZM19.685,81.3Z" transform="translate(-13.461 -11.452)" fill="#76236c" stroke="#fff" stroke-width="1"/>
</svg>
