<svg width="94" height="94" viewBox="0 0 94 94" fill="none" xmlns="http://www.w3.org/2000/svg">
<path d="M47 94C72.9574 94 94 72.9574 94 47C94 21.0426 72.9574 0 47 0C21.0426 0 0 21.0426 0 47C0 72.9574 21.0426 94 47 94Z" fill="#FEEFD4"/>
<path d="M39.5 32C39.4479 33.4062 38.9531 34.5781 38.0156 35.5156C37.0781 36.4531 35.9062 36.9479 34.5 37C33.0938 36.9479 31.9219 36.4531 30.9844 35.5156C30.0469 34.5781 29.5521 33.4062 29.5 32C29.5521 30.5938 30.0469 29.4219 30.9844 28.4844C31.9219 27.5469 33.0938 27.0521 34.5 27C35.9062 27.0521 37.0781 27.5469 38.0156 28.4844C38.9531 29.4219 39.4479 30.5938 39.5 32ZM34.5 29.5C33.7708 29.5 33.1719 29.7344 32.7031 30.2031C32.2344 30.6719 32 31.2708 32 32C32 32.7292 32.2344 33.3281 32.7031 33.7969C33.1719 34.2656 33.7708 34.5 34.5 34.5C35.2292 34.5 35.8281 34.2656 36.2969 33.7969C36.7656 33.3281 37 32.7292 37 32C37 31.2708 36.7656 30.6719 36.2969 30.2031C35.8281 29.7344 35.2292 29.5 34.5 29.5ZM64.5 32C64.4479 33.4062 63.9531 34.5781 63.0156 35.5156C62.0781 36.4531 60.9062 36.9479 59.5 37C58.0938 36.9479 56.9219 36.4531 55.9844 35.5156C55.0469 34.5781 54.5521 33.4062 54.5 32C54.5521 30.5938 55.0469 29.4219 55.9844 28.4844C56.9219 27.5469 58.0938 27.0521 59.5 27C60.9062 27.0521 62.0781 27.5469 63.0156 28.4844C63.9531 29.4219 64.4479 30.5938 64.5 32ZM59.5 29.5C58.7708 29.5 58.1719 29.7344 57.7031 30.2031C57.2344 30.6719 57 31.2708 57 32C57 32.7292 57.2344 33.3281 57.7031 33.7969C58.1719 34.2656 58.7708 34.5 59.5 34.5C60.2292 34.5 60.8281 34.2656 61.2969 33.7969C61.7656 33.3281 62 32.7292 62 32C62 31.2708 61.7656 30.6719 61.2969 30.2031C60.8281 29.7344 60.2292 29.5 59.5 29.5ZM55.75 67C54.9688 66.9479 54.5521 66.5312 54.5 65.75V45.9844L51.2188 51.375C50.75 52 50.1771 52.1562 49.5 51.8438C48.875 51.375 48.7188 50.8021 49.0312 50.125L53.4844 42.8594C54.8906 40.6719 56.8958 39.5521 59.5 39.5C62.1042 39.5521 64.1094 40.6719 65.5156 42.8594L69.9688 50.125C70.2812 50.8021 70.125 51.375 69.5 51.8438C68.7708 52.1562 68.1979 52 67.7812 51.375L64.5 45.9844V65.75C64.4479 66.5312 64.0312 66.9479 63.25 67C62.4688 66.9479 62.0521 66.5312 62 65.75V57H57V65.75C56.9479 66.5312 56.5312 66.9479 55.75 67ZM59.5 42C58.5625 42 57.7292 42.2604 57 42.7812V54.5H62V42.7812C61.2708 42.2604 60.4375 42 59.5 42ZM29.5 58.25H27.625C27.2083 58.25 26.8698 58.0938 26.6094 57.7812C26.401 57.4167 26.349 57.0521 26.4531 56.6875L29.4219 45.6719L25.5156 51.4531C25.0469 52.026 24.474 52.1302 23.7969 51.7656C23.224 51.2969 23.1198 50.724 23.4844 50.0469L28.25 42.8594C29.6562 40.776 31.5833 39.6562 34.0312 39.5C34.1354 39.5 34.2656 39.5 34.4219 39.5H34.5781C34.7344 39.5 34.8646 39.5 34.9688 39.5C37.4167 39.6562 39.3438 40.776 40.75 42.8594L45.5156 50.0469C45.8802 50.724 45.776 51.2969 45.2031 51.7656C44.526 52.1302 43.9531 52.026 43.4844 51.4531L39.5781 45.6719L42.625 56.6875C42.6771 57.0521 42.599 57.4167 42.3906 57.7812C42.0781 58.0938 41.7396 58.25 41.375 58.25H39.5V65.75C39.4479 66.5312 39.0312 66.9479 38.25 67C37.4688 66.9479 37.0521 66.5312 37 65.75V58.25H32V65.75C31.9479 66.5312 31.5312 66.9479 30.75 67C29.9688 66.9479 29.5521 66.5312 29.5 65.75V58.25ZM32.625 43.4062L29.2656 55.75H39.7344L36.4531 43.4062C36.1406 42.5208 35.5938 42.0521 34.8125 42C34.7083 42 34.6042 42 34.5 42C34.3958 42 34.3177 42 34.2656 42C33.4323 42.0521 32.8854 42.5208 32.625 43.4062Z" fill="#76236C"/>
</svg>
