<svg xmlns="http://www.w3.org/2000/svg" width="78.644" height="80" viewBox="0 0 78.644 80">
  <g id="account" transform="translate(-0.5)">
    <path id="Path_69640" data-name="Path 69640" d="M169.857,396.2,166.2,384H152.636l-3.661,12.2H144.5v2.712h29.831V396.2Zm0,0" transform="translate(-119.594 -318.915)" fill="#e0e0de"/>
    <path id="Path_69641" data-name="Path 69641" d="M201.3,388.068,200.08,384H186.521l-1.22,4.068Zm0,0" transform="translate(-153.478 -318.915)" fill="#d6d6d4"/>
    <path id="Path_69642" data-name="Path 69642" d="M4.568,64A4.068,4.068,0,0,0,.5,68.068V110.1H79.144V68.068A4.068,4.068,0,0,0,75.076,64Zm0,0" transform="translate(0 -53.153)" fill="#348fd9"/>
    <path id="Path_69643" data-name="Path 69643" d="M.5,320H79.144v2.712H.5Zm0,0" transform="translate(0 -265.763)" fill="#3086cd"/>
    <path id="Path_69644" data-name="Path 69644" d="M.5,336v4.068a4.068,4.068,0,0,0,4.068,4.068H75.076a4.068,4.068,0,0,0,4.068-4.068V336Zm0,0" transform="translate(0 -279.051)" fill="#e0e0de"/>
    <path id="Path_69645" data-name="Path 69645" d="M106.805,0H52.568A4.068,4.068,0,0,0,48.5,4.068V56.949h62.373V4.068A4.068,4.068,0,0,0,106.805,0Zm0,0" transform="translate(-39.864)" fill="#60d1e0"/>
    <path id="Path_69646" data-name="Path 69646" d="M88.5,64.609h55.593V11.727a4.021,4.021,0,0,0-.885-2.5Zm0,0" transform="translate(-73.085 -7.66)" fill="#5ac6d4"/>
    <path id="Path_69647" data-name="Path 69647" d="M72.5,24h2.712v2.712H72.5Zm0,0" transform="translate(-59.797 -19.932)" fill="#3a9cc9"/>
    <path id="Path_69648" data-name="Path 69648" d="M104.5,24h2.712v2.712H104.5Zm0,0" transform="translate(-86.373 -19.932)" fill="#3a9cc9"/>
    <path id="Path_69649" data-name="Path 69649" d="M136.5,24h2.712v2.712H136.5Zm0,0" transform="translate(-112.949 -19.932)" fill="#3a9cc9"/>
    <path id="Path_69650" data-name="Path 69650" d="M109.924,224h32.542a5.424,5.424,0,0,1,0,10.847H109.924a5.424,5.424,0,0,1,0-10.847Zm0,0" transform="translate(-86.373 -186.034)" fill="#e0e0de"/>
    <g id="Group_68766" data-name="Group 68766" transform="translate(22.195 42.034)">
      <path id="Path_69651" data-name="Path 69651" d="M224.5,248h2.712v2.712H224.5Zm0,0" transform="translate(-208.229 -248)" fill="#3a9cc9"/>
      <path id="Path_69652" data-name="Path 69652" d="M256.5,248h2.712v2.712H256.5Zm0,0" transform="translate(-234.805 -248)" fill="#3a9cc9"/>
      <path id="Path_69653" data-name="Path 69653" d="M192.5,248h2.712v2.712H192.5Zm0,0" transform="translate(-181.653 -248)" fill="#3a9cc9"/>
      <path id="Path_69654" data-name="Path 69654" d="M160.5,248h2.712v2.712H160.5Zm0,0" transform="translate(-155.076 -248)" fill="#3a9cc9"/>
      <path id="Path_69655" data-name="Path 69655" d="M128.5,248h2.712v2.712H128.5Zm0,0" transform="translate(-128.5 -248)" fill="#3a9cc9"/>
    </g>
    <path id="Path_69656" data-name="Path 69656" d="M190.195,74.847A10.847,10.847,0,1,1,179.347,64,10.847,10.847,0,0,1,190.195,74.847Zm0,0" transform="translate(-139.525 -53.153)" fill="#348fd9"/>
    <path id="Path_69657" data-name="Path 69657" d="M216.636,100.068A4.068,4.068,0,1,1,212.568,96,4.068,4.068,0,0,1,216.636,100.068Zm0,0" transform="translate(-172.746 -79.729)" fill="#fec9a3"/>
    <path id="Path_69658" data-name="Path 69658" d="M203.108,149.122a8.136,8.136,0,0,0-15.073,0,10.821,10.821,0,0,0,15.073,0Zm0,0" transform="translate(-155.75 -119.636)" fill="#e94f4f"/>
    <path id="Path_69659" data-name="Path 69659" d="M48.5,320h62.373v2.712H48.5Zm0,0" transform="translate(-39.864 -265.763)" fill="#5ac6d4"/>
    <path id="Path_69660" data-name="Path 69660" d="M261.431,267.519a2.712,2.712,0,0,0-3.167,2.675,2.712,2.712,0,1,0-5.424,0,2.712,2.712,0,1,0-5.424,0v-12.2a2.813,2.813,0,0,0-2.256-2.82,2.712,2.712,0,0,0-3.167,2.675V278.33l-5.653-3.39a2.391,2.391,0,0,0-2.305-.089l-.213.107a2.394,2.394,0,0,0-.319,4.088l8.49,6.064h21.695v-14.77a2.814,2.814,0,0,0-2.256-2.82Zm0,0" transform="translate(-192.678 -211.889)" fill="#fec9a3"/>
    <path id="Path_69661" data-name="Path 69661" d="M416.5,64h2.712v46.1H416.5Zm0,0" transform="translate(-345.492 -53.153)" fill="#3086cd"/>
    <path id="Path_69662" data-name="Path 69662" d="M416.5,336h2.712v8.136H416.5Zm0,0" transform="translate(-345.492 -279.051)" fill="#d6d6d4"/>
    <path id="Path_69663" data-name="Path 69663" d="M305.51,328.992c-5.289,9.877-14.433,14.765-20.529,17.033l.6.426h21.695v-14.77a2.872,2.872,0,0,0-1.762-2.689Zm0,0" transform="translate(-236.264 -273.231)" fill="#fec093"/>
  </g>
</svg>
