<svg xmlns="http://www.w3.org/2000/svg" width="130.747" height="93.836" viewBox="0 0 130.747 93.836">
  <g id="svgexport-17_34_" data-name="svgexport-17 (34)" transform="translate(0 -4.077)">
    <path id="Path_69440" data-name="Path 69440" d="M26.738,35.288a14.605,14.605,0,1,0-14.612-14.6,14.616,14.616,0,0,0,14.612,14.6Zm0-20.157a5.554,5.554,0,1,1-5.559,5.554A5.559,5.559,0,0,1,26.738,15.13ZM13.077,78.019h6.971a4.527,4.527,0,0,0,4.527-4.527A4.463,4.463,0,0,0,22.3,69.654a4.4,4.4,0,0,0-2.254-.684H13.077a2.023,2.023,0,0,1-2.023-2.023A15.687,15.687,0,0,1,26.756,51.3a14.794,14.794,0,0,1,5.636,1.123c.136.059.3.081.444.145A4.529,4.529,0,1,0,36.6,44.327a23.864,23.864,0,0,0-9.845-2.082A24.728,24.728,0,0,0,2,66.947,11.09,11.09,0,0,0,13.077,78.024Zm90.932-42.732a14.605,14.605,0,1,0-14.6-14.6,14.623,14.623,0,0,0,14.6,14.6Zm0-20.157a5.559,5.559,0,1,1-5.559,5.56A5.562,5.562,0,0,1,104.008,15.13Zm-9.864,29.2a4.529,4.529,0,0,0,3.766,8.239c.14-.068.3-.091.444-.149A14.739,14.739,0,0,1,103.99,51.3a15.695,15.695,0,0,1,15.7,15.649,2.023,2.023,0,0,1-2.023,2.023H110.7a4.4,4.4,0,0,0-2.25.684,4.463,4.463,0,0,0-2.272,3.843,4.527,4.527,0,0,0,4.527,4.527h6.967a11.09,11.09,0,0,0,11.077-11.077,24.736,24.736,0,0,0-24.756-24.7,23.982,23.982,0,0,0-9.845,2.082Zm-28.771-.788a17.195,17.195,0,1,0-17.2-17.188,17.215,17.215,0,0,0,17.2,17.188Zm0-25.336a8.148,8.148,0,1,1-8.143,8.145A8.148,8.148,0,0,1,65.373,18.208ZM48.2,95.913H82.543A12.765,12.765,0,0,0,95.294,83.157a29.921,29.921,0,0,0-59.842,0A12.765,12.765,0,0,0,48.2,95.913Zm17.17-33.624A20.9,20.9,0,0,1,86.241,83.157a3.7,3.7,0,0,1-3.7,3.7H48.2a3.7,3.7,0,0,1-3.7-3.7A20.9,20.9,0,0,1,65.373,62.289Z" transform="translate(0)" fill="#76236c" stroke="#fff" stroke-width="4"/>
  </g>
</svg>
