<svg xmlns="http://www.w3.org/2000/svg" width="116.728" height="81.323" viewBox="0 0 116.728 81.323">
  <g id="svgexport-17_29_" data-name="svgexport-17 (29)" transform="translate(-180.5 -62.214)">
    <path id="Path_69420" data-name="Path 69420" d="M294.984,390.451h-65.6a1.722,1.722,0,0,1,0-3.444h65.6A1.722,1.722,0,1,1,294.984,390.451Zm-82.733,0H197.874A16.9,16.9,0,0,1,181,373.577V368.5a16.883,16.883,0,0,1,16.874-16.788h97.11a1.722,1.722,0,1,1,0,3.444h-97.11a13.43,13.43,0,0,0-13.43,13.344v5.079a13.447,13.447,0,0,0,13.43,13.43h14.377A1.722,1.722,0,0,1,212.251,390.451Z" transform="translate(0 -258.262)" fill="#76236c" stroke="#fff" stroke-width="1"/>
    <path id="Path_69421" data-name="Path 69421" d="M601.74,1170.2a1.727,1.727,0,0,1-1.722-1.722v-35.3a1.722,1.722,0,0,1,3.444,0v35.3A1.727,1.727,0,0,1,601.74,1170.2Zm-58.886,10.848a1.9,1.9,0,0,1-1.378-.775l-7.146-10.073-7.146,10.073a1.758,1.758,0,0,1-3.185-.947v-22.9a1.727,1.727,0,0,1,1.722-1.722H542.94a1.727,1.727,0,0,1,1.722,1.722v22.9A1.747,1.747,0,0,1,542.854,1181.045Zm-8.523-15.583a1.9,1.9,0,0,1,1.377.775l5.424,7.662v-15.755H527.444V1173.9l5.424-7.662A1.691,1.691,0,0,1,534.331,1165.463Z" transform="translate(-313.471 -1038.008)" fill="#76236c" stroke="#fff" stroke-width="1"/>
    <path id="Path_69422" data-name="Path 69422" d="M350.886,831.423H277.192a1.722,1.722,0,1,1,0-3.444h73.694A1.722,1.722,0,1,1,350.886,831.423Zm0-11.192H277.192a1.722,1.722,0,1,1,0-3.444h73.694A1.722,1.722,0,1,1,350.886,820.231Zm14.549-12.053H308.357a1.722,1.722,0,1,1,0-3.444h57.078A1.722,1.722,0,0,1,365.435,808.178Zm-72.058,0H280.894A14.954,14.954,0,0,1,266,793.284v-4.391A14.9,14.9,0,0,1,280.894,774h84.455a1.722,1.722,0,1,1,0,3.444H280.894a11.445,11.445,0,0,0-11.45,11.45v4.391a11.5,11.5,0,0,0,11.45,11.45h12.483A1.722,1.722,0,1,1,293.377,808.178Z" transform="translate(-77.682 -711.286)" fill="#76236c" stroke="#fff" stroke-width="1"/>
    <path id="Path_69423" data-name="Path 69423" d="M514.4,808.635a1.727,1.727,0,0,1-1.722-1.722V776.179a1.722,1.722,0,0,1,3.444,0v30.734A1.727,1.727,0,0,1,514.4,808.635Zm-13.086-10.5H437.179a1.722,1.722,0,0,1,0-3.444h64.138A1.722,1.722,0,1,1,501.316,798.132Zm0-9.728H437.179a1.722,1.722,0,0,1,0-3.444h64.138A1.722,1.722,0,1,1,501.316,788.4Z" transform="translate(-232.59 -711.743)" fill="#76236c" stroke="#fff" stroke-width="1"/>
  </g>
</svg>
