<svg xmlns="http://www.w3.org/2000/svg" width="102.37" height="102.632" viewBox="0 0 102.37 102.632">
  <g id="svgexport-17_23_" data-name="svgexport-17 (23)" transform="translate(-3.645 -3.5)">
    <path id="Path_69235" data-name="Path 69235" d="M54.7,105.632a50.816,50.816,0,0,0,44.96-74.5,1.815,1.815,0,1,0-3.205,1.7,47.052,47.052,0,0,1,5.432,21.98c-2.586,62.589-91.787,62.589-94.373,0C7.076,19.822,45.987-3.633,76.68,13.063a1.815,1.815,0,0,0,1.7-3.207A50.689,50.689,0,0,0,54.7,4C-12.706,6.786-12.706,102.848,54.7,105.632Z" transform="translate(0)" fill="#76236c" stroke="#fff" stroke-width="1"/>
    <path id="Path_69236" data-name="Path 69236" d="M40.107,25.63a14.147,14.147,0,0,1,4.617.771,1.815,1.815,0,0,0,2.307-1.125c.8-3.207-4.855-3.08-6.924-3.276-24.074.995-24.072,35.3,0,36.3A18.169,18.169,0,0,0,58.255,40.149c-.185-2.105-.064-7.7-3.259-6.906a1.815,1.815,0,0,0-1.125,2.3,14.083,14.083,0,0,1,.755,4.6c-.728,19.232-28.312,19.232-29.038,0A14.537,14.537,0,0,1,40.107,25.63Z" transform="translate(14.591 14.668)" fill="#76236c" stroke="#fff" stroke-width="1"/>
    <path id="Path_69237" data-name="Path 69237" d="M64.779,19.779a1.815,1.815,0,0,0-.708-2.468A34.464,34.464,0,0,0,47.4,13c-45.738,1.891-45.738,67.076,0,68.965A34.462,34.462,0,0,0,77.574,30.813a1.816,1.816,0,1,0-3.176,1.76c11.506,19.949-3.947,46.161-27,45.762A30.887,30.887,0,0,1,16.549,47.482c-.4-23.047,25.809-38.5,45.762-27a1.811,1.811,0,0,0,2.468-.708Z" transform="translate(7.296 7.334)" fill="#76236c" stroke="#fff" stroke-width="1"/>
    <path id="Path_69238" data-name="Path 69238" d="M53.729,20.7,54.4,29.4,31.532,52.268A1.815,1.815,0,1,0,34.1,54.834L56.962,31.97l8.706.666a1.815,1.815,0,0,0,1.421-.526L80.3,18.9a1.828,1.828,0,0,0-1.143-3.093L71.168,15.2l-.612-7.985a1.828,1.828,0,0,0-3.093-1.143L54.256,19.277a1.811,1.811,0,0,0-.526,1.421Zm13.51-9.272c.726,8.452-.7,6.964,7.7,7.7l-9.827,9.827-7.152-.548-.548-7.151Z" transform="translate(21.883 1.265)" fill="#76236c" stroke="#fff" stroke-width="1"/>
  </g>
</svg>
