<svg xmlns="http://www.w3.org/2000/svg" width="36.661" height="41.943" viewBox="0 0 36.661 41.943">
  <g id="Group_67891" data-name="Group 67891" transform="translate(-188.366 -64.849)">
    <path id="Path_1839" data-name="Path 1839" d="M-189.1-77.948v-1.478a9.624,9.624,0,0,0-9.624-9.624,9.624,9.624,0,0,0-9.624,9.624v1.478a18.973,18.973,0,0,1-7.062,14.768,1.667,1.667,0,0,0-.441.537,1.641,1.641,0,0,0,1.461,2.388h31.331a1.641,1.641,0,0,0,1.461-2.388,1.666,1.666,0,0,0-.441-.537A18.973,18.973,0,0,1-189.1-77.948Z" transform="translate(405.419 160.467)" fill="none" stroke="#fff" stroke-linecap="round" stroke-linejoin="round" stroke-miterlimit="10" stroke-width="2"/>
    <path id="Path_1840" data-name="Path 1840" d="M-54.932-44.925v-2.487a3.912,3.912,0,0,0-3.912-3.912h0a3.912,3.912,0,0,0-3.912,3.912v2.487" transform="translate(265.541 117.173)" fill="none" stroke="#fff" stroke-linecap="round" stroke-linejoin="round" stroke-miterlimit="10" stroke-width="2"/>
    <path id="Path_1841" data-name="Path 1841" d="M0,0A6.851,6.851,0,0,0,6.731,5.581,6.851,6.851,0,0,0,13.462,0" transform="translate(199.966 100.211)" fill="none" stroke="#fff" stroke-linecap="round" stroke-linejoin="round" stroke-miterlimit="10" stroke-width="2"/>
  </g>
</svg>
