<svg xmlns="http://www.w3.org/2000/svg" xmlns:xlink="http://www.w3.org/1999/xlink" width="94.768" height="94.768" viewBox="0 0 94.768 94.768">
  <defs>
    <clipPath id="clip-path">
      <path id="Path_69460" data-name="Path 69460" d="M0-682.665H94.768V-587.9H0Z" transform="translate(0 682.665)"/>
    </clipPath>
  </defs>
  <g id="Subscription" transform="translate(0 -0.002)">
    <g id="Group_68197" data-name="Group 68197" transform="translate(0 0.002)" clip-path="url(#clip-path)">
      <path id="Path_69445" data-name="Path 69445" d="M-123.9-404.8h16.632v-7.08l3.881-13.822a29.293,29.293,0,0,0,.152-15.277l-1.713-6.6a3.6,3.6,0,0,0-3.484-2.695h-.057a3.579,3.579,0,0,0-2.238.78,3.6,3.6,0,0,0-1.236,1.874,3.487,3.487,0,0,0-.127.943v-1.368a3.586,3.586,0,0,0-1.054-2.544,3.586,3.586,0,0,0-2.544-1.054h-.568a3.6,3.6,0,0,0-3.6,3.6v-2.1a3.593,3.593,0,0,0-1.417-2.862,4.085,4.085,0,0,0-2.749-.738,3.6,3.6,0,0,0-3.586,3.316c-.018.015-.011,1.723-.012,1.809,0-.091,0-.18-.011-.269v-17.57a3.6,3.6,0,0,0-3.595-3.595,3.6,3.6,0,0,0-3.594,3.595v25.912a3.623,3.623,0,0,0-.9-2.371,3.673,3.673,0,0,0-2.7-1.224,3.594,3.594,0,0,0-3.572,3.182l-1.825,15.8a9.575,9.575,0,0,0-.063,1.178v.007a9.555,9.555,0,0,0,3.324,7.156l5.731,4.934v7.08h4.271" transform="translate(170.229 498.179)" fill="none" stroke="#76236c" stroke-linecap="round" stroke-linejoin="round" stroke-miterlimit="10" stroke-width="3"/>
      <path id="Path_69446" data-name="Path 69446" d="M0,0V11.7" transform="translate(35.413 57.634)" fill="none" stroke="#76236c" stroke-linecap="round" stroke-linejoin="round" stroke-miterlimit="10" stroke-width="3"/>
      <path id="Path_69447" data-name="Path 69447" d="M-121.641-225.977h-19.608V-262.4h19.608" transform="translate(144.797 268.404)" fill="none" stroke="#76236c" stroke-linecap="round" stroke-linejoin="round" stroke-miterlimit="10" stroke-width="3"/>
      <path id="Path_69448" data-name="Path 69448" d="M-40.487-225.977h13.743V-262.4H-47.013" transform="translate(117.964 268.404)" fill="none" stroke="#76236c" stroke-linecap="round" stroke-linejoin="round" stroke-miterlimit="10" stroke-width="3"/>
      <path id="Path_69449" data-name="Path 69449" d="M-266.725-326.08h4.8v-52.563h-47.795v52.563h12.258" transform="translate(332.877 380.031)" fill="none" stroke="#76236c" stroke-linecap="round" stroke-linejoin="round" stroke-miterlimit="10" stroke-width="3"/>
      <path id="Path_69450" data-name="Path 69450" d="M0,0H14.017a2.733,2.733,0,0,1,2.732,2.734V5.4a2.733,2.733,0,0,1-2.732,2.732h-7.6" transform="translate(42.601 31.721)" fill="none" stroke="#76236c" stroke-linecap="round" stroke-linejoin="round" stroke-miterlimit="10" stroke-width="3"/>
      <path id="Path_69451" data-name="Path 69451" d="M0-16.543v-2.667" transform="translate(35.414 53.664)" fill="none" stroke="#76236c" stroke-linecap="round" stroke-linejoin="round" stroke-miterlimit="10" stroke-width="3"/>
      <path id="Path_69452" data-name="Path 69452" d="M45.165-662.417H25.556v-5.63H45.165Zm68.063,0H92.959v-5.63h20.27Zm-20.27,0H45.165V-672.66H92.959Z" transform="translate(-22.008 674.049)" fill="none" stroke="#76236c" stroke-linecap="round" stroke-linejoin="round" stroke-miterlimit="10" stroke-width="3"/>
      <path id="Path_69453" data-name="Path 69453" d="M0,0H16.1" transform="translate(39.005 6.577)" fill="none" stroke="#76236c" stroke-linecap="round" stroke-linejoin="round" stroke-miterlimit="10" stroke-width="3"/>
      <path id="Path_69454" data-name="Path 69454" d="M229.765-553.346H218.8v-6.34h10.961Z" transform="translate(-188.429 576.758)" fill="none" stroke="#76236c" stroke-linecap="round" stroke-linejoin="round" stroke-miterlimit="10" stroke-width="3"/>
      <path id="Path_69455" data-name="Path 69455" d="M0,0H8.246" transform="translate(76.509 21.698)" fill="none" stroke="#76236c" stroke-linecap="round" stroke-linejoin="round" stroke-miterlimit="10" stroke-width="3"/>
      <path id="Path_69456" data-name="Path 69456" d="M0,0H8.246" transform="translate(76.509 27.67)" fill="none" stroke="#76236c" stroke-linecap="round" stroke-linejoin="round" stroke-miterlimit="10" stroke-width="3"/>
      <path id="Path_69457" data-name="Path 69457" d="M0,0H8.246" transform="translate(9.151 21.698)" fill="none" stroke="#76236c" stroke-linecap="round" stroke-linejoin="round" stroke-miterlimit="10" stroke-width="3"/>
      <path id="Path_69458" data-name="Path 69458" d="M0,0H8.246" transform="translate(9.151 27.67)" fill="none" stroke="#76236c" stroke-linecap="round" stroke-linejoin="round" stroke-miterlimit="10" stroke-width="3"/>
      <path id="Path_69459" data-name="Path 69459" d="M0,0H14.727" transform="translate(48.234 20.242)" fill="none" stroke="#76236c" stroke-linecap="round" stroke-linejoin="round" stroke-miterlimit="10" stroke-width="3"/>
    </g>
  </g>
</svg>
