<svg xmlns="http://www.w3.org/2000/svg" width="94.724" height="100.12" viewBox="0 0 94.724 100.12">
  <g id="svgexport-17_22_" data-name="svgexport-17 (22)" transform="translate(-19.664 -6.201)">
    <path id="Path_69233" data-name="Path 69233" d="M129.027,92.783h15.282a1.043,1.043,0,1,0,0-2.086H129.027a1.043,1.043,0,0,0,0,2.086Zm41.443,9.452H129.027a1.043,1.043,0,0,0,0,2.086H170.47a1.043,1.043,0,1,0,0-2.086Zm0,11.538H129.027a1.043,1.043,0,0,0,0,2.086H170.47a1.043,1.043,0,1,0,0-2.086Zm0,11.538H129.027a1.043,1.043,0,0,0,0,2.086H170.47a1.043,1.043,0,1,0,0-2.086Zm0,11.538H129.027a1.043,1.043,0,0,0,0,2.086H170.47a1.043,1.043,0,0,0,0-2.086Zm0,11.538H129.027a1.043,1.043,0,0,0,0,2.086H170.47a1.043,1.043,0,0,0,0-2.086ZM201,165.414l-.146-55.352a3.928,3.928,0,0,0-3.924-3.913h-.01l-4.875.013a3.928,3.928,0,0,0-3.913,3.934l.145,55.352a1.059,1.059,0,0,0,.236.659l4.431,5.406a2.2,2.2,0,0,0,.668.538l0,.795a1.043,1.043,0,0,0,1.043,1.04h0a1.043,1.043,0,0,0,1.04-1.045l0-.8a2.2,2.2,0,0,0,.659-.537l4.41-5.429a1.1,1.1,0,0,0,.233-.66ZM190.36,164.4l-.123-47.348,8.552-.022.123,47.348Zm1.692-56.152,4.875-.013h0a1.841,1.841,0,0,1,1.838,1.833l.013,4.875-8.552.022-.012-4.875A1.84,1.84,0,0,1,192.051,108.247Zm2.687,61.941h-.18l-3.039-3.707,6.243-.016Z" transform="translate(-86.613 -67.563)" fill="#76236c"/>
    <path id="Path_69234" data-name="Path 69234" d="M95.491,23.69,78.308,6.507a1.181,1.181,0,0,0-.737-.306H36.492a6.022,6.022,0,0,0-6.015,6.015v4.8h-4.8a6.022,6.022,0,0,0-6.015,6.015V100.3a6.022,6.022,0,0,0,6.015,6.015h53.29a6.022,6.022,0,0,0,6.015-6.015v-4.8h4.8A6.021,6.021,0,0,0,95.8,89.492V24.427A1.17,1.17,0,0,0,95.491,23.69Zm-3.255-.306H82.543a3.934,3.934,0,0,1-3.929-3.929V9.762ZM82.9,100.3a3.934,3.934,0,0,1-3.929,3.929H25.679A3.934,3.934,0,0,1,21.75,100.3V23.029A3.934,3.934,0,0,1,25.679,19.1h4.8V89.491a6.021,6.021,0,0,0,6.015,6.014H82.9Zm6.884-6.884H36.492a3.934,3.934,0,0,1-3.929-3.929V12.216a3.934,3.934,0,0,1,3.929-3.929H76.528V19.455a6.022,6.022,0,0,0,6.015,6.015H93.711V89.491a3.934,3.934,0,0,1-3.929,3.929Z" transform="translate(0 0)" fill="#76236c"/>
  </g>
</svg>
