<svg xmlns="http://www.w3.org/2000/svg" width="96.482" height="113.612" viewBox="0 0 96.482 113.612">
  <g id="svgexport-17_18_" data-name="svgexport-17 (18)" transform="translate(-0.94 0.75)">
    <g id="Group_67910" data-name="Group 67910" transform="translate(2.94 1.25)">
      <path id="Path_69225" data-name="Path 69225" d="M56.582,85.325H31.091C21.914,85.325,4.58,80.686,4.58,63.1S21.914,40.869,31.091,40.869H53.727c.765,0,18.863-.255,18.863-14.581s-18.1-14.581-18.863-14.581H28.236a3.824,3.824,0,0,1,0-7.647H53.727C62.9,4.06,80.237,8.7,80.237,26.288S62.9,48.516,53.727,48.516H31.091c-.765,0-18.863.255-18.863,14.581s18.1,14.581,18.863,14.581H56.582a3.824,3.824,0,1,1,0,7.647Z" transform="translate(3.782 10.267)" fill="#76236c" stroke="#fff" stroke-width="4"/>
      <path id="Path_69226" data-name="Path 69226" d="M20.784,37.244A18,18,0,1,1,38.934,19.4a18,18,0,0,1-18.15,17.844Zm0-28.346a10.2,10.2,0,1,0,10.2,10.2A10.2,10.2,0,0,0,20.784,8.9ZM77.476,110.862A18,18,0,1,1,95.422,92.814,18,18,0,0,1,77.476,110.862Zm0-28.346a10.2,10.2,0,1,0,10.2,10.2A10.2,10.2,0,0,0,77.476,82.516Z" transform="translate(-2.94 -1.25)" fill="#76236c" stroke="#fff" stroke-width="4"/>
    </g>
  </g>
</svg>
