<svg xmlns="http://www.w3.org/2000/svg" width="98.665" height="94.058" viewBox="0 0 98.665 94.058">
  <g id="svgexport-17_20_" data-name="svgexport-17 (20)" transform="translate(-2 -3)">
    <path id="Path_69229" data-name="Path 69229" d="M57.019,87.552A4.583,4.583,0,0,1,53.772,86.2L41.325,73.736H20.372a2.3,2.3,0,0,1,0-4.6h21.91a2.3,2.3,0,0,1,1.629.674L57.031,82.949l0-11.514a2.3,2.3,0,0,1,2.3-2.3h9.206a6.913,6.913,0,0,0,6.9-6.9V20.8A6.9,6.9,0,0,0,72,14.834a2.3,2.3,0,1,1,2.292-3.993A11.514,11.514,0,0,1,80.05,20.8V62.227A11.521,11.521,0,0,1,68.543,73.734h-6.9V82.94a4.622,4.622,0,0,1-4.617,4.61Z" transform="translate(19.615 8.505)" fill="#76236c" stroke="#fff" stroke-width="2"/>
    <path id="Path_69230" data-name="Path 69230" d="M26.02,82.249a4.589,4.589,0,0,1-4.608-4.605v-9.2h-6.9A11.521,11.521,0,0,1,3,56.934V15.507A11.521,11.521,0,0,1,14.507,4H74.346A11.521,11.521,0,0,1,85.854,15.507V56.934A11.521,11.521,0,0,1,74.346,68.442H41.725L29.269,80.9a4.6,4.6,0,0,1-3.25,1.351ZM14.507,8.6a6.913,6.913,0,0,0-6.9,6.9V56.934a6.913,6.913,0,0,0,6.9,6.9h9.206a2.3,2.3,0,0,1,2.3,2.3v11.5l13.13-13.13a2.3,2.3,0,0,1,1.627-.674H74.346a6.913,6.913,0,0,0,6.9-6.9V15.507a6.913,6.913,0,0,0-6.9-6.9Z" transform="translate(0)" fill="#76236c" stroke="#fff" stroke-width="2"/>
    <path id="Path_69231" data-name="Path 69231" d="M26.8,37.624a2.3,2.3,0,0,1-2.3-2.3V33.55a9.319,9.319,0,0,1,5.082-8.138,5.821,5.821,0,0,0,2.824-6.433,5.757,5.757,0,0,0-11.287.559,2.3,2.3,0,0,1-4.559-.654A10.361,10.361,0,1,1,31.811,29.442a4.8,4.8,0,0,0-2.7,4.108v1.772A2.3,2.3,0,0,1,26.8,37.624Z" transform="translate(17.622 7.803)" fill="#76236c" stroke="#fff" stroke-width="2"/>
    <circle id="Ellipse_2233" data-name="Ellipse 2233" cx="2" cy="2" r="2" transform="translate(41.852 50.39)" fill="#76236c" stroke="#fff" stroke-width="2"/>
  </g>
</svg>
