<svg id="Component_139_1" data-name="Component 139 – 1" xmlns="http://www.w3.org/2000/svg" width="20.117" height="20.12" viewBox="0 0 20.117 20.12">
  <path id="Union_17" data-name="Union 17" d="M10402.994-13804.508l-.1,1.142a.788.788,0,0,1-.854.711.783.783,0,0,1-.711-.854l.378-4.187a.79.79,0,0,1,1.242-.568l3.4,2.428a.787.787,0,0,1,.185,1.1.792.792,0,0,1-1.1.185l-1.12-.8a8.375,8.375,0,0,0,7.071,3.905,8.38,8.38,0,0,0,7.464-4.6.79.79,0,0,1,1.059-.344.786.786,0,0,1,.343,1.059,9.959,9.959,0,0,1-8.865,5.455A9.9,9.9,0,0,1,10402.994-13804.508Zm16.821-7.106-3.4-2.428a.787.787,0,0,1-.18-1.1.782.782,0,0,1,1.1-.184l1.12.8a8.372,8.372,0,0,0-7.072-3.909,8.394,8.394,0,0,0-7.464,4.6.785.785,0,0,1-1.058.343.781.781,0,0,1-.344-1.054,9.956,9.956,0,0,1,8.865-5.46,9.906,9.906,0,0,1,8.387,4.631l.1-1.145a.789.789,0,0,1,.853-.711.785.785,0,0,1,.711.856l-.378,4.187a.79.79,0,0,1-.787.714A.776.776,0,0,1,10419.815-13811.614Z" transform="translate(-10401.321 13820.001)" fill="#76236c"/>
</svg>
