<svg xmlns="http://www.w3.org/2000/svg" width="134.897" height="117.136" viewBox="0 0 134.897 117.136">
  <g id="svgexport-17_31_" data-name="svgexport-17 (31)" transform="translate(0.5 -39.669)">
    <g id="Group_68160" data-name="Group 68160" transform="translate(0 40.169)">
      <path id="Path_69425" data-name="Path 69425" d="M70.325,40.169A12.122,12.122,0,1,0,82.447,52.292,12.128,12.128,0,0,0,70.325,40.169Zm0,4.228a7.894,7.894,0,1,1-7.894,7.894A7.9,7.9,0,0,1,70.325,44.4ZM50.714,86.2a20.308,20.308,0,0,1,38.692-1.672,2.114,2.114,0,1,0,3.973-1.447A24.536,24.536,0,0,0,46.631,85.1a2.114,2.114,0,1,0,4.083,1.1Z" transform="translate(-36.265 -40.169)" fill="#76236c" stroke="#fff" stroke-width="1" fill-rule="evenodd"/>
      <path id="Path_69426" data-name="Path 69426" d="M41.257,178.706l-.857,4.448a2.11,2.11,0,0,0,.5,1.815l4.109,4.564a2.114,2.114,0,0,0,3.142,0l3.734-4.147a2.117,2.117,0,0,0,.514-1.763l-1.557-9.305a2.114,2.114,0,1,0-4.171.7l1.388,8.3-1.478,1.643-1.834-2.037.658-3.414a2.114,2.114,0,0,0-4.152-.8ZM54.9,210.49H21.566a.7.7,0,0,1-.7-.7V196.569a2.114,2.114,0,1,0-4.228,0v13.216a4.933,4.933,0,0,0,4.933,4.933H54.9a2.114,2.114,0,0,0,0-4.228Z" transform="translate(-12.956 -143.284)" fill="#76236c" stroke="#fff" stroke-width="1" fill-rule="evenodd"/>
      <path id="Path_69427" data-name="Path 69427" d="M54.365,87.763a2.055,2.055,0,0,0,.608.09,2.116,2.116,0,0,0,2.114-2.114v-.073a2.115,2.115,0,0,0-2.114-2.131H4.933A4.932,4.932,0,0,0,0,88.468v2.166a4.933,4.933,0,0,0,4.933,4.933H57.792a2.114,2.114,0,1,0,0-4.228H4.933a.7.7,0,0,1-.7-.7V88.468a.705.705,0,0,1,.7-.7ZM99.837,40.169A12.122,12.122,0,1,0,111.96,52.292,12.128,12.128,0,0,0,99.837,40.169Zm0,4.228a7.894,7.894,0,1,1-7.893,7.894A7.9,7.9,0,0,1,99.837,44.4ZM80.756,84.526A20.308,20.308,0,0,1,119.448,86.2a2.114,2.114,0,1,0,4.083-1.1,24.536,24.536,0,0,0-46.749-2.023,2.114,2.114,0,1,0,3.973,1.447Z" transform="translate(0 -40.169)" fill="#76236c" stroke="#fff" stroke-width="1" fill-rule="evenodd"/>
      <path id="Path_69428" data-name="Path 69428" d="M409.71,175.641l-.726,4.173a2.112,2.112,0,0,0,.512,1.777l4.109,4.564a2.114,2.114,0,0,0,3.142,0l3.734-4.147a2.11,2.11,0,0,0,.519-1.732l-1.557-10.264a2.114,2.114,0,1,0-4.181.634l1.408,9.276-1.493,1.658-1.851-2.053.551-3.16a2.115,2.115,0,0,0-4.166-.726Zm32.051,17.549v13.216a.7.7,0,0,1-.7.7H407.513a2.114,2.114,0,0,0,0,4.228h33.544a4.933,4.933,0,0,0,4.933-4.933V193.19a2.114,2.114,0,1,0-4.228,0Z" transform="translate(-315.769 -139.906)" fill="#76236c" stroke="#fff" stroke-width="1" fill-rule="evenodd"/>
      <path id="Path_69429" data-name="Path 69429" d="M350.14,240.543h49.432a.705.705,0,0,1,.7.7v2.166a.7.7,0,0,1-.7.7H355.638a2.114,2.114,0,1,0,0,4.228h43.934a4.933,4.933,0,0,0,4.933-4.933v-2.166a4.932,4.932,0,0,0-4.933-4.933h-50.04a2.115,2.115,0,0,0-2.114,2.131v.073a2.116,2.116,0,0,0,2.114,2.114A2.05,2.05,0,0,0,350.14,240.543Z" transform="translate(-270.607 -192.949)" fill="#76236c" stroke="#fff" stroke-width="1" fill-rule="evenodd"/>
      <path id="Path_69430" data-name="Path 69430" d="M204.074,182.548a14.091,14.091,0,1,0,14.09,14.092A14.1,14.1,0,0,0,204.074,182.548Zm0,4.228a9.863,9.863,0,1,1-9.862,9.863,9.867,9.867,0,0,1,9.862-9.863ZM180.2,237.109a24.72,24.72,0,0,1,47.741,0,2.114,2.114,0,1,0,4.083-1.1,28.947,28.947,0,0,0-55.907,0,2.114,2.114,0,1,0,4.083,1.1Z" transform="translate(-137.125 -151.069)" fill="#76236c" stroke="#fff" stroke-width="1" fill-rule="evenodd"/>
      <path id="Path_69431" data-name="Path 69431" d="M282.256,373.956l-1.863-11.136a2.114,2.114,0,0,0-4.171.7l1.863,11.136a2.114,2.114,0,0,0,4.171-.7Zm-12.849-4.164-.7,3.612a2.114,2.114,0,0,0,4.152.8l.7-3.611a2.114,2.114,0,1,0-4.151-.8Z" transform="translate(-209.271 -290.11)" fill="#76236c" stroke="#fff" stroke-width="1" fill-rule="evenodd"/>
      <path id="Path_69432" data-name="Path 69432" d="M299.4,344.927l-2.565,3a.7.7,0,0,1-1.109-.049l-2-2.8a2.115,2.115,0,0,0-3.445,2.454l2,2.8a4.932,4.932,0,0,0,7.766.344l2.564-3a2.114,2.114,0,1,0-3.212-2.748Z" transform="translate(-225.798 -276.972)" fill="#76236c" stroke="#fff" stroke-width="1" fill-rule="evenodd"/>
      <path id="Path_69433" data-name="Path 69433" d="M164.83,347.676l2.564,3a4.931,4.931,0,0,0,7.766-.344l2-2.8a2.115,2.115,0,0,0-3.445-2.454l-2,2.8a.7.7,0,0,1-1.109.049l-2.565-3a2.114,2.114,0,1,0-3.212,2.748ZM140.231,380v8.173a4.932,4.932,0,0,0,4.934,4.933h62.023a4.933,4.933,0,0,0,4.933-4.933V371.8a2.114,2.114,0,1,0-4.228,0v16.371a.705.705,0,0,1-.7.7H145.164a.705.705,0,0,1-.7-.7V380a2.114,2.114,0,1,0-4.228,0Z" transform="translate(-109.227 -276.972)" fill="#76236c" stroke="#fff" stroke-width="1" fill-rule="evenodd"/>
      <path id="Path_69434" data-name="Path 69434" d="M201.02,422.222a4.932,4.932,0,0,0-4.934-4.933H125.262a4.933,4.933,0,0,0-4.933,4.933v3.7a4.932,4.932,0,0,0,4.934,4.933h70.824a4.933,4.933,0,0,0,4.933-4.933Zm-4.228,0v3.7a.7.7,0,0,1-.206.5.705.705,0,0,1-.5.207H125.262a.705.705,0,0,1-.7-.7v-3.7a.705.705,0,0,1,.7-.7h70.825a.705.705,0,0,1,.7.7Z" transform="translate(-93.725 -333.911)" fill="#76236c" stroke="#fff" stroke-width="1" fill-rule="evenodd"/>
    </g>
  </g>
</svg>
