<svg xmlns="http://www.w3.org/2000/svg" xmlns:xlink="http://www.w3.org/1999/xlink" width="111.761" height="111.761" viewBox="0 0 111.761 111.761">
  <defs>
    <clipPath id="clip-path">
      <path id="Path_69401" data-name="Path 69401" d="M0-682.665H111.761V-570.9H0Z" transform="translate(0 682.665)"/>
    </clipPath>
  </defs>
  <g id="svgexport-18_3_" data-name="svgexport-18 (3)" transform="translate(0 -0.002)">
    <g id="Group_68156" data-name="Group 68156" transform="translate(0 0.002)" clip-path="url(#clip-path)">
      <path id="Path_69396" data-name="Path 69396" d="M0,0H108.486" transform="translate(1.637 103.999)" fill="none" stroke="#76236c" stroke-linecap="round" stroke-linejoin="round" stroke-miterlimit="10" stroke-width="2.5"/>
      <path id="Path_69397" data-name="Path 69397" d="M0,0V48.994" transform="translate(106.624 55.006)" fill="none" stroke="#76236c" stroke-linecap="round" stroke-linejoin="round" stroke-miterlimit="10" stroke-width="2.5"/>
      <path id="Path_69398" data-name="Path 69398" d="M0-250.275v-48.994" transform="translate(5.137 354.274)" fill="none" stroke="#76236c" stroke-linecap="round" stroke-linejoin="round" stroke-miterlimit="10" stroke-width="2.5"/>
      <path id="Path_69399" data-name="Path 69399" d="M-178.768-80.445h7l-7-15.748h-35" transform="translate(281.892 135.451)" fill="none" stroke="#76236c" stroke-linecap="round" stroke-linejoin="round" stroke-miterlimit="10" stroke-width="2.5"/>
      <path id="Path_69400" data-name="Path 69400" d="M-214.521-62.569h-35l-7,15.748h26.247l28-28,28,28h12.249" transform="translate(258.152 101.826)" fill="none" stroke="#76236c" stroke-linecap="round" stroke-linejoin="round" stroke-miterlimit="10" stroke-width="2.5"/>
    </g>
    <path id="Path_69402" data-name="Path 69402" d="M0-98.322v-19.248" transform="translate(55.88 125.332)" fill="none" stroke="#76236c" stroke-linecap="round" stroke-linejoin="round" stroke-miterlimit="10" stroke-width="2.5"/>
    <path id="Path_69403" data-name="Path 69403" d="M0,0H12.248V8.749H0" transform="translate(55.88 7.763)" fill="none" stroke="#76236c" stroke-linecap="round" stroke-linejoin="round" stroke-miterlimit="10" stroke-width="2.5"/>
    <g id="Group_68157" data-name="Group 68157" transform="translate(0 0.002)" clip-path="url(#clip-path)">
      <path id="Path_69404" data-name="Path 69404" d="M-107.26-53.63a10.5,10.5,0,0,1-10.5,10.5,10.5,10.5,0,0,1-10.5-10.5,10.5,10.5,0,0,1,10.5-10.5A10.5,10.5,0,0,1-107.26-53.63Z" transform="translate(173.639 112.135)" fill="none" stroke="#76236c" stroke-linecap="round" stroke-linejoin="round" stroke-miterlimit="10" stroke-width="2.5"/>
      <path id="Path_69405" data-name="Path 69405" d="M0-26.815v-3.5l3.5-1.75" transform="translate(55.88 88.819)" fill="none" stroke="#76236c" stroke-linecap="round" stroke-linejoin="round" stroke-miterlimit="10" stroke-width="2.5"/>
      <path id="Path_69406" data-name="Path 69406" d="M0,0V15.748" transform="translate(55.88 81.252)" fill="none" stroke="#76236c" stroke-linecap="round" stroke-linejoin="round" stroke-miterlimit="10" stroke-width="2.5"/>
      <path id="Path_69407" data-name="Path 69407" d="M0-35.753v-7H28v7" transform="translate(41.882 139.752)" fill="none" stroke="#76236c" stroke-linecap="round" stroke-linejoin="round" stroke-miterlimit="10" stroke-width="2.5"/>
      <path id="Path_69408" data-name="Path 69408" d="M-107.26-80.445V-96.193h-21v15.748" transform="translate(173.639 177.445)" fill="none" stroke="#76236c" stroke-linecap="round" stroke-linejoin="round" stroke-miterlimit="10" stroke-width="2.5"/>
      <path id="Path_69409" data-name="Path 69409" d="M-53.632-53.63h14v-10.5h-24.5v10.5h3.5" transform="translate(76.266 145.381)" fill="none" stroke="#76236c" stroke-linecap="round" stroke-linejoin="round" stroke-miterlimit="10" stroke-width="2.5"/>
      <path id="Path_69410" data-name="Path 69410" d="M74.129-282.738h24.5v-10.5h-24.5Z" transform="translate(-61.993 356.991)" fill="none" stroke="#76236c" stroke-linecap="round" stroke-linejoin="round" stroke-miterlimit="10" stroke-width="2.5"/>
      <path id="Path_69411" data-name="Path 69411" d="M0-53.63v-10.5" transform="translate(24.384 127.884)" fill="none" stroke="#76236c" stroke-linecap="round" stroke-linejoin="round" stroke-miterlimit="10" stroke-width="2.5"/>
      <path id="Path_69412" data-name="Path 69412" d="M0-53.63v-10.5" transform="translate(24.384 145.381)" fill="none" stroke="#76236c" stroke-linecap="round" stroke-linejoin="round" stroke-miterlimit="10" stroke-width="2.5"/>
      <path id="Path_69413" data-name="Path 69413" d="M458.9-265.24h24.5v-10.5H458.9Zm0-17.5h24.5v-10.5H458.9Z" transform="translate(-383.774 356.991)" fill="none" stroke="#76236c" stroke-linecap="round" stroke-linejoin="round" stroke-miterlimit="10" stroke-width="2.5"/>
      <path id="Path_69414" data-name="Path 69414" d="M0-53.63v-10.5" transform="translate(87.376 127.884)" fill="none" stroke="#76236c" stroke-linecap="round" stroke-linejoin="round" stroke-miterlimit="10" stroke-width="2.5"/>
      <path id="Path_69415" data-name="Path 69415" d="M0-53.63v-10.5" transform="translate(87.376 145.381)" fill="none" stroke="#76236c" stroke-linecap="round" stroke-linejoin="round" stroke-miterlimit="10" stroke-width="2.5"/>
    </g>
  </g>
</svg>
