<svg xmlns="http://www.w3.org/2000/svg" width="109.643" height="109.643" viewBox="0 0 109.643 109.643">
  <g id="svgexport-17_24_" data-name="svgexport-17 (24)" transform="translate(1 1)">
    <path id="Path_69239" data-name="Path 69239" d="M20.508,79.732H5.7a3.7,3.7,0,0,0-3.7,3.7V98.24a3.7,3.7,0,0,0,3.7,3.7H20.508a3.7,3.7,0,0,0,3.7-3.7V83.434A3.7,3.7,0,0,0,20.508,79.732Zm11.1-3.7H46.418a3.7,3.7,0,0,0,3.7-3.7V57.523a3.7,3.7,0,0,0-3.7-3.7H31.612a3.7,3.7,0,0,0-3.7,3.7V72.329A3.7,3.7,0,0,0,31.612,76.031ZM57.523,50.12H72.329a3.7,3.7,0,0,0,3.7-3.7V31.612a3.7,3.7,0,0,0-3.7-3.7H57.523a3.7,3.7,0,0,0-3.7,3.7V46.418A3.7,3.7,0,0,0,57.523,50.12ZM83.434,24.209H98.24a3.7,3.7,0,0,0,3.7-3.7V5.7A3.7,3.7,0,0,0,98.24,2H83.434a3.7,3.7,0,0,0-3.7,3.7V20.508A3.7,3.7,0,0,0,83.434,24.209Z" transform="translate(0 0)" fill="#76236c" stroke="#fff" stroke-width="6"/>
    <path id="Path_69240" data-name="Path 69240" d="M83.031,9H64.523a3.7,3.7,0,0,0-3.7,3.7V34.911H38.612a3.7,3.7,0,0,0-3.7,3.7V60.821H12.7a3.7,3.7,0,0,0-3.7,3.7V83.031a3.7,3.7,0,0,0,7.4,0V68.225H38.612a3.7,3.7,0,0,0,3.7-3.7V42.314H64.523a3.7,3.7,0,0,0,3.7-3.7V16.4H83.031a3.7,3.7,0,0,0,0-7.4Z" transform="translate(18.911 18.911)" fill="#76236c" stroke="#fff" stroke-width="6"/>
  </g>
</svg>
