<svg xmlns="http://www.w3.org/2000/svg" width="117.167" height="104.418" viewBox="0 0 117.167 104.418">
  <g id="subscription_1_" data-name="subscription (1)" transform="translate(-6 -33.75)">
    <path id="Path_69649" data-name="Path 69649" d="M7.5,120.566V102.111a3.781,3.781,0,0,1,3.781-3.781h17.3" transform="translate(0 -48.59)" fill="none" stroke="#76236c" stroke-linecap="round" stroke-linejoin="round" stroke-width="3"/>
    <path id="Path_69650" data-name="Path 69650" d="M7.5,230.13v38.38a3.781,3.781,0,0,0,3.781,3.781H28.533" transform="translate(0 -150.114)" fill="none" stroke="#76236c" stroke-linecap="round" stroke-linejoin="round" stroke-width="3"/>
    <path id="Path_69651" data-name="Path 69651" d="M412.6,98.33h17.33a3.781,3.781,0,0,1,3.781,3.781v44.911" transform="translate(-312.043 -48.59)" fill="none" stroke="#76236c" stroke-linecap="round" stroke-linejoin="round" stroke-width="3"/>
    <path id="Path_69652" data-name="Path 69652" d="M433.541,345.3v11.924a3.781,3.781,0,0,1-3.781,3.781H412.38" transform="translate(-311.874 -238.828)" fill="none" stroke="#76236c" stroke-linecap="round" stroke-linejoin="round" stroke-width="3"/>
    <line id="Line_9043" data-name="Line 9043" x2="20.148" transform="translate(100.505 61.371)" fill="none" stroke="#76236c" stroke-linecap="round" stroke-linejoin="round" stroke-width="3"/>
    <line id="Line_9044" data-name="Line 9044" x2="20.459" transform="translate(8.022 61.371)" fill="none" stroke="#76236c" stroke-linecap="round" stroke-linejoin="round" stroke-width="3"/>
    <path id="Path_69653" data-name="Path 69653" d="M40.86,198.094l2.354,2.124,3.939-4.628" transform="translate(-25.697 -123.508)" fill="none" stroke="#76236c" stroke-linecap="round" stroke-linejoin="round" stroke-width="3"/>
    <line id="Line_9045" data-name="Line 9045" x2="5.364" y2="5.364" transform="translate(15.163 87.378)" fill="none" stroke="#76236c" stroke-linecap="round" stroke-linejoin="round" stroke-width="3"/>
    <line id="Line_9046" data-name="Line 9046" y1="5.364" x2="5.364" transform="translate(15.163 87.378)" fill="none" stroke="#76236c" stroke-linecap="round" stroke-linejoin="round" stroke-width="3"/>
    <line id="Line_9047" data-name="Line 9047" x2="5.364" y2="5.364" transform="translate(15.163 103.411)" fill="none" stroke="#76236c" stroke-linecap="round" stroke-linejoin="round" stroke-width="3"/>
    <line id="Line_9048" data-name="Line 9048" y1="5.364" x2="5.364" transform="translate(15.163 103.411)" fill="none" stroke="#76236c" stroke-linecap="round" stroke-linejoin="round" stroke-width="3"/>
    <path id="Path_69654" data-name="Path 69654" d="M181.9,35.25h47.192a5.294,5.294,0,0,1,5.295,5.293v90.833a5.294,5.294,0,0,1-5.295,5.293H217.14" transform="translate(-134.338)" fill="none" stroke="#76236c" stroke-linecap="round" stroke-linejoin="round" stroke-width="3"/>
    <path id="Path_69655" data-name="Path 69655" d="M112.014,35.25H106.9a5.294,5.294,0,0,0-5.295,5.293v90.833a5.294,5.294,0,0,0,5.295,5.293h40.349" transform="translate(-72.492)" fill="none" stroke="#76236c" stroke-linecap="round" stroke-linejoin="round" stroke-width="3"/>
    <line id="Line_9049" data-name="Line 9049" x2="69.193" transform="translate(29.796 49.741)" fill="none" stroke="#76236c" stroke-linecap="round" stroke-linejoin="round" stroke-width="3"/>
    <path id="Path_69656" data-name="Path 69656" d="M144.731,167.86l3.381,3.051,5.657-6.647" transform="translate(-105.707 -99.378)" fill="none" stroke="#76236c" stroke-linecap="round" stroke-linejoin="round" stroke-width="3"/>
    <path id="Path_69657" data-name="Path 69657" d="M144.731,242.394l3.381,3.051,5.657-6.647" transform="translate(-105.707 -156.79)" fill="none" stroke="#76236c" stroke-linecap="round" stroke-linejoin="round" stroke-width="3"/>
    <path id="Path_69658" data-name="Path 69658" d="M144.731,316.927l3.381,3.051,5.657-6.647" transform="translate(-105.707 -214.202)" fill="none" stroke="#76236c" stroke-linecap="round" stroke-linejoin="round" stroke-width="3"/>
    <path id="Path_69659" data-name="Path 69659" d="M144.731,391.46l3.381,3.051,5.657-6.647" transform="translate(-105.707 -271.614)" fill="none" stroke="#76236c" stroke-linecap="round" stroke-linejoin="round" stroke-width="3"/>
    <line id="Line_9050" data-name="Line 9050" x2="34.141" transform="translate(56.003 68.21)" fill="none" stroke="#76236c" stroke-linecap="round" stroke-linejoin="round" stroke-width="3"/>
    <line id="Line_9051" data-name="Line 9051" x2="34.141" transform="translate(56.003 88.777)" fill="none" stroke="#76236c" stroke-linecap="round" stroke-linejoin="round" stroke-width="3"/>
    <line id="Line_9052" data-name="Line 9052" x2="23.367" transform="translate(56.003 81.885)" fill="none" stroke="#76236c" stroke-linecap="round" stroke-linejoin="round" stroke-width="3"/>
    <line id="Line_9053" data-name="Line 9053" x2="34.141" transform="translate(56.003 102.452)" fill="none" stroke="#76236c" stroke-linecap="round" stroke-linejoin="round" stroke-width="3"/>
    <line id="Line_9054" data-name="Line 9054" x2="27.009" transform="translate(56.003 119.573)" fill="none" stroke="#76236c" stroke-linecap="round" stroke-linejoin="round" stroke-width="3"/>
    <line id="Line_9055" data-name="Line 9055" x2="11.734" transform="translate(100.96 74.396)" fill="none" stroke="#76236c" stroke-linecap="round" stroke-linejoin="round" stroke-width="3"/>
    <line id="Line_9056" data-name="Line 9056" x2="11.734" transform="translate(100.96 90.061)" fill="none" stroke="#76236c" stroke-linecap="round" stroke-linejoin="round" stroke-width="3"/>
    <line id="Line_9057" data-name="Line 9057" x2="11.734" transform="translate(100.96 106.093)" fill="none" stroke="#76236c" stroke-linecap="round" stroke-linejoin="round" stroke-width="3"/>
  </g>
</svg>
