<svg width="15" height="16" viewBox="0 0 15 16" fill="none" xmlns="http://www.w3.org/2000/svg">
<path d="M10.8516 7.22657H10.1484V5.72656C10.1484 4.27343 8.95312 3.07812 7.5 3.07812C6.04687 3.07812 4.85156 4.27343 4.85156 5.72656V7.22657H4.14844V5.72656C4.14844 3.875 5.64843 2.375 7.5 2.375C9.35156 2.375 10.8516 3.875 10.8516 5.72656V7.22657Z" fill="#82868C"/>
<path d="M10.5 13.6016H4.5C3.89063 13.6016 3.375 13.0859 3.375 12.4766V7.97656C3.375 7.36718 3.89063 6.85156 4.5 6.85156H10.5C11.1094 6.85156 11.625 7.36718 11.625 7.97656V12.4766C11.625 13.1094 11.1094 13.6016 10.5 13.6016ZM4.5 7.60156C4.28907 7.60156 4.125 7.76562 4.125 7.97656V12.4766C4.125 12.6875 4.28907 12.8516 4.5 12.8516H10.5C10.7109 12.8516 10.875 12.6875 10.875 12.4766V7.97656C10.875 7.76562 10.7109 7.60156 10.5 7.60156H4.5Z" fill="#82868C"/>
<path d="M8.25 9.10157C8.25 9.52344 7.92187 9.85156 7.5 9.85156C7.07812 9.85156 6.75 9.52344 6.75 9.10157C6.75 8.67969 7.07812 8.35156 7.5 8.35156C7.92187 8.35156 8.25 8.70313 8.25 9.10157Z" fill="#82868C"/>
<path d="M7.6875 9.10156H7.3125L6.9375 11.3516H8.0625L7.6875 9.10156Z" fill="#82868C"/>
</svg>
