<svg width="328" height="328" viewBox="0 0 328 328" fill="none" xmlns="http://www.w3.org/2000/svg">
<rect x="0.5" y="0.5" width="327" height="327" rx="4.5" fill="#E3E6EB" stroke="white"/>
<path d="M165.281 162.78C181.22 162.78 194.14 149.859 194.14 133.921C194.14 117.983 181.22 105.062 165.281 105.062C149.343 105.062 136.423 117.983 136.423 133.921C136.423 149.859 149.343 162.78 165.281 162.78Z" stroke="#82868C" stroke-width="2.5" stroke-linecap="round" stroke-linejoin="round"/>
<path d="M165.281 173.274C150.049 173.691 135.122 177.643 121.678 184.817C118.219 186.573 115.314 189.252 113.285 192.559C111.257 195.866 110.185 199.67 110.188 203.549V207.379C110.188 209.467 111.017 211.469 112.493 212.945C113.969 214.421 115.971 215.25 118.058 215.25H212.504C214.592 215.25 216.594 214.421 218.07 212.945C219.546 211.469 220.375 209.467 220.375 207.379V203.549C220.378 199.67 219.306 195.866 217.277 192.559C215.249 189.252 212.343 186.573 208.884 184.817C195.441 177.643 180.514 173.691 165.281 173.274V173.274Z" stroke="#82868C" stroke-width="2.5" stroke-linecap="round" stroke-linejoin="round"/>
</svg>
