<svg xmlns="http://www.w3.org/2000/svg" width="85.632" height="97.139" viewBox="0 0 85.632 97.139">
  <g id="svgexport-17_19_" data-name="svgexport-17 (19)" transform="translate(0.524 0.5)">
    <g id="Group_67911" data-name="Group 67911" transform="translate(0)">
      <path id="Path_69227" data-name="Path 69227" d="M82.73,38.808H18.668L80.2,20.983a1.878,1.878,0,0,0,1.281-2.326L78.262,7.541A10.512,10.512,0,0,0,68.208,0a10.4,10.4,0,0,0-2.892.411L7.544,17.147A10.474,10.474,0,0,0,.414,30.092L3.56,40.952V85.689a10.461,10.461,0,0,0,10.449,10.45H36.573a1.878,1.878,0,0,0,0-3.755H14.01a6.7,6.7,0,0,1-6.694-6.694V60.136H80.852V85.689a6.7,6.7,0,0,1-6.694,6.694H51.594a1.878,1.878,0,0,0,0,3.755H74.158a10.462,10.462,0,0,0,10.45-10.45v-45a1.878,1.878,0,0,0-1.878-1.878ZM49.62,56.38,57.6,42.563H67.975L60,56.38Zm-14.714,0,7.978-13.817H53.261L45.284,56.38Zm-14.713,0,7.977-13.817H38.548L30.57,56.38Zm6.981-24.308L13.815,19.241l10.01-2.9a1.863,1.863,0,0,0,.246.29l13.36,12.831-10.01,2.9a1.868,1.868,0,0,0-.246-.29ZM52.336,8.443,65.7,21.274l-10.01,2.9a1.829,1.829,0,0,0-.247-.29L42.08,11.053l10.01-2.9a1.863,1.863,0,0,0,.247.29ZM38.2,12.537l13.36,12.831-10.01,2.9a1.829,1.829,0,0,0-.247-.29L27.947,15.147l10.01-2.9A1.979,1.979,0,0,0,38.2,12.537ZM66.362,4.019a6.636,6.636,0,0,1,1.847-.263,6.737,6.737,0,0,1,6.446,4.831l2.7,9.312L69.819,20.08a1.908,1.908,0,0,0-.247-.29L56.212,6.959ZM4.6,23.96a6.644,6.644,0,0,1,3.992-3.205l1.1-.32a1.91,1.91,0,0,0,.247.29L23.3,33.556l-16.579,4.8-2.7-9.312A6.647,6.647,0,0,1,4.6,23.96Zm2.719,18.6H23.835L15.857,56.38H7.316ZM64.333,56.38l7.977-13.817h8.541V56.38Zm0,0" transform="translate(0)" fill="#76236c" stroke="#fff" stroke-width="1" fill-rule="evenodd"/>
      <path id="Path_69228" data-name="Path 69228" d="M216.318,355.793a1.877,1.877,0,0,0-.939-1.626l-16.5-9.524a1.878,1.878,0,0,0-2.817,1.626v19.049a1.878,1.878,0,0,0,2.817,1.625l16.5-9.524A1.877,1.877,0,0,0,216.318,355.793Zm-16.5,6.272V349.521l10.864,6.272Zm3.513,10.043a1.878,1.878,0,1,0,1.878,1.878A1.881,1.881,0,0,0,203.334,372.108Zm0,0" transform="translate(-159.251 -279.725)" fill="#76236c" stroke="#fff" stroke-width="1" fill-rule="evenodd"/>
    </g>
  </g>
</svg>
