<svg xmlns="http://www.w3.org/2000/svg" width="38.001" height="37.996" viewBox="0 0 38.001 37.996">
  <g id="Layer_2" data-name="Layer 2" transform="translate(-1 -1)">
    <path id="Path_69552" data-name="Path 69552" d="M36.256,27.167H31.4a4.4,4.4,0,0,0-8.453,0H2.267a1.267,1.267,0,0,0,0,2.533H22.952a4.4,4.4,0,0,0,8.449,0h4.851a1.267,1.267,0,1,0,0-2.533Zm-9.077,3.167a1.9,1.9,0,1,1,1.9-1.9A1.9,1.9,0,0,1,27.179,30.334Z" transform="translate(0 6.134)" fill="#000"/>
    <path id="Path_69553" data-name="Path 69553" d="M35.024,1H4.977A3.981,3.981,0,0,0,1,4.977V24.89a3.981,3.981,0,0,0,3.977,3.977H35.024A3.981,3.981,0,0,0,39,24.89V4.977A3.981,3.981,0,0,0,35.024,1Zm1.444,23.89a1.445,1.445,0,0,1-1.444,1.444H4.977A1.445,1.445,0,0,1,3.533,24.89V4.977A1.445,1.445,0,0,1,4.977,3.533H35.024a1.445,1.445,0,0,1,1.444,1.444Z" fill="#000"/>
    <path id="Path_69554" data-name="Path 69554" d="M24.072,12.526,13.938,6.193A1.267,1.267,0,0,0,12,7.267V19.934a1.267,1.267,0,0,0,1.938,1.074l10.134-6.334a1.267,1.267,0,0,0,0-2.153Zm-9.538,5.128V9.547L21.01,13.6Z" transform="translate(2.934 1.334)" fill="#000"/>
  </g>
</svg>
