<svg id="Component_140_1" data-name="Component 140 – 1" xmlns="http://www.w3.org/2000/svg" width="27.159" height="18" viewBox="0 0 27.159 18">
  <g id="_44_Visibility" data-name="44 Visibility" transform="translate(-2.421 -7)">
    <path id="Path_69570" data-name="Path 69570" d="M16,21c-6.6,0-6.6-10,0-10C22.525,11,22.807,21,16,21Zm0-8c-4,0-4,6,0,6S20,13,16,13Z" fill="#76236c"/>
    <path id="Path_69571" data-name="Path 69571" d="M16,25c-4.949,0-9.688-2.629-13-7.214a3.043,3.043,0,0,1,0-3.572C6.312,9.629,11.051,7,16,7s9.688,2.629,13,7.214a3.043,3.043,0,0,1,0,3.572C25.688,22.371,20.949,25,16,25ZM4.617,16.614C7.595,20.732,11.637,23,16,23s8.4-2.268,11.383-6.386a1.047,1.047,0,0,0,0-1.229C24.4,11.268,20.363,9,16,9s-8.4,2.268-11.383,6.386a1.047,1.047,0,0,0,0,1.229Z" fill="#76236c"/>
  </g>
</svg>
