<svg width="30" height="30" viewBox="0 0 30 30" fill="none" xmlns="http://www.w3.org/2000/svg">
<circle opacity="0.12" cx="15" cy="15" r="15" fill="#5CC7D7"/>
<path d="M14.3333 9.66699H9.66665C9.31302 9.66699 8.97389 9.80747 8.72384 10.0575C8.47379 10.3076 8.33331 10.6467 8.33331 11.0003V20.3337C8.33331 20.6873 8.47379 21.0264 8.72384 21.2765C8.97389 21.5265 9.31302 21.667 9.66665 21.667H19C19.3536 21.667 19.6927 21.5265 19.9428 21.2765C20.1928 21.0264 20.3333 20.6873 20.3333 20.3337V15.667" stroke="#5CC7D7" stroke-linecap="round" stroke-linejoin="round"/>
<path d="M19.3333 8.66617C19.5985 8.40095 19.9582 8.25195 20.3333 8.25195C20.7084 8.25195 21.0681 8.40095 21.3333 8.66617C21.5985 8.93138 21.7475 9.29109 21.7475 9.66617C21.7475 10.0412 21.5985 10.401 21.3333 10.6662L15 16.9995L12.3333 17.6662L13 14.9995L19.3333 8.66617Z" stroke="#5CC7D7" stroke-linecap="round" stroke-linejoin="round"/>
</svg>
