<svg xmlns="http://www.w3.org/2000/svg" width="469.5" height="295.682" viewBox="0 0 469.5 295.682">
  <g id="Group_68404" data-name="Group 68404" transform="translate(-725.25 -929.318)">
    <g id="medal" transform="translate(798 868.752)">
      <path id="Path_69465" data-name="Path 69465" d="M405.708,257.857a27.909,27.909,0,0,0-21.492-28.009l-.488,16.184a28.061,28.061,0,0,0,.75,7.292l1.139.452a38.9,38.9,0,0,1,19.7,17.362Zm0,0" transform="translate(-115.94 -51.148)" fill="#fdf5fc"/>
      <path id="Path_69466" data-name="Path 69466" d="M396.277,141.31A27.935,27.935,0,0,0,396.852,106L386.826,93.3a27.955,27.955,0,0,0-.581,35.3Zm0,0" transform="translate(-114.893 -9.89)" fill="#fdf5fc"/>
      <path id="Path_69467" data-name="Path 69467" d="M339.641,91.888l10.217,7.257c3.279-11.618-.54-24.7-9.871-31.319l-10.214-7.259c-3.279,11.613.54,24.695,9.868,31.321Zm0,0" transform="translate(-99.291 0)" fill="#fdf5fc"/>
      <path id="Path_69468" data-name="Path 69468" d="M394.918,316.382a27.962,27.962,0,0,0-10.629-33.671L378.3,297.747a28.369,28.369,0,0,0-1.791,7.112l.921.82A38.922,38.922,0,0,1,390,328.747Zm0,0" transform="translate(-113.763 -67.121)" fill="#fdf5fc"/>
      <path id="Path_69469" data-name="Path 69469" d="M342.164,159.383,343.33,159a38.673,38.673,0,0,1,26.227.6l-8.211-10.4a27.973,27.973,0,0,0-34.475-7.638L336.9,154.274a27.943,27.943,0,0,0,5.261,5.108Zm0,0" transform="translate(-98.764 -23.577)" fill="#fdf5fc"/>
      <path id="Path_69470" data-name="Path 69470" d="M372.816,203.19a38.778,38.778,0,0,1,24.447,9.541l-4.154-12.583a27.934,27.934,0,0,0-29.795-18.965l5.081,15.375a28.3,28.3,0,0,0,3.2,6.6Zm0,0" transform="translate(-109.775 -36.381)" fill="#fdf5fc"/>
      <path id="Path_69471" data-name="Path 69471" d="M342.421,432.39a28.783,28.783,0,0,0-22.14,2.309l-15.5,8.063a29.107,29.107,0,0,0,14.731,10.228,28.8,28.8,0,0,0,22.208-2.339l15.276-8.363A29.273,29.273,0,0,0,342.421,432.39Zm0,0" transform="translate(-92.089 -111.975)" fill="#fdf5fc"/>
      <path id="Path_69472" data-name="Path 69472" d="M377.678,390.636,366.9,402.728a27.946,27.946,0,0,0,34.876-5.561l10.776-12.087a27.934,27.934,0,0,0-34.876,5.556Zm0,0" transform="translate(-110.86 -96.908)" fill="#fdf5fc"/>
      <path id="Path_69473" data-name="Path 69473" d="M439.789,239.427a27.727,27.727,0,0,0-8.761,19.485l-.485,16.184a27.935,27.935,0,0,0,23.135-26.679l.491-16.187a27.775,27.775,0,0,0-14.38,7.2Zm0,0" transform="translate(-130.089 -51.868)" fill="#fdf5fc"/>
      <path id="Path_69474" data-name="Path 69474" d="M430.052,313.951a27.7,27.7,0,0,0-14.9,15.306l-5.989,15.047a27.936,27.936,0,0,0,30.866-17.157l5.992-15.039A27.593,27.593,0,0,0,430.052,313.951Zm0,0" transform="translate(-123.628 -75.867)" fill="#fdf5fc"/>
      <path id="Path_69475" data-name="Path 69475" d="M364.743,368.767a27.961,27.961,0,0,0,1.532-35.271L355.5,345.577a28.041,28.041,0,0,0-3.835,5.727,41.552,41.552,0,0,1,2.279,29.571Zm0,0" transform="translate(-106.255 -82.466)" fill="#fdf5fc"/>
      <path id="Path_69476" data-name="Path 69476" d="M425.664,204.532a27.964,27.964,0,0,0,12.627-32.979l-5.079-15.369a27.961,27.961,0,0,0-12.624,32.979Zm0,0" transform="translate(-126.654 -28.891)" fill="#fdf5fc"/>
      <path id="Path_69477" data-name="Path 69477" d="M326.265,371.473l-15.107,8.262a30.282,30.282,0,0,0-14.268,35.07l15.263-7.938a30.265,30.265,0,0,0,14.112-35.394Zm0,0" transform="translate(-89.331 -93.941)" fill="#fdf5fc"/>
      <path id="Path_69478" data-name="Path 69478" d="M115.054,91.888c9.328-6.632,13.142-19.7,9.871-31.321l-10.217,7.259c-9.328,6.632-13.142,19.7-9.871,31.319Zm0,0" transform="translate(-31.328 0)" fill="#fdf5fc"/>
      <path id="Path_69479" data-name="Path 69479" d="M102.579,159l1.161.384a27.9,27.9,0,0,0,5.258-5.1L119.03,141.57a27.971,27.971,0,0,0-34.473,7.638l-8.213,10.4A38.761,38.761,0,0,1,102.579,159Zm0,0" transform="translate(-23.067 -23.578)" fill="#fdf5fc"/>
      <path id="Path_69480" data-name="Path 69480" d="M100.164,345.57,89.391,333.488A27.961,27.961,0,0,0,90.92,368.76l9.83,11.027a41.534,41.534,0,0,1,2.881-29.3,27.584,27.584,0,0,0-3.467-4.918Zm0,0" transform="translate(-25.338 -82.463)" fill="#fdf5fc"/>
      <path id="Path_69481" data-name="Path 69481" d="M39.272,344.315l-5.989-15.047a27.7,27.7,0,0,0-14.9-15.306,27.677,27.677,0,0,0-15.969-1.843l5.992,15.039a27.936,27.936,0,0,0,30.866,17.157Zm0,0" transform="translate(-0.729 -75.872)" fill="#fdf5fc"/>
      <path id="Path_69482" data-name="Path 69482" d="M23.626,275.1l-.485-16.179a27.758,27.758,0,0,0-8.759-19.485A27.763,27.763,0,0,0,0,232.238l.491,16.187A27.928,27.928,0,0,0,23.626,275.1Zm0,0" transform="translate(0 -51.871)" fill="#fdf5fc"/>
      <path id="Path_69483" data-name="Path 69483" d="M120.54,434.724a28.653,28.653,0,0,0-22.2-2.339,29.141,29.141,0,0,0-14.565,9.9l15.279,8.363a28.721,28.721,0,0,0,22.2,2.339,29.139,29.139,0,0,0,14.739-10.228Zm0,0" transform="translate(-25.313 -111.971)" fill="#fdf5fc"/>
      <path id="Path_69484" data-name="Path 69484" d="M138.372,379.743l-15.107-8.262a30.287,30.287,0,0,0,14.164,35.427l15.214,7.914a30.287,30.287,0,0,0-14.27-35.078Zm0,0" transform="translate(-36.838 -93.943)" fill="#fdf5fc"/>
      <path id="Path_69485" data-name="Path 69485" d="M29.845,204.532l5.073-15.369A27.959,27.959,0,0,0,22.3,156.184l-5.081,15.369a27.986,27.986,0,0,0,12.629,32.979Zm0,0" transform="translate(-4.777 -28.891)" fill="#fdf5fc"/>
      <path id="Path_69486" data-name="Path 69486" d="M66.946,390.635a27.934,27.934,0,0,0-34.876-5.556l10.776,12.082a27.939,27.939,0,0,0,34.876,5.566Zm0,0" transform="translate(-9.69 -96.908)" fill="#fdf5fc"/>
      <path id="Path_69487" data-name="Path 69487" d="M69.247,253.777l1.139-.453a28.114,28.114,0,0,0,.747-7.3l-.485-16.179a27.907,27.907,0,0,0-21.494,28.009l.4,13.286a38.894,38.894,0,0,1,19.692-17.367Zm0,0" transform="translate(-14.848 -51.149)" fill="#fdf5fc"/>
      <path id="Path_69488" data-name="Path 69488" d="M60.654,316.385l4.923,12.365a38.864,38.864,0,0,1,12.567-23.067l.921-.821a27.823,27.823,0,0,0-1.8-7.107l-5.986-15.037a27.952,27.952,0,0,0-10.629,33.666Zm0,0" transform="translate(-17.728 -67.123)" fill="#fdf5fc"/>
      <path id="Path_69489" data-name="Path 69489" d="M81.3,196.559l5.078-15.375A27.934,27.934,0,0,0,56.585,200.15l-4.152,12.583a38.766,38.766,0,0,1,24.447-9.541l1.221-.033a28.306,28.306,0,0,0,3.2-6.6Zm0,0" transform="translate(-15.843 -36.383)" fill="#fdf5fc"/>
      <path id="Path_69490" data-name="Path 69490" d="M58.334,141.31,68.366,128.6a27.968,27.968,0,0,0-.581-35.3L57.759,106a27.942,27.942,0,0,0,.575,35.312Zm0,0" transform="translate(-15.637 -9.89)" fill="#fdf5fc"/>
      <path id="Path_69493" data-name="Path 69493" d="M179.548,441.078a44.3,44.3,0,0,1-4.291,10.375,137.565,137.565,0,0,0,78.816,0,44.545,44.545,0,0,1-4.293-10.375,129.882,129.882,0,0,1-70.232,0Zm0,0" transform="translate(-52.954 -114.972)" fill="#fdf5fc"/>
    </g>
    <line id="Line_8959" data-name="Line 8959" x2="469.5" transform="translate(725.25 1224.5)" fill="none" stroke="#f4edf3" stroke-width="1"/>
  </g>
</svg>
